<svg width="415" height="539" viewBox="0 0 415 539" fill="none" xmlns="http://www.w3.org/2000/svg">
<circle cx="207.5" cy="258" r="246" fill="#9AA2FD"/>
<circle cx="207.5" cy="258" r="246" fill="#949DFF"/>
<circle cx="207.5" cy="258" r="211" fill="#9AA2FD"/>
<circle cx="207.5" cy="258" r="211" fill="#99A1FF"/>
<circle cx="207.5" cy="258" r="177" fill="#9AA2FD"/>
<circle cx="207.5" cy="258" r="177" fill="#9EA6FF"/>
<path d="M296.9 67C295.329 58.7727 286.645 54.5733 282.5 53.5021C292.449 50.931 297.118 58.8584 298.209 63.1434C309.205 56.973 316.318 61.0009 318.5 63.7862C310.122 61.2152 300.609 64.8575 296.9 67Z" fill="#B4BAFF"/>
<path d="M62.3 83C61.34 78.2987 56.0333 75.899 53.5 75.2869C59.58 73.8177 62.4333 78.3477 63.1 80.7963C69.82 77.2703 74.1667 79.572 75.5 81.1635C70.38 79.6944 64.5667 81.7757 62.3 83Z" fill="#B4BAFF"/>
<circle cx="207.5" cy="258" r="142" fill="#A3ABFF"/>
<rect x="-1.5" y="297" width="416" height="266" fill="#8C96FF"/>
<path d="M67.0835 265L-8.5 298H421.5L347.998 265H67.0835Z" fill="#8C96FF"/>
<path d="M180.98 203.64L166.7 226.84L194.09 259.37H221.71L247.46 226.29L231.52 203.64H180.98Z" fill="#3F4553"/>
<path d="M166.7 226.84C166.7 226.84 105.27 231.59 89.8599 247.68C74.4499 263.77 81.6999 281.24 96.7099 281.24C124.34 281.24 182.8 282.93 210.46 281.24L212.11 243.57L166.7 226.84Z" fill="#3F4553"/>
<path d="M245.87 226.04C245.87 226.04 310.2 231.59 325.61 247.68C341.02 263.77 332.14 274.43 318.76 281.24C299.93 290.83 232.06 289.24 196.86 277.59L203.37 243.57L245.87 226.04Z" fill="#3F4553"/>
<path d="M248.7 257.64L244.35 246.4L249.77 243.99C249.77 243.99 249.02 237.34 255.65 236.06C262.28 234.78 270.18 239.06 277.88 235.61C284.98 232.43 293.67 229.5 301.78 233.9C302.98 234.55 303.54 235.98 303.13 237.28L303.1 237.38C302.69 238.69 301.41 239.5 300.04 239.36C297.18 239.07 292.08 239.13 287.04 242.18C278.35 247.46 248.7 257.64 248.7 257.64Z" fill="#FEBBA0"/>
<path d="M299.31 258.28C299.31 258.28 256.38 250.65 165.95 249.47L157.22 261.31C157.22 261.31 179.72 274.17 200.84 278.82C221.96 283.47 294.87 298.11 327.43 275.56L299.31 258.28Z" fill="#3F4553"/>
<path d="M200.84 278.83C179.19 273.83 156.54 261.01 156.54 261.01L157.89 258.72" stroke="#6E758F" stroke-width="1.5925" stroke-miterlimit="10" stroke-linecap="round"/>
<path d="M165.95 249.47C165.95 249.47 265.3 247.2 291.81 262.58" stroke="#6E758F" stroke-width="1.5925" stroke-miterlimit="10" stroke-linecap="round"/>
<path d="M117.18 255.91C117.18 255.91 135.32 247.41 147.72 252.98" stroke="#6E758F" stroke-width="1.5925" stroke-miterlimit="10" stroke-linecap="round"/>
<path d="M159.31 259.35L165.94 249.25L159.31 245.66C159.31 245.66 156.99 239.85 150.49 238.05C143.98 236.26 139.35 239.15 131.94 235.11C125.11 231.38 116.67 227.79 108.25 231.54C107.01 232.09 106.33 233.47 106.64 234.8L106.66 234.9C106.97 236.24 108.18 237.14 109.55 237.11C112.42 237.04 117.51 237.5 122.29 240.94C130.54 246.88 159.31 259.35 159.31 259.35Z" fill="#FEBBA0"/>
<path d="M216.39 249.83L243.55 247.16" stroke="#6E758F" stroke-width="1.5925" stroke-miterlimit="10" stroke-linecap="round"/>
<path d="M181.85 238.06L197 249.03" stroke="#6E758F" stroke-width="1.5925" stroke-miterlimit="10" stroke-linecap="round"/>
<path d="M177.94 88.7702C178.58 95.0302 184.03 99.5902 190.11 98.9702C196.19 98.3502 200.6 92.7702 199.96 86.5202C199.32 80.2602 193.87 75.7002 187.79 76.3202C181.72 76.9302 177.31 82.5102 177.94 88.7702Z" fill="#3F4553"/>
<path d="M200.65 93.3202C200.65 93.3202 181.33 90.4002 178.29 72.1702C175.61 56.0602 186.42 43.1502 198.27 40.9202C198.28 40.9202 226.75 84.8002 200.65 93.3202Z" fill="#3F4553"/>
<path d="M201.09 42.6502C199.67 43.3502 198.32 44.2702 197.09 45.4602C186.08 56.0502 193.05 76.6102 202.91 85.8902C208.37 91.0202 216.35 93.4102 223.32 90.7902C233.51 86.9602 236.7 75.4202 234.63 65.1402C233.09 57.4802 228.84 50.2502 222.57 45.7502C216.3 41.2602 207.83 39.3602 201.09 42.6502Z" fill="#FDBCA0"/>
<path d="M199.26 79.6902C197.33 81.6002 193.97 82.3802 191.39 81.4702C188.81 80.5602 186.69 78.1302 186.02 75.3102C185.42 72.7802 186.07 69.9002 187.93 68.3502C189.79 66.8002 193.14 66.9002 194.73 68.9102L199.26 79.6902Z" fill="#FDBCA0"/>
<path d="M196.44 72.9702L198.47 109.31C198.74 116.03 204.19 121.37 210.91 121.5C218.67 121.66 224.76 114.88 223.77 107.18L219.67 73.4402L196.44 72.9702Z" fill="#FDBCA0"/>
<path d="M222.43 96.2202L221.92 91.2402C221.92 91.2402 211.92 94.3102 202.91 85.8802C202.91 85.8902 208.1 95.3602 222.43 96.2202Z" fill="#DF8370"/>
<path d="M192.47 67.4802C205.49 66.8102 217.37 58.0702 223.93 46.8102C223.93 46.8102 211.95 35.4402 194.44 42.0902C179.93 47.5902 192.47 67.4802 192.47 67.4802Z" fill="#3F4553"/>
<path d="M193.9 75.8402C192.4 75.9902 191.09 75.1802 190.97 74.0302C190.88 73.1602 191.49 72.3502 192.43 71.9302" stroke="#444359" stroke-width="1.1144" stroke-miterlimit="10" stroke-linecap="round"/>
<path d="M225.18 73.0002C225.48 72.0902 226 71.3702 226.58 70.6902L226.86 71.5702C226.2 71.3202 225.84 70.9402 225.47 70.5702C225.12 70.1802 224.81 69.7902 224.53 69.3702C223.97 68.5402 223.5 67.6602 223.16 66.7302C223.86 67.4402 224.5 68.1702 225.17 68.8702C225.51 69.2102 225.83 69.5602 226.18 69.8602C226.51 70.1502 226.9 70.4502 227.17 70.5202L227.98 70.7102L227.45 71.4002C226.91 72.1102 226.31 72.7702 225.48 73.2502C225.38 73.3102 225.26 73.2702 225.2 73.1802C225.17 73.1102 225.17 73.0502 225.18 73.0002Z" fill="#444359"/>
<path d="M228.11 76.1802C227.71 77.0002 227.03 77.7102 226.15 78.1402C225.28 78.5902 224.2 78.6802 223.24 78.4002C222.26 78.1302 221.5 77.4902 220.85 76.8302C220.56 76.4702 220.27 76.1002 220.03 75.7202C219.82 75.3102 219.6 74.9102 219.44 74.4902C219.81 74.7702 220.13 75.0702 220.45 75.3702L221.44 76.1902C222.14 76.6502 222.8 77.1502 223.56 77.3302C224.29 77.5602 225.07 77.5502 225.84 77.3402C226.6 77.1202 227.36 76.6902 228.11 76.1802Z" fill="#444359"/>
<path d="M217.64 63.1102C218.03 64.2702 218.25 65.4702 218.17 66.7602C218.12 67.3902 217.97 68.0802 217.5 68.6902C217.02 69.3102 216.21 69.5802 215.5 69.5602C214.77 69.5502 214.05 69.2302 213.56 68.7802C213.05 68.3302 212.65 67.8102 212.35 67.2602C211.75 66.1502 211.37 64.9902 211.18 63.7702C211.15 63.5802 211.28 63.4002 211.47 63.3602C211.65 63.3302 211.81 63.4402 211.86 63.6002L211.87 63.6202C212.21 64.7002 212.66 65.7902 213.24 66.7302C213.82 67.6402 214.61 68.4802 215.54 68.4502C216 68.4702 216.43 68.3502 216.69 68.0202C216.98 67.7002 217.12 67.1802 217.2 66.6502C217.35 65.5802 217.25 64.4002 217.07 63.2702V63.2502C217.04 63.0902 217.16 62.9302 217.32 62.9102C217.45 62.8902 217.59 62.9802 217.64 63.1102Z" fill="#444359"/>
<path d="M232.16 60.8402C232.49 61.8202 232.67 62.8202 232.65 63.8902C232.64 64.4202 232.54 65.0002 232.2 65.5502C231.87 66.1302 231.13 66.4902 230.49 66.4602C229.82 66.4502 229.21 66.1002 228.82 65.6902C228.42 65.2702 228.11 64.8202 227.88 64.3402C227.43 63.3802 227.15 62.4002 227.01 61.3702C226.98 61.1802 227.12 61.0002 227.32 60.9702C227.49 60.9502 227.65 61.0502 227.7 61.2102L227.71 61.2302C228 62.1302 228.35 63.0502 228.8 63.8502C229.25 64.6302 229.86 65.3802 230.53 65.3402C230.87 65.3502 231.14 65.2502 231.32 64.9702C231.52 64.6902 231.62 64.2602 231.68 63.8102C231.78 62.9102 231.7 61.9202 231.59 60.9802V60.9602C231.57 60.8002 231.69 60.6502 231.85 60.6202C231.98 60.6202 232.12 60.7102 232.16 60.8402Z" fill="#444359"/>
<path d="M242.96 112.61C242.87 106.51 223.09 101.63 223.09 101.63C221.85 103 219.72 105.31 210.75 105.31C202.17 105.31 198.74 103.09 197.4 101.63H188.91C187.02 101.63 185.29 102.71 184.5 104.43C167.49 141.64 177.05 183.2 180.97 203.63C181.33 205.51 216.83 204.24 232.84 205.51C236.3 205.8 243.3 134.78 242.96 112.61Z" fill="#FEE6C6"/>
<path d="M201.65 165.23C203.41 151.01 205.56 142.48 207.21 145.28C208.67 147.76 207.86 160.2 205.67 172.2C205.68 172.2 200.9 171.32 201.65 165.23Z" fill="#FEBBA0"/>
<path d="M213.27 165.23C211.51 151.01 209.36 142.48 207.71 145.28C206.25 147.76 207.06 160.2 209.25 172.2C209.24 172.2 214.02 171.32 213.27 165.23Z" fill="#FEBBA0"/>
<path d="M271.89 161.7H249.54L253.09 184.4L212.53 164.61C212.39 163.09 212.2 161.21 211.97 159.22C210.44 159.22 208.9 159.22 207.37 159.2C207.38 160.93 207.41 162.1 207.41 162.1C207.41 162.1 206.62 172.54 208.43 176.02C211.87 182.64 247.06 203.96 256.83 206.49C257.44 206.65 258.05 206.77 258.66 206.85C268.09 208.18 274.34 202.89 274.27 193.37L271.89 161.7Z" fill="#FEBBA0"/>
<path d="M202.55 159.12C202.2 161.36 201.89 163.52 201.65 165.23L162.26 183.47L163.92 161.71H141.57L139.2 193.4C139.14 202.92 145.39 208.2 154.81 206.88C155.42 206.79 156.03 206.67 156.64 206.52C166.41 203.99 199.14 186.3 206.13 175.98C208.2 172.93 207.22 162.66 207.22 162.66C207.22 162.66 207.22 161.24 207.18 159.22C205.64 159.19 204.1 159.16 202.55 159.12Z" fill="#FEBBA0"/>
<path d="M169.64 174.12C178.38 148.27 178.31 148.25 189.04 101.64C181.86 102.13 181.12 100.96 175.46 103.9C158.48 112.72 142.49 141.69 137.78 174.12H169.64Z" fill="#FEE6C6"/>
<path d="M247.46 171.57C242.32 153.26 223.09 101.64 223.09 101.64C242.32 100.99 268.56 126.06 274.84 168.22L247.46 171.57Z" fill="#FEE6C6"/>
<path d="M242.97 131.14L238.92 164.42" stroke="#EED2AD" stroke-width="1.5925" stroke-miterlimit="10" stroke-linecap="round"/>
<path d="M173.32 136.6L176.54 172.2" stroke="#EED2AD" stroke-width="1.5925" stroke-miterlimit="10" stroke-linecap="round"/>
<path d="M345.748 104.025C297.749 90.5251 304.748 131.025 314.748 131.025C318.857 131.025 327.373 132.025 337.749 132.025H369.249C409.248 132.025 420.749 129.358 421.249 128.525C424.749 102.025 403.582 104.525 392.249 107.525C394.082 97.6918 392.149 77.8252 369.748 77.0252C347.348 76.2252 344.415 94.6918 345.748 104.025Z" fill="#B4BAFF"/>
<path d="M8.25573 28.7874C-12.7717 22.8992 -9.70541 40.5638 -5.3247 40.5638C-3.5249 40.5638 0.205866 41 4.75144 41H18.5509C36.0738 41 41.1117 39.8369 41.331 39.4734C42.8643 27.9151 33.5916 29.0055 28.6267 30.314C29.4299 26.025 28.5828 17.3599 18.7696 17.011C8.95638 16.662 7.67151 24.7165 8.25573 28.7874Z" fill="#A6ADFB"/>
<circle cx="39.5" cy="6" r="6" fill="#A6ADFB"/>
</svg>
