<svg width="162" height="113" viewBox="0 0 162 113" fill="none" xmlns="http://www.w3.org/2000/svg">
<rect width="162" height="113" fill="#FEDEA5"/>
<mask id="mask0_27_342" style="mask-type:alpha" maskUnits="userSpaceOnUse" x="0" y="0" width="162" height="113">
<rect width="162" height="113" rx="10" fill="#FEE3B4"/>
</mask>
<g mask="url(#mask0_27_342)">
<path d="M132.552 60.3242H28.1851V98.117H132.552V60.3242Z" fill="#FEDEA5"/>
<path d="M104.795 54.6242C104.857 54.4271 103.742 54.8852 103.75 54.6498C103.78 53.8493 103.559 52.9842 103.419 52.201C103.145 50.6718 102.844 49.1465 102.523 47.6263C102.153 45.8739 101.768 44.1254 101.395 42.3741C101.075 40.8655 100.734 39.348 100.342 37.8556C100.019 36.6276 99.6314 35.4346 99.0816 34.2857C98.849 33.8003 98.6707 33.2208 98.2247 32.8756C97.746 32.5054 97.1003 32.594 96.5307 32.5544C94.1384 32.388 93.316 33.9917 93.645 36.5257C93.9312 38.7296 98.0825 56.7801 100.231 57.6196C101.698 58.1935 104.36 56.0075 104.795 54.6242Z" fill="#F29A31"/>
<path d="M119.529 52.164C116.852 52.8888 108.504 56.8067 105.79 57.4858C103.947 57.9473 101.345 58.9081 99.8171 57.2503C98.9308 56.2884 99.0516 54.6924 99.7363 53.6737C100.641 52.3277 100.126 53.2462 101.587 52.901C104.88 52.1223 110.703 52.12 117.235 50.3086C117.913 50.1205 121.626 51.5962 119.529 52.164Z" fill="#F29A31"/>
<path d="M118.193 47.3563C118.11 47.1465 118.054 46.9199 118.063 46.6939C118.08 46.2458 118.237 45.7659 118.627 45.4993C118.824 45.3651 119.142 45.3517 119.208 45.6323C119.262 45.8606 119.113 46.0687 119.048 46.2775C118.948 46.5959 118.938 46.985 119.096 47.2862C119.209 47.4994 119.405 47.6569 119.637 47.7271C119.879 47.7995 120.145 47.7805 120.378 47.6881C120.615 47.5935 120.814 47.4209 120.938 47.1999C121.067 46.97 121.118 46.6961 121.087 46.4356C121.056 46.1818 120.938 45.9379 120.722 45.7882C120.493 45.6295 120.204 45.5989 119.932 45.5928C119.799 45.59 119.665 45.5978 119.533 45.5894C119.436 45.5833 119.311 45.5755 119.234 45.5104C119.137 45.4275 119.138 45.2916 119.163 45.1797C119.216 44.937 119.546 44.8018 119.757 44.7433C120.091 44.6515 120.435 44.7138 120.74 44.8658C120.905 44.9476 121.07 45.0573 121.205 45.1814C121.389 45.3512 121.562 45.5766 121.69 45.791C121.8 45.9763 121.869 46.179 121.89 46.3927C121.93 46.7974 121.859 47.2539 121.647 47.6063C121.525 47.8072 121.348 48.0032 121.16 48.1468C120.995 48.2726 120.784 48.3784 120.588 48.448C120.396 48.5176 120.193 48.5454 119.988 48.5421C119.226 48.532 118.474 48.0667 118.193 47.3563Z" fill="#F29A31"/>
<path d="M118.741 48.0873C118.741 48.0873 119.477 49.9978 114.756 50.9229L117.858 52.4332C119.302 52.2868 120.711 51.9149 122.065 51.4067C122.452 51.2614 122.833 51.1055 123.211 50.9408C124.106 50.5505 125.04 50.1514 125.762 49.4784C125.867 49.3804 126.649 48.6189 126.184 48.5593C125.8 48.5103 125.472 48.7308 125.168 48.9301C124.436 49.4099 123.412 49.8976 122.519 49.5591C123.681 49.2168 124.844 48.6517 125.669 47.7549C126.008 47.3859 126.301 46.9801 126.558 46.5509C126.704 46.307 126.875 46.0148 126.801 45.7203C126.736 45.4643 126.482 45.452 126.27 45.526C125.925 45.6468 125.752 46.0204 125.522 46.2759C125.21 46.6238 124.829 46.9071 124.455 47.1871C124.109 47.446 123.752 47.6937 123.365 47.8919C123.146 48.0038 122.918 48.0995 122.681 48.1691C122.401 48.2515 122.115 48.2682 121.824 48.2687C122.244 48.1229 122.645 47.947 123.041 47.7466C123.935 47.2951 124.839 46.6945 125.481 45.9241C125.714 45.6452 125.908 45.3173 125.994 44.9633C126.04 44.7751 126.135 44.5803 126.004 44.4032C125.863 44.2134 125.591 44.2168 125.393 44.303C125.139 44.4138 124.998 44.661 124.826 44.8608C124.271 45.506 123.415 46.2208 122.673 46.6383C122.296 46.8504 120.575 47.9776 120.029 47.8796L118.741 48.0873Z" fill="#F29A31"/>
<path d="M64.856 54.5545C64.7939 54.3574 65.9094 54.8155 65.9009 54.5801C65.871 53.7796 66.0928 52.9145 66.2328 52.1313C66.5066 50.6021 66.8069 49.0768 67.1281 47.5566C67.4984 45.8047 67.8834 44.0562 68.2559 42.3044C68.5766 40.7958 68.9175 39.2784 69.3098 37.7865C69.6321 36.5585 70.02 35.3655 70.5698 34.2166C70.8023 33.7312 70.9807 33.1517 71.4267 32.8071C71.9053 32.4369 72.5511 32.5254 73.1207 32.4859C75.513 32.3194 76.3354 33.9232 76.0064 36.4572C75.7202 38.661 71.5689 56.7116 69.4205 57.551C67.9534 58.1238 65.2924 55.9383 64.856 54.5545Z" fill="#F29A31"/>
<path d="M50.1226 52.0945C52.7994 52.8193 61.1477 56.7365 63.8617 57.4162C65.7042 57.8777 68.307 58.8385 69.8345 57.1807C70.7208 56.2188 70.6 54.6229 69.9153 53.6042C69.0104 52.2576 69.5258 53.1766 68.0649 52.8315C64.7717 52.0527 58.9484 52.0505 52.4167 50.2391C51.7382 50.051 48.0256 51.5267 50.1226 52.0945Z" fill="#F29A31"/>
<path d="M51.458 47.2853C51.541 47.076 51.5968 46.8489 51.5884 46.6229C51.5709 46.1753 51.4139 45.6949 51.0239 45.4283C50.8274 45.2936 50.5096 45.2808 50.443 45.5613C50.3888 45.7896 50.5379 45.9978 50.6033 46.2065C50.7033 46.5249 50.7134 46.914 50.5548 47.2152C50.4425 47.4284 50.2472 47.586 50.014 47.6561C49.7724 47.7285 49.506 47.7095 49.2734 47.6171C49.0358 47.5225 48.8376 47.3499 48.7134 47.1289C48.5842 46.899 48.5328 46.6251 48.5644 46.3646C48.5955 46.1108 48.7129 45.8675 48.9291 45.7172C49.1583 45.5585 49.4473 45.5279 49.7194 45.5218C49.852 45.519 49.9858 45.5268 50.1184 45.5185C50.2155 45.5123 50.3403 45.5045 50.4171 45.4394C50.5147 45.357 50.513 45.2206 50.4882 45.1087C50.4351 44.866 50.1049 44.7308 49.8938 44.6723C49.5607 44.5805 49.2158 44.6428 48.9116 44.7948C48.7467 44.8772 48.5814 44.9863 48.4464 45.1104C48.2619 45.2802 48.0891 45.5057 47.9615 45.72C47.8509 45.9053 47.7826 46.108 47.7612 46.3223C47.7211 46.727 47.7922 47.1835 48.0044 47.5359C48.1258 47.7368 48.3036 47.9328 48.491 48.0764C48.6559 48.2027 48.8675 48.308 49.0629 48.3775C49.2553 48.4466 49.4586 48.475 49.6629 48.4716C50.4255 48.461 51.1769 47.9957 51.458 47.2853Z" fill="#F29A31"/>
<path d="M50.9101 48.0172C50.9101 48.0172 50.1746 49.9277 54.8954 50.8529L51.7929 52.3632C50.3495 52.2168 48.94 51.8449 47.5858 51.3367C47.1997 51.1914 46.8181 51.0355 46.4405 50.8707C45.5452 50.4805 44.6115 50.0814 43.8895 49.4083C43.7846 49.3104 43.0027 48.5483 43.4667 48.4893C43.8517 48.4403 44.1791 48.6607 44.4834 48.86C45.2155 49.3399 46.2395 49.8275 47.132 49.4891C45.9703 49.1467 44.8068 48.5817 43.9827 47.6849C43.6429 47.3158 43.3499 46.91 43.0936 46.4808C42.9474 46.237 42.7764 45.9447 42.8503 45.6503C42.9152 45.3942 43.1693 45.3819 43.3809 45.456C43.7264 45.5768 43.8991 45.9503 44.1289 46.2058C44.4416 46.5537 44.8221 46.8371 45.1958 47.1171C45.5418 47.3759 45.8991 47.6237 46.2858 47.8218C46.5048 47.9337 46.7334 48.0295 46.97 48.0991C47.2505 48.1814 47.5361 48.1981 47.8269 48.1993C47.4069 48.054 47.0061 47.8775 46.6098 47.6771C45.7162 47.2256 44.8131 46.625 44.1701 45.8546C43.9375 45.5757 43.7428 45.2478 43.657 44.8937C43.6113 44.7056 43.5159 44.5107 43.6474 44.3337C43.7885 44.1439 44.0606 44.1472 44.2587 44.2335C44.5122 44.3443 44.6533 44.5915 44.8255 44.7908C45.3804 45.4359 46.2361 46.1507 46.9784 46.5682C47.3555 46.7803 49.0761 47.9076 49.6225 47.8096L50.9101 48.0172Z" fill="#F29A31"/>
<path d="M76.3212 32.529H94.8262C94.8262 32.529 92.0314 37.5969 84.9155 37.6437C84.9155 37.6431 75.9774 35.5294 76.3212 32.529Z" fill="#F29A31"/>
<path d="M95.6035 54.2388L98.4542 33.4049C98.4542 32.9212 98.0173 32.5298 97.4782 32.5298H94.1878C94.1912 32.5688 90.1912 36.2155 85.2548 36.2155C80.3183 36.2155 76.3184 32.5693 76.3218 32.5298C76.3218 32.5298 73.9588 32.35 71.9171 32.5482L75.7426 54.2394L70.5059 66.3325C87.4213 75.5047 100.004 66.6058 100.004 66.1226L95.6035 54.2388Z" fill="#7E64BF"/>
<path d="M71.9099 63.0892C71.9099 63.0892 85.317 71.2394 98.8805 63.0892C98.8805 63.0892 102.674 69.0678 102.957 75.3643C102.957 75.3643 90.258 78.3725 67.4849 75.3643C67.4854 75.3643 68.672 67.7446 71.9099 63.0892Z" fill="#565D70"/>
<path d="M47.2979 79.6035C55.4852 79.8696 63.6877 78.4818 71.8773 78.3015C74.3345 78.2475 77.0582 77.8689 78.8815 76.0792C80.7731 74.2227 80.2125 68.6382 78.269 66.8335C73.8609 62.7403 69.301 64.6235 64.0095 65.709C59.3542 66.6642 48.0057 70.3639 47.9623 70.6266L47.2979 79.6035Z" fill="#565D70"/>
<path d="M118.635 79.6373C110.448 79.9034 104.247 78.7639 96.0571 78.5835C93.6005 78.5296 90.8763 78.151 89.053 76.3613C87.1614 74.5048 89.7857 69.1931 91.7292 67.3884C96.1373 63.2952 99.5056 64.6935 104.798 65.779C109.453 66.7343 117.571 69.4174 117.217 69.895L118.635 79.6373Z" fill="#565D70"/>
<path d="M88.1018 25.0987H82.7075V33.6981H88.1018V25.0987Z" fill="#F29A31"/>
<path d="M83.8979 28.4654C83.8979 28.4654 86.0639 29.0382 88.1011 27.9984V28.9915C88.1011 28.9909 85.9538 29.5654 83.8979 28.4654Z" fill="#DB7D0D"/>
<path d="M88.0454 27.8137V32.5108H88.1583V27.8137" fill="#333242"/>
<path d="M85.1559 11.1674C85.2321 10.0257 85.1333 8.9385 83.7723 8.59336C82.487 8.26716 80.9228 8.45865 79.905 9.34487C79.6307 9.58368 79.3626 9.88762 79.0323 10.0568C78.298 10.4326 77.3999 10.2133 76.6683 10.638C75.7623 11.1635 75.2796 12.1182 74.4408 12.7188C73.685 13.2605 72.7649 13.4999 71.8679 13.7153C70.9585 13.9341 70.0768 14.4262 69.7217 15.3068C69.3937 16.1207 69.663 17.0414 69.3068 17.8441C68.9879 18.5639 68.2569 18.9691 67.6845 19.4779C66.1988 20.7989 66.8095 22.7361 68.0757 23.9157C69.2125 24.9751 69.0754 26.5348 70.7863 27.1171C72.6672 27.7573 74.6779 26.9379 76.5435 27.784C77.4044 28.1742 78.1348 28.5043 79.1035 28.3223C80.4594 28.0679 81.5883 27.7868 82.9798 27.8798C84.01 27.9482 85.1734 27.8541 85.6103 26.8059C86.5784 24.4846 85.3394 21.7709 85.3625 19.3905C85.3732 18.3156 85.6583 17.2557 85.555 16.1786C85.4539 15.1242 85.1384 14.0999 85.056 13.0412C85.0131 12.4834 85.1124 11.8165 85.1559 11.1674Z" fill="#565D70"/>
<path d="M84.0946 11.2505C83.8384 10.1349 83.7627 9.04552 85.0514 8.49442C86.269 7.97338 87.8439 7.92049 88.991 8.63804C89.2998 8.83176 89.6125 9.09062 89.9653 9.20585C90.7505 9.46303 91.6029 9.10787 92.3926 9.41404C93.3708 9.79258 93.9997 10.661 94.9232 11.1241C95.7558 11.5422 96.7024 11.6363 97.6225 11.7103C98.5556 11.7855 99.5045 12.135 99.9956 12.95C100.449 13.7026 100.33 14.654 100.809 15.3916C101.239 16.0529 102.026 16.3401 102.671 16.7543C104.349 17.8292 104.054 19.8366 102.991 21.1976C102.036 22.4195 102.42 23.9387 100.823 24.7787C99.0676 25.7022 96.9513 25.2034 95.2432 26.3279C94.4552 26.8467 93.7863 27.2854 92.8007 27.2559C91.4211 27.2147 90.2616 27.1117 88.9018 27.4184C87.8953 27.6455 86.7313 27.7324 86.133 26.7649C84.8076 24.6223 85.5996 21.7498 85.1976 19.4029C85.0164 18.343 84.566 17.3405 84.4965 16.2605C84.4288 15.2034 84.5778 14.143 84.4903 13.0847C84.4452 12.5275 84.2408 11.8851 84.0946 11.2505Z" fill="#565D70"/>
<path d="M92.9797 19.972C92.8572 22.2243 92.0517 24.3257 90.8375 25.8983C89.6154 27.472 87.984 28.5174 86.0235 28.6688C84.0631 28.8225 82.2855 28.0426 80.828 26.6776C79.3784 25.3121 78.2488 23.3615 77.769 21.156C77.3073 18.9499 77.7933 16.8518 79.0504 15.1718C80.2974 13.5057 82.3154 12.2571 84.6953 12.0784C87.074 11.8869 89.266 12.8076 90.7624 14.26C92.2713 15.7251 93.0847 17.7219 92.9797 19.972Z" fill="#F29A31"/>
<path d="M79.2927 22.8202C79.2329 22.5418 79.1369 22.2702 79.0308 22.0063C78.9461 21.797 78.8417 21.596 78.7655 21.384C78.6639 21.1023 78.5758 20.8111 78.4093 20.5584C78.3128 20.412 78.201 20.2812 78.0531 20.1832C77.9205 20.0953 77.772 20.0552 77.6179 20.0251C77.3447 19.9717 77.0337 19.9828 76.7819 20.1103C76.7464 20.1281 76.7125 20.1493 76.6803 20.1726C76.6679 20.1788 76.6555 20.1849 76.643 20.1916C76.3207 20.3647 76.1175 20.716 76.1299 21.0778C76.144 21.4819 76.3563 21.8304 76.5143 22.1917C76.6922 22.5986 76.8231 23.0222 77.0258 23.4191C77.2391 23.8378 77.5575 24.3298 78.0492 24.4551C78.319 24.5236 78.6075 24.4801 78.8479 24.3415C79.12 24.1846 79.2707 23.9302 79.3306 23.6312C79.3836 23.3657 79.3492 23.0829 79.2927 22.8202Z" fill="#DB7D0D"/>
<path d="M91.8331 22.6583C91.9398 22.9445 92.1289 23.1721 92.4224 23.2851C92.6821 23.3848 92.9739 23.3837 93.2291 23.274C93.6948 23.0742 93.9307 22.5386 94.0752 22.0922C94.2118 21.6686 94.2739 21.2299 94.3851 20.8007C94.4839 20.4188 94.638 20.0425 94.5878 19.6412C94.5421 19.2821 94.2858 18.9665 93.9398 18.8457C93.9262 18.8412 93.9132 18.8368 93.8997 18.8329C93.8641 18.8145 93.8274 18.7989 93.789 18.7867C93.5204 18.6993 93.2116 18.7366 92.9502 18.8318C92.8023 18.8858 92.6623 18.9481 92.5455 19.0556C92.4151 19.1752 92.3248 19.3216 92.2531 19.4814C92.1289 19.757 92.0883 20.0581 92.033 20.3515C91.9912 20.573 91.9195 20.7874 91.8698 21.0072C91.8072 21.2845 91.7552 21.5673 91.7406 21.8512C91.727 22.1189 91.7383 22.4039 91.8331 22.6583Z" fill="#DB7D0D"/>
<path d="M83.3226 19.5082C83.1877 19.4753 83.0618 19.4169 82.9314 19.3718L82.9359 19.3618C82.9642 19.2933 82.9907 19.2137 82.9828 19.138C82.9755 19.0678 82.9269 18.9793 82.8547 18.9665C82.8372 18.9632 82.8185 18.9649 82.7982 18.9721C82.7023 19.0055 82.6785 19.1658 82.6526 19.2477C82.6097 19.3829 82.5278 19.4998 82.429 19.6017C82.1502 19.8884 81.7031 19.9307 81.3356 19.811C80.9879 19.698 80.5922 19.4737 80.6216 19.0584C80.6346 18.8769 80.3484 18.8719 80.3354 19.0528C80.3184 19.2944 80.4364 19.5371 80.6075 19.7175C80.4946 19.8511 80.3472 19.9474 80.1807 20.0092C80.087 20.0442 80.1243 20.1951 80.2197 20.16C80.4167 20.0871 80.5888 19.978 80.7226 19.8232C80.7689 19.86 80.8169 19.8923 80.866 19.919C80.9309 19.9546 80.9986 19.9869 81.0681 20.0153C81.0229 20.1662 80.9953 20.3226 80.9258 20.4645C80.8818 20.5542 81.0156 20.6354 81.0602 20.5458C81.1341 20.3938 81.1607 20.2274 81.2109 20.0682C81.413 20.1339 81.6247 20.1656 81.8301 20.1539C81.8465 20.3031 81.8674 20.4517 81.8877 20.6004C81.9018 20.6994 82.0542 20.6605 82.0401 20.5619C82.0204 20.4206 82 20.2786 81.9854 20.1367C82.1541 20.1083 82.3156 20.0465 82.4601 19.9474C82.5798 20.052 82.7034 20.1517 82.8473 20.224C82.9376 20.2691 83.0201 20.1372 82.9292 20.0916C82.801 20.027 82.691 19.9413 82.5837 19.8489C82.6187 19.8171 82.6526 19.7821 82.6848 19.7442C82.7468 19.6718 82.8072 19.5939 82.858 19.511C82.9986 19.5566 83.1324 19.6217 83.2775 19.6568C83.3762 19.6807 83.4214 19.5321 83.3226 19.5082Z" fill="#333242"/>
<path d="M79.9074 17.6375C79.9886 17.5785 80.0778 17.529 80.1659 17.4822C80.1761 17.4772 80.1862 17.4716 80.1964 17.4661C80.1738 17.4778 80.2099 17.46 80.2105 17.4588C80.2336 17.4477 80.2562 17.4366 80.2799 17.4254C80.3358 17.3993 80.3917 17.3748 80.4493 17.352C80.5763 17.3008 80.7078 17.2579 80.8405 17.2228C81.5619 17.0336 82.3177 17.1666 82.9313 17.5847C83.0041 17.6342 83.0736 17.6876 83.1424 17.7427C83.2661 17.8429 83.4281 17.6565 83.3039 17.5563C82.6739 17.0469 81.8881 16.8003 81.0781 16.925C80.6293 16.9935 80.184 17.1605 79.8052 17.4087C79.7916 17.4177 79.7787 17.4266 79.7657 17.4355C79.637 17.5295 79.7781 17.7311 79.9074 17.6375Z" fill="#333242"/>
<path d="M87.2332 19.203C87.3614 19.1495 87.476 19.0721 87.5979 19.0076L87.5922 18.9987C87.5527 18.9352 87.5143 18.8612 87.5104 18.7849C87.5064 18.7148 87.5403 18.6196 87.6097 18.5956C87.6261 18.5901 87.6453 18.5884 87.6662 18.5923C87.7661 18.6107 87.8152 18.7654 87.8542 18.8417C87.9185 18.9686 88.0179 19.0716 88.1319 19.1573C88.4525 19.3972 88.9019 19.3694 89.2451 19.1946C89.5702 19.0293 89.9259 18.7465 89.8305 18.3407C89.7893 18.1631 90.071 18.1141 90.1122 18.2906C90.1675 18.5266 90.0896 18.7849 89.949 18.9892C90.0817 19.1039 90.2426 19.1757 90.417 19.2113C90.5152 19.2314 90.5022 19.3861 90.4023 19.3661C90.1963 19.3243 90.0089 19.2436 89.8519 19.1111C89.8124 19.1545 89.7701 19.1941 89.726 19.228C89.6673 19.2737 89.6058 19.3154 89.542 19.3544C89.6103 19.4963 89.6623 19.6466 89.7537 19.7763C89.8113 19.8576 89.6916 19.9589 89.634 19.8771C89.5369 19.7385 89.4839 19.5776 89.4094 19.4284C89.2203 19.5242 89.0159 19.5887 88.811 19.6093C88.8189 19.7591 88.8217 19.9088 88.8251 20.0591C88.8274 20.1588 88.6704 20.1437 88.6682 20.0452C88.6648 19.9021 88.6625 19.7591 88.6546 19.6166C88.4836 19.6143 88.3142 19.5787 88.1556 19.503C88.054 19.6249 87.9479 19.7429 87.8175 19.8359C87.7356 19.8944 87.6329 19.7769 87.7153 19.7179C87.8316 19.6344 87.927 19.5325 88.0179 19.4251C87.9784 19.3989 87.9388 19.37 87.901 19.3377C87.8282 19.2759 87.7559 19.208 87.6927 19.1339C87.5612 19.2007 87.4387 19.2859 87.3021 19.3427C87.2078 19.3817 87.1395 19.2419 87.2332 19.203Z" fill="#333242"/>
<path d="M90.3079 16.8275C90.2187 16.7818 90.1228 16.7468 90.0279 16.7139C90.0172 16.71 90.0059 16.7067 89.9952 16.7028C90.0195 16.7106 89.9811 16.6983 89.9799 16.6983C89.9557 16.6905 89.9308 16.6833 89.9066 16.6761C89.8473 16.6588 89.7874 16.6438 89.7276 16.6299C89.5938 16.5987 89.4578 16.577 89.3206 16.5631C88.5783 16.4874 87.8529 16.7362 87.3133 17.2439C87.2489 17.304 87.1885 17.368 87.1298 17.4326C87.0237 17.5506 86.834 17.3919 86.9407 17.2734C87.4821 16.6727 88.2187 16.3081 89.0389 16.3053C89.4928 16.3036 89.9591 16.3994 90.3728 16.5859C90.3875 16.5926 90.4016 16.5992 90.4157 16.6065C90.558 16.6794 90.4507 16.9004 90.3079 16.8275Z" fill="#333242"/>
<path d="M83.9999 25.0109C84.2828 25.2314 84.6237 25.395 84.9641 25.5058C85.6228 25.7201 86.3313 25.6712 86.9065 25.2681C87.1125 25.1234 87.2903 24.9402 87.4444 24.7432C87.5421 24.6185 87.3536 24.4582 87.2553 24.584C87.0041 24.9063 86.6903 25.1729 86.2957 25.306C85.9937 25.4084 85.668 25.4117 85.3558 25.3544C85.0883 25.3054 84.832 25.2086 84.5904 25.0866C84.4995 25.0404 84.4103 24.9903 84.324 24.9363C84.3155 24.9313 84.307 24.9258 84.2991 24.9208C84.272 24.9035 84.3206 24.9347 84.2952 24.918C84.2816 24.9091 84.2675 24.9002 84.2545 24.8907C84.2331 24.8762 84.2122 24.8612 84.1907 24.8462C84.1806 24.8389 84.1715 24.8322 84.1614 24.8245C84.0355 24.7265 83.8735 24.913 83.9999 25.0109Z" fill="#333242"/>
<path d="M77.0308 22.326C77.2425 23.0764 77.8493 23.8741 78.7282 23.603C78.8428 23.5674 78.779 23.3948 78.665 23.4304C77.8905 23.6692 77.3875 22.9049 77.2063 22.2631C77.1736 22.149 76.9986 22.2124 77.0308 22.326Z" fill="#333242"/>
<path d="M93.6017 20.9871C93.5255 21.6485 93.1501 22.4812 92.3468 22.3654C92.2283 22.3482 92.1927 22.5285 92.3118 22.5458C93.2229 22.6777 93.6948 21.796 93.7846 21.0216C93.7987 20.9042 93.6158 20.8691 93.6017 20.9871Z" fill="#333242"/>
<path d="M84.462 12.3776C84.3785 12.3692 84.5523 13.207 84.5743 13.2599C84.8763 13.9991 85.4973 14.2402 86.2458 14.3677C86.5737 14.4233 86.9237 14.494 87.2302 14.6432C87.5712 14.8091 87.7919 15.0952 88.0798 15.329C88.629 15.776 89.3567 15.9714 90.0583 15.9987C90.0583 15.9987 91.3679 16.0744 92.327 18.5048L91.0473 13.5276C91.0462 13.5276 84.475 12.3792 84.462 12.3776Z" fill="#C15724"/>
<path d="M94.538 17.3821C94.3997 17.1182 94.2383 16.8689 94.0655 16.6256C93.7957 16.2448 93.4965 15.8869 93.203 15.5239C92.6526 14.8442 92.1265 14.1451 91.5265 13.506C90.8689 12.8046 90.1012 12.209 89.2324 11.7814C88.3998 11.3717 87.4842 11.139 86.5562 11.0878C86.318 11.0745 86.0758 11.0645 85.8376 11.0806C85.6282 11.0951 85.4187 11.0995 85.2133 11.1424C85.0897 11.168 84.9649 11.2053 84.8531 11.2643C84.7865 11.232 84.7081 11.2203 84.6352 11.212C84.4766 11.1925 84.3152 11.1875 84.1554 11.1836C83.8489 11.1758 83.5441 11.1891 83.2376 11.2025C82.7363 11.2242 82.2328 11.2448 81.7377 11.33C81.2483 11.414 80.7928 11.5777 80.3553 11.8082C79.5515 12.2318 78.8718 12.8953 78.3734 13.6435C78.1013 14.0521 77.8846 14.4813 77.7451 14.9511C77.6723 15.1966 77.6164 15.446 77.5402 15.6898C77.477 15.8925 77.4098 16.0845 77.3404 16.2843C77.166 16.7881 76.9599 17.3281 76.9983 17.8697C77.0192 18.162 77.1265 18.4704 77.1981 18.7532C77.2631 19.0087 77.2873 19.9845 77.6559 20.0229C78.1188 20.0703 78.1171 19.3427 78.1657 19.0599C78.2599 18.5066 78.4355 17.985 78.6969 17.4862C79.0107 16.8867 79.3359 16.2626 79.9839 15.9581C80.4095 15.7577 80.8904 15.6586 81.2449 15.3336C81.6028 15.0051 81.7812 14.5392 82.0663 14.1556C82.4704 13.6134 83.1941 13.5472 83.7727 13.2794C84.1142 13.1208 84.414 12.8875 84.6132 12.573C84.5382 12.6916 84.8842 13.1781 84.957 13.2666C85.1196 13.4643 85.3239 13.6012 85.5571 13.7064C86.0719 13.9402 86.6646 13.9491 87.1715 14.2007C87.8285 14.5269 88.2417 15.1994 88.949 15.4471C89.6219 15.6826 90.4393 15.6186 90.8971 16.2582C91.522 17.1316 92.2298 18.226 92.2671 19.331C92.2716 19.4624 92.1542 20.0608 92.4568 19.955C92.8513 19.817 93.1336 19.0671 93.3103 18.7471C93.785 17.8853 94.8321 19.0237 94.7655 18.0529C94.7497 17.8169 94.6453 17.5886 94.538 17.3821Z" fill="#6B748B"/>
<path d="M85.3335 11.6119C86.4077 11.6464 86.7312 12.6773 87.6033 13.0692C88.8926 13.6487 90.7752 12.438 91.8302 13.7272C92.9219 15.0521 92.5104 16.323 94.7339 16.2116C96.2004 16.1259 97.6924 16.4438 98.753 17.5003C96.8716 15.8164 93.5276 17.3628 92.2885 15.1529C91.8178 14.3256 91.8488 13.7601 90.8909 13.3481C89.9171 12.929 88.8141 13.5869 87.8076 13.2591C86.7763 12.9507 86.5076 11.7076 85.3335 11.6119Z" fill="#9099B9"/>
<path d="M83.5049 10.2578C81.6748 9.66272 81.0053 12.1154 79.488 12.6164C78.867 12.8046 78.0914 12.4077 77.5715 12.7472C76.4928 13.9146 77.7702 13.8901 75.7082 14.3488C75.4942 14.3966 74.9433 14.4985 74.7378 14.7028C74.564 14.8754 74.4347 15.004 74.3726 15.2606C74.3026 15.5679 74.3382 15.9392 74.1045 16.1908C74.0723 16.2242 73.2871 16.571 73.2764 16.4413C73.2894 16.6072 74.1519 16.1245 74.2055 15.8534C74.3032 15.3992 74.236 14.9333 74.6616 14.6199C75.3181 14.1434 76.4352 14.3276 77.002 13.7737C77.3187 13.4642 77.0336 12.8597 77.488 12.6042C77.891 12.3303 78.4409 12.5518 78.8687 12.5802C80.8619 12.6565 81.3598 9.4484 83.5049 10.2578Z" fill="#9099B9"/>
<path d="M77.5942 15.406C76.568 15.7567 76.4517 16.9135 75.5784 17.4122C74.9411 17.7652 73.8708 17.5291 73.3566 18.0797C72.8 18.6759 73.5632 19.6979 72.8999 20.2385C72.2259 20.8914 70.9874 19.9178 70.3055 20.612C69.7828 21.1442 70.3405 22.1779 69.3516 22.3822C70.3304 22.1189 69.7202 21.0629 70.2643 20.5029C70.9287 19.8198 72.1943 20.7467 72.8 20.1127C73.43 19.5938 72.6115 18.3703 73.3956 17.8442C74.6572 17.0894 75.4638 17.6794 76.3975 16.324C76.6967 15.8898 77.0777 15.5474 77.5942 15.406Z" fill="#9099B9"/>
<path d="M84.9448 10.5448C86.0055 9.58793 86.6868 10.5393 87.8068 10.7558C88.8212 10.9518 89.8942 10.5098 90.859 10.9662C91.4884 11.2641 91.7983 11.9699 92.3904 12.3306C93.4471 12.9664 94.7613 12.5383 95.8727 13.002C96.9746 13.4896 97.7158 14.52 98.8527 14.9492C97.7384 14.5957 97.0254 13.6021 95.9647 13.1751C94.8459 12.707 93.5589 13.1033 92.4655 12.5606C91.7898 12.2193 91.4669 11.4956 90.8206 11.126C89.9174 10.6751 88.8991 11.0397 87.9327 10.895C86.7828 10.7224 86.0924 9.59127 84.9448 10.5448Z" fill="#9099B9"/>
<path d="M95.7725 20.0766C97.287 19.531 96.8997 21.4298 97.8932 21.8479C98.4656 22.0494 99.0538 21.4493 99.6612 21.8301C100.06 22.0806 100.239 22.8966 100.381 23.3091C100.203 22.9445 99.979 22.1468 99.5861 21.9358C98.9957 21.6185 98.3685 22.232 97.808 21.9909C96.8004 21.5768 97.2367 19.7242 95.7725 20.0766Z" fill="#9099B9"/>
<path d="M87.5859 16.6199L87.6004 16.6004C87.5726 16.6061 87.5443 16.6119 87.5153 16.6182L87.4985 16.6394C87.5286 16.6325 87.5576 16.6262 87.5859 16.6199Z" fill="black"/>
<path d="M78.9556 24.2693C80.0326 26.0078 81.5658 27.5403 83.4907 28.3375C81.4845 27.7151 79.87 26.1025 78.9556 24.2693Z" fill="#333242"/>
<path d="M85.1016 36.2125C85.1016 36.2125 85.1405 36.2158 85.2139 36.2186C85.2873 36.2214 85.3951 36.2219 85.5323 36.2197C85.6694 36.2175 85.8354 36.208 86.0256 36.1919C86.2159 36.1757 86.4292 36.1485 86.6612 36.1151C86.8932 36.0794 87.1433 36.0338 87.4052 35.9753C87.6672 35.9152 87.9415 35.8456 88.2226 35.7632C88.5043 35.6836 88.7905 35.5857 89.0801 35.4827C89.2234 35.427 89.3691 35.3741 89.5125 35.3151C89.6553 35.2544 89.8015 35.1982 89.9426 35.1325C90.0854 35.0691 90.2288 35.0084 90.3682 34.9399C90.5088 34.8737 90.6488 34.8074 90.7848 34.7362C90.9214 34.6666 91.0575 34.5976 91.189 34.5241C91.3205 34.4512 91.4526 34.3821 91.5773 34.3064C91.7032 34.2318 91.828 34.1606 91.9482 34.0877C92.0679 34.0142 92.1853 33.9418 92.2999 33.8717C92.4128 33.7999 92.5212 33.7269 92.6267 33.6585C92.6792 33.624 92.7312 33.59 92.782 33.5566C92.8316 33.5215 92.8807 33.4876 92.9287 33.4542C93.0247 33.3874 93.1167 33.3234 93.2042 33.2621C93.2917 33.2014 93.3724 33.1402 93.4497 33.0845C93.6038 32.9727 93.7382 32.8752 93.8449 32.7901C94.0616 32.6242 94.1858 32.529 94.1858 32.529C94.1858 32.529 94.0667 32.6303 93.8584 32.8068C93.7551 32.8964 93.6247 32.9988 93.4751 33.1168C93.4001 33.1758 93.3216 33.2399 93.2364 33.3044C93.15 33.3679 93.0597 33.4347 92.9654 33.5043C92.918 33.5388 92.87 33.5744 92.8209 33.6106C92.7707 33.6451 92.7193 33.6807 92.6674 33.7169C92.5629 33.7887 92.4563 33.8639 92.3445 33.939C92.2316 34.0125 92.1153 34.0877 91.9968 34.1645C91.8788 34.2419 91.7523 34.3126 91.6265 34.3888C91.5011 34.4656 91.3696 34.5363 91.2375 34.6109C91.106 34.6861 90.97 34.7568 90.8328 34.828C90.6967 34.901 90.5562 34.9689 90.4151 35.0368C90.2751 35.1069 90.1311 35.1698 89.9878 35.2344C89.8449 35.2995 89.6976 35.3552 89.5525 35.4153C89.4075 35.4738 89.2601 35.5261 89.1151 35.5807C88.8227 35.682 88.5331 35.7783 88.2486 35.8568C87.9652 35.9397 87.6863 36.0009 87.421 36.0555C87.1557 36.1078 86.9028 36.1479 86.6686 36.178C86.2001 36.237 85.8055 36.2464 85.5306 36.242C85.2574 36.2359 85.1016 36.2125 85.1016 36.2125Z" fill="#333242"/>
<path d="M57.7229 36.6455L57.7878 36.7368L63.5867 32.6987L62.635 39.7155L57.7849 36.5525L57.7229 36.6455L57.6602 36.7384L62.8106 40.0974L63.8791 32.2227L57.5225 36.6488L57.6602 36.7384L57.7229 36.6455Z" fill="#565D70"/>
<path d="M71.8291 3.58176L71.7258 3.53667L70.4766 6.33227L73.3718 6.99582L71.833 3.2973L71.7258 3.53667L71.8291 3.58176L71.7246 3.62407L72.9964 6.6813L70.7932 6.1764L71.9324 3.62685L71.8291 3.58176L71.7246 3.62407L71.8291 3.58176Z" fill="#565D70"/>
<path d="M103.806 30.7163V30.8276H108.736L107.594 33.2363L103.872 30.6255L103.806 30.7163V30.8276V30.7163L103.741 30.807L107.684 33.5725L109.091 30.6049H103.453L103.741 30.807L103.806 30.7163Z" fill="#8E97FD"/>
<path d="M89.5391 77.6499C90.5399 77.6227 91.5295 77.4646 92.5297 77.4212C93.7806 77.3672 94.8803 77.6789 96.0657 78.0251C97.2235 78.3636 96.5156 76.4731 96.165 75.4622C95.9054 74.7135 95.1591 74.3823 94.4292 74.2286C93.11 73.9514 91.7615 73.7365 90.4829 73.3018C89.4951 72.9656 88.7731 72.0749 87.7135 71.9224C86.7449 71.7826 85.5589 71.9875 85.0514 72.9138C84.33 74.2303 75.7712 72.4362 73.1509 72.5453C67.7013 72.7718 70.5842 79.2331 70.5842 79.2331C70.7202 79.0372 88.0646 77.6522 89.2292 77.655C89.3325 77.6544 89.4358 77.6527 89.5391 77.6499Z" fill="#DB7D0D"/>
<path d="M75.2942 72.664C63.48 71.7049 57.7488 69.1937 52.109 69.3769C49.2945 69.4682 46.6498 70.9116 44.8474 73.042C42.3671 75.9728 43.4153 80.8175 46.971 81.9392C49.0478 82.5944 62.0998 80.4941 75.4979 78.7105L75.2942 72.664Z" fill="#9099B9"/>
<path d="M68.7623 86.5699C67.7005 87.1372 68.5382 83.5728 71.4007 82.4216C72.6493 81.9195 73.9076 81.3957 75.067 80.7093C75.9629 80.1788 76.4822 79.1601 77.487 78.7944C78.4054 78.4598 79.6089 78.4181 80.2998 79.2208C81.282 80.3614 89.2785 76.8588 91.8656 76.4302C97.2446 75.5395 95.7809 82.4489 95.7809 82.4489C95.6064 82.2847 78.3473 84.4707 77.2081 84.7118C77.1059 84.7329 69.8495 85.9893 68.7623 86.5699Z" fill="#F29A31"/>
<path d="M89.792 76.9852C101.149 73.6352 106.229 70.0079 111.784 69.0354C114.557 68.55 117.447 69.4223 119.658 71.1385C122.7 73.4994 122.692 78.4532 119.449 80.2763C117.555 81.3417 104.344 81.9513 90.8623 82.9416L89.792 76.9852Z" fill="#9099B9"/>
<path d="M74.6261 32.6791L79.7426 54.2383L77.361 65.394C77.361 65.394 72.9992 64.1059 71.9092 63.0883L75.7415 54.2383L71.916 32.5471C71.916 32.5471 73.8922 32.2521 74.6261 32.6791Z" fill="#8E6ED9"/>
<path d="M84.464 36.1835C84.464 36.1835 80.3557 36.0789 76.3208 32.529H78.292C78.292 32.529 78.9304 34.7128 84.464 36.1835Z" fill="#DB7D0D"/>
<path d="M74.4126 64.3191C74.4126 64.3191 74.7146 64.461 75.2588 64.6709C75.5303 64.7772 75.8633 64.898 76.2477 65.0283C76.3443 65.0606 76.4436 65.0934 76.5458 65.1274C76.6485 65.1597 76.7547 65.1931 76.863 65.2276C77.0798 65.2977 77.3101 65.3634 77.55 65.4347C78.0315 65.57 78.5542 65.7125 79.1136 65.8372C79.3919 65.9045 79.681 65.9607 79.9756 66.0231C80.1229 66.0543 80.2731 66.0788 80.4238 66.1083C80.5751 66.1355 80.7264 66.1678 80.881 66.1912C81.1898 66.2408 81.5026 66.2959 81.8221 66.336C81.9812 66.3571 82.1421 66.3788 82.303 66.4005C82.4644 66.4183 82.627 66.4362 82.7901 66.454C82.872 66.4629 82.9533 66.4718 83.0351 66.4807C83.117 66.489 83.1994 66.4946 83.2818 66.5018C83.4466 66.5152 83.6115 66.5286 83.7774 66.5419C83.9428 66.557 84.1094 66.5609 84.2753 66.5709C84.4418 66.5787 84.6078 66.5892 84.7743 66.5954C84.9408 66.5993 85.1074 66.6037 85.2739 66.6076C85.4404 66.6115 85.6069 66.6182 85.7729 66.6149C85.9389 66.6137 86.1048 66.6126 86.2696 66.6115C86.3521 66.6104 86.435 66.611 86.5169 66.6093C86.5993 66.6059 86.6812 66.6026 86.763 66.5993C87.091 66.5853 87.4167 66.5776 87.7367 66.5486C87.8971 66.5369 88.0568 66.5247 88.2149 66.513L88.3334 66.5041L88.4508 66.4913C88.5293 66.4824 88.6072 66.474 88.6845 66.4651C88.995 66.4306 89.3009 66.4 89.5984 66.3527C89.7474 66.3309 89.8948 66.3098 90.0398 66.2886C90.1127 66.2781 90.1849 66.2675 90.2566 66.2564C90.3277 66.243 90.3989 66.2302 90.4694 66.2168C90.7511 66.1634 91.026 66.1172 91.2896 66.0621C91.5527 66.0025 91.8067 65.9452 92.0505 65.89C92.1115 65.8756 92.1719 65.8633 92.2312 65.8483C92.2905 65.8322 92.3486 65.8166 92.4062 65.801C92.5219 65.7698 92.6348 65.7397 92.7449 65.7102C92.8549 65.6807 92.9622 65.6523 93.0666 65.6245C93.1186 65.6106 93.1705 65.5972 93.2207 65.5828C93.271 65.5672 93.3201 65.5521 93.3686 65.5366C93.5628 65.4759 93.744 65.4197 93.9122 65.3673C94.0799 65.315 94.2351 65.2688 94.3712 65.217C94.921 65.0211 95.2348 64.9086 95.2348 64.9086C95.2348 64.9086 94.9232 65.0283 94.3785 65.2371C94.243 65.2916 94.0889 65.3406 93.9218 65.3963C93.7547 65.4519 93.5741 65.5121 93.381 65.5761C93.3325 65.5922 93.284 65.6084 93.2337 65.6251C93.1835 65.6407 93.1321 65.6546 93.0802 65.6696C92.9763 65.6997 92.8691 65.7297 92.7595 65.7615C92.6495 65.7926 92.5371 65.8244 92.4214 65.8572C92.3638 65.8734 92.3051 65.8901 92.2464 65.9068C92.1872 65.9229 92.1268 65.9357 92.0658 65.9507C91.8219 66.0086 91.5679 66.0693 91.3049 66.1322C91.0407 66.1901 90.7658 66.2396 90.4841 66.2964C90.4135 66.3103 90.3424 66.3243 90.2713 66.3382C90.1996 66.3499 90.1268 66.361 90.054 66.3727C89.9083 66.3955 89.7604 66.4189 89.6114 66.4423C89.3139 66.4946 89.0068 66.5236 88.6952 66.5609C88.6173 66.5698 88.5389 66.5787 88.4604 66.5876L88.3424 66.6009L88.2233 66.6104C88.0647 66.6226 87.9044 66.6354 87.7435 66.6483C87.4218 66.6783 87.0949 66.6878 86.7658 66.7028C86.6834 66.7067 86.601 66.71 86.5186 66.7139C86.4362 66.7162 86.3532 66.7162 86.2702 66.7173C86.1043 66.7189 85.9377 66.7206 85.7712 66.7228C85.6047 66.7267 85.4376 66.7206 85.2705 66.7178C85.1034 66.7145 84.9358 66.7106 84.7687 66.7073C84.6016 66.7006 84.4345 66.6894 84.2674 66.6805C84.1003 66.67 83.9332 66.665 83.7673 66.6494C83.6013 66.6354 83.4354 66.621 83.27 66.6071C83.1875 66.5998 83.1046 66.5937 83.0227 66.5853C82.9403 66.5759 82.8585 66.567 82.7766 66.5575C82.6129 66.5391 82.4498 66.5208 82.2878 66.5024C82.1263 66.4801 81.9654 66.4579 81.8057 66.4356C81.4856 66.3944 81.1718 66.3376 80.8624 66.287C80.7072 66.263 80.5553 66.2296 80.4041 66.2018C80.2528 66.1723 80.1026 66.1456 79.9553 66.1127C79.6606 66.047 79.3716 65.9875 79.0933 65.9168C78.5339 65.7848 78.0118 65.6362 77.5308 65.4954C77.051 65.3501 76.6152 65.2064 76.2325 65.0678C75.8498 64.9303 75.519 64.8028 75.2492 64.6915C74.9788 64.5818 74.7699 64.4872 74.6277 64.4226C74.4871 64.3569 74.4126 64.3191 74.4126 64.3191Z" fill="#333242"/>
<path d="M87.1836 77.9289C87.1836 77.9289 87.4687 77.8315 87.9677 77.6611C88.4661 77.4891 89.1779 77.2431 90.0326 76.9481C90.4593 76.7989 90.9211 76.6369 91.4099 76.466C91.8976 76.2929 92.4124 76.1108 92.9447 75.9221C93.4776 75.7345 94.0263 75.5358 94.584 75.3348C95.1423 75.1344 95.7062 74.9235 96.2718 74.7164C96.8363 74.5065 97.4008 74.2972 97.9568 74.0907C98.5106 73.8786 99.0564 73.6737 99.5825 73.4689C100.108 73.2635 100.617 73.0647 101.099 72.876C101.579 72.6834 102.033 72.5008 102.452 72.3321C102.869 72.159 103.251 72.0004 103.59 71.8595C103.675 71.8245 103.757 71.7905 103.837 71.7582C103.915 71.7243 103.991 71.6914 104.064 71.6597C104.21 71.5968 104.343 71.5383 104.464 71.486C104.949 71.2778 105.225 71.1587 105.225 71.1587C105.225 71.1587 104.951 71.2851 104.473 71.5055C104.354 71.5606 104.221 71.6213 104.076 71.6875C104.004 71.7204 103.929 71.7549 103.851 71.7905C103.773 71.825 103.691 71.8607 103.607 71.8974C103.271 72.0438 102.891 72.2091 102.477 72.3895C102.06 72.5632 101.608 72.7513 101.13 72.9506C100.651 73.1482 100.144 73.3497 99.6187 73.5579C99.0931 73.765 98.5473 73.9727 97.9946 74.187C97.4392 74.3957 96.8753 74.6078 96.3113 74.8199C95.7446 75.0248 95.179 75.2335 94.6201 75.4317C94.0613 75.6304 93.5115 75.8275 92.9781 76.0128C92.711 76.1058 92.4486 76.1971 92.1923 76.2862C91.9349 76.3736 91.6831 76.4593 91.4376 76.5422C90.9465 76.707 90.4825 76.8629 90.054 77.0071C89.196 77.2926 88.478 77.5209 87.9756 77.6812C87.7238 77.7602 87.5262 77.822 87.3913 77.8643C87.2553 77.9066 87.1836 77.9289 87.1836 77.9289Z" fill="#333242"/>
<path d="M44.4038 79.9689C44.4038 79.9689 44.4416 80.0524 44.5359 80.1949C44.6302 80.3374 44.782 80.5389 45.0112 80.7621C45.2392 80.9853 45.548 81.228 45.9409 81.439C46.1379 81.5431 46.353 81.645 46.5901 81.7268C46.826 81.8097 47.0789 81.886 47.3487 81.9383C47.4825 81.9695 47.6225 81.9862 47.7636 82.0101C47.8348 82.0179 47.9064 82.0263 47.9787 82.0341C48.0148 82.038 48.0515 82.0419 48.0877 82.0458C48.1243 82.048 48.161 82.0502 48.1983 82.053C48.2722 82.0575 48.3467 82.0619 48.4224 82.0669C48.498 82.068 48.5737 82.0691 48.6504 82.0708C48.8034 82.0764 48.9592 82.0664 49.1167 82.063C49.1957 82.0614 49.2748 82.0524 49.3544 82.0474C49.434 82.0408 49.5141 82.0374 49.5948 82.0285C49.675 82.019 49.7563 82.0101 49.8376 82.0007C49.9188 81.9918 50.0007 81.9818 50.0825 81.9678C50.1644 81.955 50.2468 81.9422 50.3292 81.9294L50.3913 81.92L50.4246 81.9155L50.4562 81.9116C50.498 81.906 50.5403 81.901 50.5821 81.8955C50.7503 81.8738 50.9208 81.852 51.0918 81.8303C52.4636 81.655 53.9261 81.4685 55.3893 81.2815C56.853 81.0994 58.3167 80.918 59.6884 80.7476C61.0613 80.5812 62.3421 80.4253 63.4406 80.2923C64.5391 80.1626 65.4547 80.0546 66.0953 79.9789C66.7366 79.9048 67.103 79.8631 67.103 79.8631C67.103 79.8631 66.7377 79.9132 66.0982 80.0006C65.4586 80.0863 64.5447 80.2082 63.4485 80.3546C62.3517 80.4977 61.072 80.6647 59.7008 80.8434C58.3291 81.0182 56.8665 81.2052 55.4034 81.3917C53.9397 81.5732 52.476 81.7552 51.1037 81.9255C50.9321 81.9467 50.7622 81.9678 50.5934 81.989C50.5511 81.994 50.5093 81.9996 50.4675 82.0046L50.4359 82.0085L50.4066 82.0124L50.3439 82.0213C50.2604 82.0335 50.1774 82.0458 50.0944 82.0575C50.012 82.0708 49.9296 82.0797 49.8472 82.0881C49.7647 82.0964 49.6835 82.1053 49.6022 82.1137C49.5209 82.122 49.4396 82.1248 49.3594 82.1304C49.2787 82.1348 49.1991 82.1426 49.1195 82.1432C48.9603 82.1449 48.8034 82.1532 48.6488 82.146C48.5714 82.1437 48.4946 82.1421 48.4184 82.1398C48.3422 82.1343 48.2672 82.1287 48.1921 82.1237C48.1548 82.1209 48.1176 82.1181 48.0803 82.1153C48.0436 82.1109 48.0069 82.1064 47.9702 82.102C47.8974 82.0931 47.8246 82.0842 47.7529 82.0758C47.6107 82.0502 47.4695 82.0319 47.3346 81.999C46.7905 81.8843 46.3112 81.6951 45.9195 81.4752C45.526 81.2553 45.2201 81.0059 44.9943 80.7777C44.7668 80.55 44.6206 80.3429 44.5291 80.1988C44.4394 80.0529 44.4038 79.9689 44.4038 79.9689Z" fill="#333242"/>
<path d="M106.359 66.1406C106.359 66.1406 106.756 66.2513 107.451 66.4451C107.799 66.538 108.222 66.651 108.707 66.7802C109.192 66.9099 109.741 67.0485 110.336 67.2188C110.932 67.3842 111.574 67.5706 112.255 67.7666C112.935 67.9637 113.653 68.1746 114.385 68.4224C115.119 68.669 115.869 68.9467 116.613 69.2752C117.357 69.6036 118.094 69.9838 118.785 70.4403C119.472 70.8995 120.112 71.439 120.631 72.068C120.76 72.2244 120.884 72.3875 120.996 72.5534C121.109 72.7215 121.213 72.893 121.308 73.0683C121.497 73.419 121.649 73.7831 121.764 74.1522C121.995 74.8892 122.071 75.6474 121.99 76.351C121.949 76.7039 121.871 77.0374 121.781 77.3564C121.687 77.6742 121.578 77.9771 121.448 78.2565C121.319 78.5365 121.171 78.7959 120.993 79.0175C120.815 79.2351 120.631 79.4311 120.446 79.6003C120.076 79.9415 119.695 80.1726 119.367 80.3212C119.286 80.3602 119.205 80.3891 119.131 80.4208C119.055 80.447 118.984 80.4726 118.917 80.4943C118.85 80.5138 118.787 80.5322 118.73 80.5483C118.673 80.5622 118.62 80.575 118.573 80.5862C118.479 80.6101 118.405 80.6196 118.356 80.6301C118.307 80.6396 118.282 80.6441 118.282 80.6441C118.282 80.6441 118.307 80.6385 118.356 80.6279C118.404 80.6157 118.478 80.6045 118.57 80.5778C118.757 80.5305 119.03 80.4487 119.353 80.2928C119.675 80.1375 120.045 79.9009 120.403 79.5563C120.582 79.3843 120.758 79.1884 120.929 78.969C121.013 78.861 121.089 78.7402 121.162 78.6161C121.232 78.4892 121.301 78.3578 121.361 78.2186C121.485 77.9425 121.588 77.6425 121.676 77.328C121.76 77.0135 121.833 76.6806 121.868 76.3382C121.937 75.6513 121.85 74.9143 121.624 74.195C121.396 73.4753 121.022 72.7761 120.508 72.1665C119.998 71.5542 119.368 71.0281 118.689 70.5783C118.011 70.1258 117.284 69.7456 116.548 69.4166C115.811 69.087 115.065 68.8076 114.337 68.5587C113.607 68.311 112.896 68.0878 112.218 67.8824C111.541 67.6775 110.9 67.4816 110.308 67.3085C110.16 67.2645 110.015 67.2222 109.873 67.1799C109.731 67.1392 109.592 67.0992 109.457 67.0607C109.187 66.9828 108.93 66.9088 108.689 66.8392C108.207 66.6989 107.786 66.5764 107.44 66.4751C106.753 66.2625 106.359 66.1406 106.359 66.1406Z" fill="#333242"/>
<path d="M81.5972 45.5982C81.6977 46.043 82.0223 46.4844 82.4851 46.6058C83.2359 46.8034 83.9624 46.5039 84.6545 46.2462C85.1467 46.0625 85.7129 45.94 86.1029 45.5837C86.401 45.8849 86.5777 46.3163 86.6798 46.7238C86.7628 47.0561 86.8243 47.4196 86.826 47.7776C86.681 47.4118 86.4653 47.0684 86.1289 46.8513C85.9189 46.7155 85.6372 46.6136 85.3826 46.6381C85.1501 46.6603 84.9316 46.8073 84.8932 47.0489C84.8294 47.4508 85.0169 47.8917 85.2398 48.2224C85.386 48.4383 85.5819 48.6271 85.784 48.7918C85.9895 48.9588 86.2079 49.1147 86.4512 49.2216C86.0397 49.9937 85.3341 50.6305 84.5387 50.974C84.4044 51.0319 84.3745 51.2234 84.4422 51.3369C84.5229 51.4727 84.6759 51.49 84.8103 51.4321C84.9124 51.3881 85.0129 51.3408 85.11 51.2874C85.4588 51.0959 85.7919 50.8509 86.0894 50.5654C86.095 50.5715 86.1007 50.5771 86.1069 50.5821C86.6917 51.068 87.522 51.1232 88.253 51.028C88.6758 50.9729 89.2144 50.8788 89.4701 50.5014C89.6072 50.2993 89.5971 50.0438 89.491 49.8311C89.3713 49.5901 89.1122 49.447 88.852 49.3992C88.3992 49.3157 87.9059 49.3596 87.4509 49.4159C87.2714 49.4381 87.0908 49.4626 86.9135 49.4994C87.1495 49.0702 87.3036 48.6031 87.342 48.121C87.3871 47.5571 87.316 46.9559 87.15 46.4149C86.9993 45.9233 86.7594 45.4591 86.3744 45.1167C86.6781 44.8862 86.983 44.6541 87.2432 44.378C87.6169 43.9817 87.9702 43.4567 88.0583 42.9123C88.113 42.5755 88.108 42.143 87.8376 41.8875C87.6231 41.6843 87.3239 41.6325 87.036 41.6592C86.7701 41.6837 86.5037 41.7299 86.2734 41.8719C86.0713 41.996 85.902 42.1664 85.7795 42.3679C85.5367 42.7676 85.4509 43.2446 85.4255 43.7056C85.2319 43.2964 85.0163 42.9001 84.729 42.5399C84.3903 42.1157 83.7643 41.4661 83.149 41.686C82.6443 41.8663 82.4406 42.531 82.5089 43.0114C82.5693 43.435 82.8662 43.8002 83.1896 44.0674C83.3432 44.1949 83.5046 44.309 83.6711 44.4136C83.429 44.3646 83.1823 44.3268 82.9362 44.3173C82.6867 44.3079 82.405 44.314 82.1707 44.4108C81.9184 44.5155 81.7361 44.6758 81.6316 44.928C81.547 45.1356 81.5481 45.3795 81.5972 45.5982ZM86.4885 50.2058L86.4868 50.2047C86.5133 50.1885 86.5398 50.1735 86.5681 50.1601C86.5844 50.1523 86.6002 50.1445 86.6166 50.1373C86.5946 50.1462 86.5991 50.144 86.6296 50.1323C86.7747 50.0777 86.9248 50.0382 87.0767 50.0076C87.5079 49.9208 87.9674 49.8796 88.4263 49.8874C88.5646 49.8896 88.6527 49.8929 88.7673 49.9224C88.9406 49.967 89.1353 50.1362 88.9355 50.2965C88.7797 50.4218 88.4738 50.4618 88.2841 50.4941C88.1926 50.5097 88.0978 50.5225 88.0007 50.532C87.478 50.5837 86.8949 50.537 86.4885 50.2058ZM86.4236 48.2591C86.4331 48.2931 86.4896 48.6454 86.5127 48.656C86.1825 48.5079 85.8845 48.229 85.675 47.9418C85.5915 47.8271 85.1727 47.079 85.5802 47.1858C85.6982 47.217 85.7529 47.2382 85.8574 47.3094C86.0103 47.4135 86.1362 47.5794 86.2356 47.7715C86.3163 47.9262 86.3756 48.0915 86.4236 48.2591ZM85.9629 43.764C85.9866 43.2936 86.0566 42.7603 86.4219 42.4202C86.6234 42.2326 87.3945 41.9431 87.5147 42.3584C87.5576 42.5065 87.5666 42.6612 87.5333 42.8127C87.4594 43.1467 87.294 43.4612 87.0896 43.7362C86.7938 44.1353 86.3914 44.4398 85.9945 44.741C85.9624 44.4164 85.9466 44.0897 85.9629 43.764ZM85.2664 44.6424C85.2212 44.5394 84.7572 44.4036 84.6353 44.3446C84.4428 44.2511 84.2509 44.157 84.0657 44.0507C83.6982 43.8397 83.3178 43.5736 83.127 43.1862C83.0129 42.9557 82.9887 42.6022 83.1213 42.3729C83.3561 41.9682 83.8687 42.3952 84.0719 42.6006C84.2672 42.7976 84.4354 43.0136 84.5816 43.2491C84.856 43.6905 85.0586 44.1676 85.2664 44.6424ZM82.1329 45.1178C82.326 44.7053 83.0186 44.8328 83.3691 44.894C83.7321 44.9569 84.0894 45.0493 84.4512 45.1184C84.8069 45.1857 85.1631 45.2542 85.5091 45.3605C85.4103 45.4151 85.3047 45.4591 85.2031 45.4964C84.7103 45.6773 84.213 45.8715 83.7112 46.0263C83.2884 46.1571 82.7488 46.2696 82.3762 45.9567C82.2339 45.837 82.1165 45.6004 82.0962 45.3833C82.0872 45.287 82.0973 45.1946 82.1329 45.1178Z" fill="#FDC6D4"/>
<path d="M86.4242 90.9466C84.5591 90.1361 82.4197 90.0659 80.4129 89.9969C78.0703 89.9162 75.7141 90.0782 73.3777 89.8505C72.2075 89.7364 71.043 89.5711 69.8881 89.3551C69.5223 89.2866 68.426 90.656 68.4531 91.1804C68.491 91.8907 77.7361 92.822 78.3853 93.3609C79.092 93.9476 80.5038 93.6025 81.3308 93.5457C82.1657 93.4889 83.0005 93.4293 83.8371 93.3909C84.5309 93.3592 85.2833 93.2774 85.9686 93.4438C86.6263 92.5131 86.5664 91.5478 86.4242 90.9466Z" fill="#F59D0E"/>
<path d="M87.1096 91.2857C86.8861 91.1599 86.6569 91.0474 86.4238 90.9461C86.566 91.5479 86.6259 92.5126 85.9683 93.4433C86.0208 93.4561 86.0727 93.4701 86.1241 93.4851C86.7235 93.6688 87.3834 94.1041 87.7943 93.371C88.2025 92.6428 87.8186 91.6848 87.1096 91.2857Z" fill="#FBD89F"/>
<path d="M44.0148 100.181C44.0791 101.333 44.2846 102.439 44.8621 103.563C46.6639 107.071 50.1666 109.558 54.0807 110.239C57.5297 110.839 61.0205 110.48 64.0541 108.669C65.3733 107.883 70.5474 103.798 71.9456 103.138C74.8154 101.784 80.1103 97.4162 76.0048 94.2983C75.1451 93.6458 75.3681 91.9558 74.6738 91.1264C73.5978 89.841 71.3478 89.4892 69.7898 89.1624C64.9222 88.1432 59.9017 87.3365 54.9224 87.9539C53.4852 88.132 52.0689 88.4432 50.7028 88.9242C49.2069 89.4508 47.6552 90.2841 46.4511 91.3173C43.8172 93.5802 43.837 97.017 44.0148 100.181Z" fill="#F59D0E"/>
<path d="M74.5985 91.3613C76.0735 92.0783 77.6885 92.8526 78.7232 94.1596C80.8609 96.8606 78.6599 100.44 76.2394 102.037C75.4999 102.525 74.6645 102.954 73.8358 103.274C72.6002 103.751 71.4074 104.145 70.2451 104.78C68.7509 105.597 67.3245 106.532 65.933 107.507C65.933 107.507 68.0713 99.507 59.9585 95.5124C59.9585 95.5124 65.2009 92.9366 62.4174 88.358C62.4174 88.358 72.9242 90.5474 74.5985 91.3613Z" fill="#F59D0E"/>
<path d="M69.7456 105.059C72.625 103.731 74.1237 104.047 74.6363 104.085C76.8366 104.251 79.2148 104.353 81.2125 103.252C82.3014 102.652 83.1662 101.511 83.462 100.306C84.022 98.025 82.8004 95.8907 81.0279 94.5018C80.061 93.7436 78.9568 93.1196 77.8595 92.5646C76.6136 91.9339 73.5976 90.7476 71.2115 89.8553C71.0631 89.7996 73.2138 90.9703 73.1014 91.0805C72.8756 91.3026 72.8514 91.7168 73.1014 91.935C74.7136 93.3434 72.9084 95.6769 72.0899 96.9857C71.2646 98.3055 70.5358 99.725 69.9736 101.174C69.7506 101.747 69.5723 102.371 69.5915 102.991C69.6202 103.907 68.6956 105.543 69.7456 105.059Z" fill="#F59D0E"/>
<path d="M81.5198 103.67C81.6282 103.698 81.7388 103.722 81.8489 103.742C82.064 103.784 82.2948 103.826 82.5054 103.743C82.7199 103.658 82.6239 103.372 82.5827 103.215C82.5155 102.96 82.4512 102.704 82.3592 102.456C82.3112 102.327 82.257 102.2 82.1977 102.075C82.1537 101.984 82.1108 101.863 82.0143 101.815C81.9353 101.775 81.8523 101.817 81.7823 101.854C81.596 101.953 81.4267 102.078 81.2788 102.227C81.2223 102.284 81.1636 102.341 81.1094 102.4C80.9604 102.563 80.5224 103.003 80.5314 103.077C80.5624 103.324 80.8831 103.447 81.0823 103.528C81.2246 103.585 81.3708 103.632 81.5198 103.67Z" fill="#F59D0E"/>
<path d="M83.5329 96.1046C83.6413 96.133 83.7497 96.1653 83.8558 96.2004C84.0635 96.2688 84.286 96.3429 84.4276 96.5177C84.5721 96.6958 84.3463 96.8984 84.2323 97.0153C84.0466 97.2052 83.8637 97.3967 83.6599 97.5687C83.5538 97.6583 83.4437 97.7429 83.3297 97.8219C83.2467 97.8804 83.1485 97.9644 83.0401 97.96C82.9521 97.9561 82.9002 97.8798 82.8578 97.813C82.7444 97.6371 82.6597 97.4462 82.6049 97.2447C82.584 97.1679 82.5609 97.0894 82.5434 97.012C82.4943 96.7977 82.3317 96.2031 82.3763 96.143C82.5265 95.9426 82.8669 95.9905 83.0814 96.0161C83.2338 96.035 83.3839 96.0662 83.5329 96.1046Z" fill="#F59D0E"/>
<path d="M77.9178 98.9466C77.9731 98.9043 77.985 98.8158 78.0002 98.754C78.0347 98.6165 78.1154 98.4473 77.9556 98.3543C77.8721 98.3059 77.7682 98.317 77.6807 98.3449C77.5977 98.371 77.4736 98.5447 77.2624 98.3732C77.2246 98.3426 77.2788 98.4918 77.2743 98.5291C77.2658 98.5453 77.1851 98.5948 77.2083 98.5931C77.4803 98.5748 77.5238 98.8876 77.6779 98.9533C77.7626 98.9895 77.841 99.0056 77.9178 98.9466ZM77.7389 98.7974L77.7298 98.7924L77.7428 98.7935V98.7991L77.7389 98.7974Z" fill="black"/>
<path d="M76.9903 99.2526C76.9079 99.0795 76.8921 98.9086 76.9909 98.7521C77.0654 98.633 77.2071 98.574 77.3764 98.5567L77.3849 98.5551C77.4843 98.5751 77.5842 98.5918 77.683 98.6119C77.7518 98.6258 77.7693 98.5445 77.7005 98.5306C77.6022 98.5105 77.5034 98.4938 77.4052 98.4744C77.0852 98.3374 77.171 97.9605 77.263 97.7646C77.2861 97.7162 77.1879 97.6727 77.1648 97.7217C77.0643 97.936 76.992 98.299 77.2562 98.4888C77.1027 98.5206 76.9802 98.5851 76.9 98.6987C76.7781 98.8718 76.7973 99.0789 76.8898 99.2743C76.9147 99.3266 77.0152 99.3049 76.9903 99.2526Z" fill="black"/>
<path d="M51.2293 107.84C51.7786 106.388 50.4899 105.474 49.331 104.906C47.4061 103.963 44.3917 97.8821 44.0039 99.9696C43.8137 100.994 42.6576 100.996 41.8402 100.882C40.7423 100.728 39.6489 100.396 38.7102 99.8043C37.9611 99.3317 37.4954 98.7205 37.1189 97.9372C36.9778 97.6439 36.7356 97.1351 36.376 97.056C36.192 97.0154 35.9526 97.1334 35.82 97.2559C35.5948 97.4646 35.4305 97.5142 35.1291 97.5197C34.8062 97.5259 34.6476 97.7274 34.4528 97.9584C34.2761 98.1677 33.934 98.0363 33.7557 98.2517C33.592 98.4505 33.6315 98.7811 33.6162 99.0172C33.4847 101.024 35.4164 102.598 36.9857 103.476C38.1287 104.116 39.2425 104.807 40.4155 105.392C41.2091 105.788 42.0068 106.176 42.8117 106.549C45.6065 107.844 48.4876 108.958 51.4783 109.729C53.3247 110.206 55.24 110.53 57.1553 110.508C57.6752 110.501 50.9968 108.454 51.2293 107.84Z" fill="#F59D0E"/>
<path d="M56.6947 96.8161C57.2439 95.3643 55.9552 94.4502 54.7963 93.8824C52.872 92.9389 57.1943 87.7434 56.3718 87.8136C51.2417 88.2517 45.6426 90.0069 44.1755 88.7805C43.4975 88.2133 42.9607 87.6967 42.5836 86.9129C42.4425 86.6195 42.2009 86.1107 41.8413 86.0316C41.6573 85.9916 41.418 86.1096 41.2859 86.2315C41.0601 86.4403 40.8964 86.4898 40.595 86.4954C40.2721 86.5015 40.1134 86.703 39.9187 86.9335C39.742 87.1433 39.3999 87.0114 39.2216 87.2274C39.0579 87.4256 39.0974 87.7568 39.0816 87.9928C38.95 89.9996 40.8823 91.5739 42.451 92.4518C43.5935 93.0914 44.7078 93.7822 45.8808 94.3678C46.6745 94.7642 47.4721 95.1516 48.2771 95.5246C51.0718 96.82 53.953 97.9339 56.9436 98.7054C58.7906 99.1819 60.7054 99.5059 62.6207 99.4837C63.1406 99.4775 56.4621 97.4307 56.6947 96.8161Z" fill="#F59D0E"/>
<path d="M77.5599 101.217C77.4887 100.837 77.4786 100.441 77.3307 100.079C77.32 100.053 77.2963 100.036 77.2669 100.044C77.2421 100.051 77.2206 100.081 77.2313 100.107C77.3792 100.469 77.3888 100.865 77.4605 101.245C77.4718 101.309 77.5717 101.281 77.5599 101.217Z" fill="black"/>
<path d="M77.0898 101.306C77.1129 100.91 77.0836 100.51 77.1468 100.117C77.1513 100.09 77.1394 100.063 77.1101 100.055C77.0847 100.048 77.0508 100.064 77.0469 100.091C76.9825 100.493 77.0102 100.901 76.9865 101.306C76.982 101.373 77.0858 101.371 77.0898 101.306Z" fill="black"/>
<path d="M76.405 101.133C76.5478 100.753 76.7296 100.383 76.9542 100.043C76.9904 99.9875 76.9012 99.9368 76.8645 99.9914C76.6347 100.34 76.4507 100.718 76.3051 101.108C76.2955 101.134 76.3169 101.163 76.3423 101.17C76.3711 101.177 76.3954 101.159 76.405 101.133Z" fill="black"/>
<path d="M78.8652 96.308C78.614 96.6042 78.4085 96.9449 78.0992 97.1887C78.0772 97.206 78.0478 97.2099 78.0258 97.1887C78.0077 97.1704 78.0038 97.1342 78.0258 97.1164C78.3352 96.8725 78.5406 96.5324 78.7918 96.2356C78.8347 96.185 78.9076 96.2579 78.8652 96.308Z" fill="black"/>
<path d="M78.5001 96.0033C78.3234 96.359 78.0988 96.6936 77.9588 97.066C77.9486 97.0922 77.9249 97.11 77.8956 97.1022C77.8701 97.0955 77.8487 97.066 77.8583 97.0398C78.0022 96.658 78.2297 96.3162 78.4104 95.9516C78.4403 95.8925 78.5295 95.9438 78.5001 96.0033Z" fill="black"/>
<path d="M77.818 95.8225C77.7531 96.2233 77.7271 96.633 77.7531 97.0388C77.7576 97.1045 77.6537 97.1056 77.6498 97.0399C77.6227 96.6257 77.6515 96.2066 77.7181 95.7969C77.7226 95.7696 77.7559 95.754 77.7813 95.7607C77.8101 95.7674 77.8225 95.7952 77.818 95.8225Z" fill="black"/>
<path d="M33.0979 94.4553C33.7161 91.6819 33.7104 88.284 30.9851 86.6992C28.669 85.3532 25.8838 86.6324 24.5042 88.603C23.7675 89.654 23.2522 90.8681 22.8672 92.1339C24.5606 91.3702 28.6086 90.2914 33.0979 94.4553Z" fill="#FBD89F"/>
<path d="M51.7387 104.298C51.5733 104.103 51.3892 103.957 51.1905 103.854C49.2555 102.856 45.9256 105.963 44.4652 106.647C40.3812 108.558 33.9968 109.565 31.4979 104.771C29.8134 101.54 31.9449 98.566 32.8357 95.481C32.9305 95.1525 33.0191 94.809 33.0976 94.4556C28.6082 90.2917 24.5603 91.3705 22.8663 92.1348C22.4361 93.5504 22.1708 95.03 21.9456 96.4201C21.5121 99.0982 21.4991 101.862 22.5513 104.41C26.0229 112.818 37.5898 115.003 45.1855 111.189C46.7683 110.394 53.79 106.724 51.7387 104.298Z" fill="#F59D0E"/>
<path d="M81.3557 106.569C80.6721 106.415 80.0404 106.014 79.4381 105.683C78.7065 105.281 77.9857 104.861 77.2643 104.443C76.5496 104.029 74.0038 102.198 73.1052 102.413C72.281 102.61 63.7228 100.472 63.3678 101.091C63.1059 101.548 62.2964 109.61 62.6379 109.463C71.9688 105.438 74.6699 107.341 75.5048 107.585C76.4616 107.864 77.424 108.129 78.369 108.446C78.9115 108.629 79.4669 108.797 80.0291 108.902C81.0175 108.132 81.2941 107.199 81.3557 106.569Z" fill="#F59D0E"/>
<path d="M81.528 106.602C81.4699 106.593 81.4129 106.581 81.3558 106.568C81.2943 107.199 81.0177 108.132 80.0293 108.901C80.4882 108.988 80.9517 109.031 81.4162 109.005C82.2314 108.959 83.0081 108.271 82.972 107.439C82.9353 106.602 82.1478 106.701 81.528 106.602Z" fill="#FBD89F"/>
<path d="M75.0308 94.3624C73.4581 92.8477 71.2126 92.4224 69.1183 92.1179C66.4133 91.7238 63.6547 91.5574 60.9271 91.8145C58.2458 92.0673 55.1326 92.7175 52.9814 94.4125C50.7691 96.1554 49.3195 99.4966 51.0773 102.05C52.055 103.471 53.8326 103.541 55.3968 103.363C59.2206 102.927 62.8051 101.28 66.6662 101.074C68.6735 100.968 70.6176 101.602 72.6131 101.514C73.2588 101.484 73.2165 100.443 73.2092 100.014C73.1934 99.1414 73.0285 98.2613 73.2899 97.4074C73.4711 96.8157 73.8239 96.2946 74.2348 95.8337C74.5013 95.537 75.5123 94.8267 75.0308 94.3624Z" fill="#FBD89F"/>
<path d="M80.104 97.745C80.1017 97.7422 80.0504 97.6788 80.0047 97.5808C79.9595 97.4823 79.9177 97.3476 79.9454 97.2023C79.9595 97.1299 79.9922 97.0559 80.0481 96.9868C80.1046 96.9184 80.1836 96.8549 80.2903 96.8009L80.3529 96.9195C80.2598 96.9674 80.1966 97.0191 80.1537 97.0709C80.1113 97.1227 80.0888 97.175 80.0786 97.2273C80.0577 97.332 80.0888 97.4411 80.1277 97.5251C80.1469 97.5669 80.1678 97.602 80.1842 97.6259C80.1921 97.6376 80.1988 97.6471 80.2033 97.6532L80.2084 97.6599L80.2095 97.6615L80.1921 97.6754L80.2095 97.6615L80.1921 97.6754L80.2095 97.6615L80.104 97.745Z" fill="black"/>
<path d="M79.7175 101.283C79.7153 101.28 79.6639 101.216 79.6182 101.118C79.573 101.02 79.5312 100.885 79.5595 100.74C79.5736 100.667 79.6058 100.593 79.6622 100.524C79.7187 100.456 79.7977 100.392 79.9044 100.338L79.9671 100.456C79.8739 100.504 79.8107 100.556 79.7678 100.608C79.7254 100.66 79.7029 100.712 79.6927 100.764C79.6718 100.868 79.7023 100.978 79.7418 101.062C79.761 101.103 79.7819 101.138 79.7983 101.162C79.8062 101.175 79.8129 101.183 79.8175 101.19L79.8225 101.196L79.8237 101.198V101.198L79.8062 101.212L79.8237 101.198L79.8062 101.212L79.8237 101.198L79.7175 101.283Z" fill="black"/>
<path d="M90.2262 104.943C90.4757 105.071 90.706 105.234 90.9577 105.358C91.8237 105.786 92.7946 106.06 93.752 106.186C94.4192 106.274 95.1034 106.276 95.761 106.118C96.3825 105.968 96.9509 105.672 97.4962 105.348C98.4304 104.794 99.2089 104.081 99.8608 103.221C100.186 102.792 100.505 102.353 100.793 101.899C101.058 101.484 101.307 101.048 101.651 100.69C101.826 100.508 102.029 100.344 102.247 100.202C102.274 100.528 102.365 100.848 102.53 101.143C102.712 101.471 102.966 101.799 103.304 101.979C103.621 102.148 104 102.141 104.335 102.024C104.671 101.907 105.015 101.688 105.175 101.362C105.352 101.004 105.279 100.566 105.109 100.219C104.724 99.4288 103.805 99.2206 103.011 99.48C102.864 99.5284 102.722 99.5852 102.585 99.6492C102.623 99.4032 102.701 99.1621 102.818 98.9361C103.442 97.7337 104.873 96.9577 106.189 96.7501C106.394 96.7178 106.368 96.4005 106.162 96.4328C105.358 96.5591 104.573 96.8725 103.902 97.3273C103.249 97.7693 102.642 98.3772 102.384 99.1326C102.306 99.3597 102.259 99.5941 102.243 99.829C101.717 100.143 101.272 100.578 100.93 101.091C100.341 101.977 99.7846 102.89 99.0644 103.682C98.3525 104.465 97.4358 105.118 96.4468 105.518C95.9789 105.706 95.4996 105.849 94.9905 105.851C94.5022 105.852 94.015 105.783 93.5397 105.673C93.3376 105.627 90.0422 104.849 90.2262 104.943ZM102.56 100.019C102.624 99.9854 102.688 99.9537 102.753 99.9237C103.119 99.7572 103.536 99.6275 103.942 99.7049C104.386 99.7901 104.749 100.085 104.887 100.517C105.015 100.916 104.956 101.291 104.593 101.54C104.315 101.729 103.885 101.886 103.551 101.743C103.2 101.593 102.933 101.249 102.771 100.915C102.632 100.631 102.565 100.326 102.56 100.019Z" fill="#565D70"/>
<path d="M90.2261 104.943C93.2675 106.705 97.1822 105.702 98.9688 102.703C100.756 99.7036 99.7388 95.8436 96.6974 94.0812C93.6553 92.3193 89.7412 93.3219 87.954 96.3218C86.1668 99.3206 87.184 103.181 90.2261 104.943Z" fill="#565D70"/>
<path d="M94.5505 101.902C94.4839 102.364 94.3964 102.825 94.2931 103.276C94.2519 103.287 94.2106 103.3 94.1694 103.311C94.2637 102.861 94.3433 102.406 94.4037 101.948C94.4522 101.933 94.5014 101.917 94.5505 101.902Z" fill="#9099B9"/>
<path d="M90.6929 93.8345C90.7059 93.8284 90.7188 93.8223 90.7318 93.8162C93.8777 94.7953 94.7962 97.5358 94.6861 100.442C94.6325 100.459 94.5783 100.477 94.5247 100.493C94.6133 97.6321 93.7361 94.9451 90.6929 93.8345Z" fill="#9099B9"/>
<path d="M93.5215 105.812C93.5108 105.812 93.5001 105.812 93.4888 105.812C93.7287 105.088 93.9511 104.305 94.1289 103.495C94.169 103.484 94.2091 103.472 94.2491 103.46C94.0493 104.29 93.797 105.088 93.5215 105.812Z" fill="#9099B9"/>
<path d="M94.6782 100.614C94.659 100.983 94.624 101.354 94.5749 101.725C94.5252 101.741 94.4755 101.756 94.4253 101.772C94.4699 101.403 94.5015 101.034 94.5179 100.667C94.5715 100.649 94.6251 100.632 94.6782 100.614Z" fill="#9099B9"/>
<path d="M94.8249 105.665L94.8057 105.67C95.089 104.847 95.3555 103.939 95.5587 102.995C95.601 102.978 95.6428 102.96 95.6846 102.942C95.4559 103.915 95.1534 104.844 94.8249 105.665Z" fill="#9099B9"/>
<path d="M92.0278 93.3737C92.0448 93.3698 92.0617 93.3664 92.0786 93.3625C95.2358 94.31 96.1864 97.0071 96.1051 99.8895C96.0509 99.914 95.9967 99.9379 95.9425 99.9613C96.0074 97.1128 95.0986 94.4536 92.0278 93.3737Z" fill="#9099B9"/>
<path d="M95.9373 100.122C95.9909 100.097 96.0451 100.073 96.0993 100.048C96.084 100.423 96.0513 100.801 96.0045 101.178C95.9537 101.201 95.9029 101.222 95.8521 101.245C95.895 100.87 95.9237 100.495 95.9373 100.122Z" fill="#9099B9"/>
<path d="M95.831 101.411C95.8818 101.389 95.9321 101.366 95.9829 101.344C95.9179 101.822 95.8305 102.298 95.7255 102.765C95.6826 102.783 95.6397 102.801 95.5962 102.818C95.6916 102.355 95.7718 101.884 95.831 101.411Z" fill="#9099B9"/>
<path d="M93.1187 103.548C93.0775 103.556 93.0363 103.562 92.9951 103.568C93.0837 103.131 93.1577 102.689 93.213 102.245C93.2616 102.236 93.3107 102.227 93.3592 102.217C93.2971 102.664 93.2158 103.111 93.1187 103.548Z" fill="#9099B9"/>
<path d="M89.7891 94.3559C89.8049 94.3453 89.8207 94.3347 89.8359 94.3236C92.7058 95.3724 93.5718 97.9859 93.4843 100.765C93.4301 100.777 93.3764 100.788 93.3223 100.798C93.386 98.0711 92.5557 95.5166 89.7891 94.3559Z" fill="#9099B9"/>
<path d="M92.4914 105.739C92.4739 105.737 92.457 105.734 92.4395 105.731C92.6342 105.101 92.812 104.435 92.9571 103.75C92.9966 103.744 93.0367 103.738 93.0762 103.731C92.9136 104.431 92.7127 105.108 92.4914 105.739Z" fill="#9099B9"/>
<path d="M93.3823 102.035C93.3327 102.045 93.2836 102.055 93.2339 102.064C93.2751 101.7 93.3033 101.336 93.3169 100.975C93.3705 100.965 93.4235 100.954 93.4772 100.943C93.4608 101.306 93.4281 101.671 93.3823 102.035Z" fill="#9099B9"/>
<path d="M94.5503 101.902C94.5012 101.918 94.4521 101.933 94.403 101.948C94.0558 102.056 93.707 102.146 93.3592 102.216C93.3107 102.226 93.2622 102.235 93.213 102.244C90.8795 102.673 88.6046 102.162 87.0788 99.763L87.0776 99.7435C88.6932 102.013 90.9382 102.484 93.2345 102.063C93.2836 102.054 93.3333 102.045 93.383 102.035C93.7295 101.965 94.0784 101.877 94.425 101.771C94.4747 101.756 94.5249 101.74 94.5746 101.724C95.0036 101.587 95.4309 101.425 95.852 101.244C95.9028 101.221 95.9536 101.2 96.0044 101.178C97.3931 100.564 98.7123 99.7485 99.8243 98.9481C99.8249 98.9581 99.826 98.9681 99.8271 98.9776C98.7433 99.8332 97.4055 100.699 95.9835 101.343C95.9333 101.366 95.8825 101.389 95.8317 101.411C95.41 101.597 94.981 101.762 94.5503 101.902Z" fill="#9099B9"/>
<path d="M93.0764 103.731C93.0368 103.738 92.9973 103.744 92.9573 103.75C90.9274 104.061 88.9635 103.627 87.5207 101.826C87.5032 101.782 87.4857 101.736 87.4688 101.692C88.9838 103.468 90.9612 103.882 92.9951 103.567C93.0363 103.561 93.0775 103.555 93.1187 103.547C93.4681 103.488 93.8187 103.409 94.1686 103.311C94.2098 103.299 94.2511 103.287 94.2923 103.276C94.7297 103.148 95.1655 102.994 95.5957 102.818C95.6386 102.8 95.682 102.782 95.7249 102.765C97.1966 102.148 98.601 101.294 99.7791 100.451C99.7768 100.464 99.7751 100.478 99.7729 100.492C98.6219 101.392 97.1932 102.299 95.6843 102.942C95.6425 102.959 95.6007 102.977 95.5584 102.995C95.1266 103.174 94.6885 103.331 94.2488 103.46C94.2087 103.472 94.1686 103.483 94.1286 103.494C93.778 103.593 93.4269 103.673 93.0764 103.731Z" fill="#9099B9"/>
<path d="M94.6773 100.614C94.6242 100.632 94.5706 100.649 94.517 100.666C94.1709 100.776 93.8238 100.87 93.4772 100.943C93.4235 100.954 93.3705 100.965 93.3169 100.976C90.9765 101.429 88.6864 100.946 87.1431 98.5773L87.1459 98.5573C88.7733 100.792 91.025 101.237 93.3225 100.799C93.3761 100.789 93.4303 100.778 93.4845 100.766C93.8311 100.694 94.1783 100.602 94.5243 100.494C94.5779 100.478 94.6315 100.461 94.6857 100.443C95.108 100.305 95.528 100.142 95.9417 99.9623C95.9959 99.9384 96.0507 99.9144 96.1043 99.8905C97.3733 99.3216 98.5813 98.5879 99.6227 97.8548C99.6261 97.8676 99.6295 97.8804 99.6335 97.8932C98.6146 98.6742 97.3936 99.4513 96.0987 100.049C96.045 100.074 95.9908 100.098 95.9366 100.123C95.5223 100.306 95.1012 100.473 94.6773 100.614Z" fill="#9099B9"/>
<path d="M136.143 80.016C133.01 78.0978 128.893 79.0474 126.948 82.1369C125.003 85.2264 125.966 89.2856 129.099 91.2039C132.232 93.1216 136.348 92.172 138.293 89.0825C140.239 85.9935 139.276 81.9343 136.143 80.016Z" fill="#6C67B7"/>
<path d="M131.546 83.0849C131.628 82.6034 131.732 82.1246 131.851 81.6554C131.895 81.6442 131.938 81.6325 131.982 81.6214C131.872 82.0884 131.777 82.5627 131.702 83.0393C131.65 83.0548 131.598 83.0693 131.546 83.0849Z" fill="#8AA3D9"/>
<path d="M135.368 91.6127C135.355 91.6188 135.341 91.6243 135.327 91.631C132.066 90.5288 131.176 87.6419 131.367 84.6075C131.423 84.5908 131.48 84.5741 131.537 84.5585C131.37 87.5456 132.217 90.3757 135.368 91.6127Z" fill="#8AA3D9"/>
<path d="M132.722 79.0255C132.734 79.0261 132.745 79.0261 132.756 79.0266C132.487 79.7765 132.234 80.5898 132.027 81.4314C131.985 81.442 131.943 81.4532 131.901 81.4643C132.131 80.6015 132.416 79.7748 132.722 79.0255Z" fill="#8AA3D9"/>
<path d="M131.379 84.4276C131.408 84.0424 131.455 83.6555 131.516 83.2698C131.568 83.2542 131.621 83.2386 131.673 83.2241C131.617 83.6082 131.574 83.9934 131.548 84.377C131.492 84.3937 131.435 84.4104 131.379 84.4276Z" fill="#8AA3D9"/>
<path d="M131.356 79.1451L131.376 79.1412C131.058 79.9929 130.757 80.9359 130.52 81.9174C130.475 81.9346 130.431 81.9519 130.387 81.9697C130.652 80.9588 130.992 79.9952 131.356 79.1451Z" fill="#8AA3D9"/>
<path d="M133.961 92.0605C133.944 92.0638 133.926 92.0677 133.908 92.0711C130.633 91.0017 129.71 88.1593 129.87 85.1494C129.927 85.1255 129.984 85.1016 130.042 85.0782C129.899 88.053 130.78 90.8547 133.961 92.0605Z" fill="#8AA3D9"/>
<path d="M130.05 84.9117C129.993 84.9357 129.936 84.9602 129.879 84.9846C129.905 84.5927 129.949 84.1986 130.008 83.8056C130.061 83.7833 130.115 83.7622 130.169 83.7399C130.114 84.1307 130.074 84.522 130.05 84.9117Z" fill="#8AA3D9"/>
<path d="M130.194 83.5653C130.14 83.587 130.087 83.6093 130.034 83.6321C130.114 83.1339 130.218 82.639 130.34 82.1536C130.385 82.1358 130.431 82.118 130.476 82.1007C130.364 82.5828 130.269 83.0732 130.194 83.5653Z" fill="#8AA3D9"/>
<path d="M133.085 81.401C133.128 81.3949 133.171 81.3893 133.214 81.3832C133.11 81.8374 133.021 82.2983 132.952 82.7609C132.901 82.7687 132.85 82.7771 132.798 82.7865C132.875 82.3206 132.972 81.8563 133.085 81.401Z" fill="#8AA3D9"/>
<path d="M136.325 91.0902C136.309 91.1013 136.292 91.1119 136.275 91.1224C133.304 89.9546 132.466 87.2013 132.63 84.2993C132.687 84.2888 132.743 84.2782 132.8 84.2693C132.663 87.1178 133.464 89.8082 136.325 91.0902Z" fill="#8AA3D9"/>
<path d="M133.796 79.1271C133.814 79.1299 133.832 79.1338 133.85 79.1372C133.63 79.7901 133.427 80.4821 133.258 81.1941C133.216 81.1991 133.174 81.2052 133.133 81.2108C133.321 80.4837 133.548 79.7812 133.796 79.1271Z" fill="#8AA3D9"/>
<path d="M132.769 82.9751C132.821 82.9662 132.872 82.9573 132.924 82.949C132.872 83.3281 132.833 83.7072 132.81 84.0846C132.753 84.094 132.697 84.1041 132.642 84.1146C132.668 83.7355 132.712 83.3548 132.769 82.9751Z" fill="#8AA3D9"/>
<path d="M131.546 83.0855C131.597 83.0699 131.649 83.0549 131.701 83.0404C132.067 82.9369 132.434 82.8517 132.799 82.7877C132.851 82.7782 132.901 82.7704 132.953 82.7621C135.402 82.3719 137.766 82.9636 139.299 85.5082L139.299 85.5288C137.67 83.1167 135.336 82.5678 132.925 82.9497C132.873 82.958 132.821 82.9664 132.769 82.9759C132.405 83.0399 132.039 83.1234 131.674 83.2253C131.621 83.2397 131.569 83.2553 131.516 83.2709C131.064 83.4034 130.614 83.5615 130.169 83.7402C130.116 83.7619 130.061 83.7836 130.008 83.8059C128.541 84.4126 127.141 85.231 125.959 86.0398C125.958 86.0292 125.958 86.0187 125.957 86.0086C127.111 85.1419 128.531 84.2707 130.034 83.6333C130.088 83.6105 130.141 83.5882 130.195 83.5665C130.64 83.3828 131.092 83.2202 131.546 83.0855Z" fill="#8AA3D9"/>
<path d="M133.133 81.2104C133.175 81.2043 133.216 81.1987 133.258 81.1937C135.386 80.9204 137.428 81.4219 138.889 83.3408C138.906 83.3881 138.923 83.4354 138.94 83.4822C137.402 81.5878 135.347 81.1063 133.214 81.3835C133.171 81.3896 133.127 81.3952 133.084 81.4013C132.718 81.4542 132.349 81.5288 131.981 81.6218C131.937 81.6329 131.894 81.644 131.85 81.6557C131.39 81.7782 130.931 81.9279 130.476 82.1011C130.431 82.1183 130.385 82.1361 130.34 82.154C128.786 82.7607 127.297 83.6185 126.043 84.4697C126.046 84.4558 126.048 84.4413 126.051 84.4274C127.277 83.5156 128.793 82.6037 130.387 81.9697C130.431 81.9519 130.475 81.9346 130.519 81.9174C130.975 81.7409 131.437 81.5878 131.9 81.4642C131.942 81.4531 131.984 81.442 132.026 81.4314C132.396 81.3373 132.766 81.2627 133.133 81.2104Z" fill="#8AA3D9"/>
<path d="M131.379 84.4278C131.435 84.4106 131.491 84.3933 131.547 84.3772C131.912 84.2708 132.277 84.1823 132.641 84.1144C132.697 84.1038 132.753 84.0938 132.81 84.0844C135.267 83.6702 137.647 84.2313 139.199 86.7464L139.196 86.767C137.552 84.3905 135.212 83.8695 132.799 84.2686C132.743 84.2781 132.687 84.2881 132.63 84.2987C132.266 84.3649 131.9 84.4523 131.536 84.5564C131.48 84.5726 131.423 84.5887 131.366 84.6054C130.921 84.7396 130.478 84.8988 130.041 85.0764C129.983 85.0997 129.926 85.1237 129.869 85.1476C128.528 85.7104 127.247 86.4463 126.139 87.1867C126.136 87.1734 126.132 87.16 126.129 87.1461C127.214 86.3556 128.51 85.574 129.878 84.9828C129.935 84.9583 129.992 84.9339 130.049 84.9099C130.488 84.7284 130.932 84.5653 131.379 84.4278Z" fill="#8AA3D9"/>
<path d="M118.747 90.8845C119.339 93.7224 122.153 95.5494 125.031 94.9643C127.909 94.3798 129.762 91.6048 129.169 88.7669C128.576 85.929 125.762 84.102 122.884 84.6871C120.006 85.2716 118.154 88.0466 118.747 90.8845Z" fill="#F59D0E"/>
<path d="M123.067 91.8238C122.74 92.0415 122.402 92.2447 122.061 92.434C122.031 92.4156 122 92.3972 121.97 92.3783C122.304 92.1851 122.634 91.9791 122.955 91.7604C122.992 91.7815 123.029 91.8027 123.067 91.8238Z" fill="#FBD89F"/>
<path d="M125.971 84.9693C125.982 84.9738 125.993 84.9788 126.004 84.9827C127.146 87.447 125.941 89.5368 124.056 91.0921C124.015 91.0693 123.975 91.0454 123.935 91.0225C125.778 89.4795 126.973 87.4443 125.971 84.9693Z" fill="#FBD89F"/>
<path d="M120.041 93.3785C120.036 93.3718 120.03 93.3651 120.023 93.3584C120.611 93.1007 121.226 92.7995 121.833 92.4555C121.863 92.4739 121.892 92.4917 121.922 92.5095C121.29 92.8519 120.649 93.1424 120.041 93.3785Z" fill="#FBD89F"/>
<path d="M123.946 91.1828C123.703 91.3771 123.451 91.563 123.192 91.7394C123.154 91.7183 123.116 91.6966 123.079 91.6749C123.335 91.4962 123.584 91.3091 123.824 91.1143C123.864 91.1377 123.904 91.1605 123.946 91.1828Z" fill="#FBD89F"/>
<path d="M120.861 94.0918L120.847 94.0823C121.521 93.7968 122.239 93.4511 122.944 93.0486C122.979 93.0647 123.013 93.0803 123.048 93.0959C122.31 93.4995 121.558 93.8335 120.861 94.0918Z" fill="#FBD89F"/>
<path d="M127.005 85.5254C127.017 85.5332 127.029 85.5415 127.04 85.5499C128.209 88.0037 127.048 90.0884 125.196 91.6476C125.15 91.6282 125.105 91.6087 125.06 91.5886C126.882 90.0389 128.042 88.0009 127.005 85.5254Z" fill="#FBD89F"/>
<path d="M124.957 91.6758C125.002 91.6953 125.048 91.7147 125.094 91.7337C124.85 91.9341 124.595 92.125 124.332 92.307C124.289 92.2887 124.247 92.2697 124.205 92.2508C124.464 92.0671 124.716 91.8756 124.957 91.6758Z" fill="#FBD89F"/>
<path d="M124.089 92.3315C124.132 92.3499 124.174 92.3683 124.217 92.3861C123.881 92.6132 123.533 92.8253 123.182 93.0224C123.146 93.0062 123.111 92.9901 123.076 92.9734C123.42 92.7735 123.76 92.5592 124.089 92.3315Z" fill="#FBD89F"/>
<path d="M121.236 91.8696C121.208 91.8484 121.181 91.8267 121.154 91.8056C121.477 91.6157 121.797 91.4137 122.106 91.1993C122.139 91.2238 122.171 91.2489 122.205 91.2728C121.889 91.4855 121.564 91.6848 121.236 91.8696Z" fill="#FBD89F"/>
<path d="M125.14 84.7092C125.156 84.7126 125.171 84.7165 125.186 84.7198C126.13 87.055 124.975 89.0418 123.184 90.5392C123.147 90.5125 123.109 90.4863 123.073 90.4591C124.819 88.9755 125.957 87.0439 125.14 84.7092Z" fill="#FBD89F"/>
<path d="M119.512 92.7104C119.504 92.6987 119.496 92.6864 119.488 92.6742C119.992 92.4415 120.509 92.1776 121.019 91.8843C121.045 91.9054 121.071 91.926 121.098 91.9466C120.568 92.2372 120.031 92.4927 119.512 92.7104Z" fill="#FBD89F"/>
<path d="M122.331 91.1865C122.298 91.162 122.264 91.137 122.231 91.1125C122.482 90.9343 122.726 90.749 122.96 90.5552C122.996 90.582 123.033 90.6087 123.07 90.6348C122.833 90.8275 122.585 91.0112 122.331 91.1865Z" fill="#FBD89F"/>
<path d="M123.067 91.8235C123.029 91.8023 122.992 91.7812 122.955 91.76C122.694 91.6081 122.443 91.4461 122.205 91.2729C122.172 91.249 122.139 91.224 122.106 91.1995C120.534 90.0165 119.585 88.3437 120.237 86.0747L120.249 86.063C119.728 88.3148 120.686 89.9464 122.231 91.1121C122.264 91.1371 122.298 91.1616 122.332 91.1861C122.569 91.3592 122.819 91.5218 123.079 91.6743C123.116 91.696 123.154 91.7177 123.192 91.7389C123.517 91.9242 123.857 92.094 124.206 92.2499C124.248 92.2688 124.29 92.2877 124.333 92.3061C125.493 92.8099 126.74 93.1595 127.862 93.3905C127.856 93.3966 127.851 93.4028 127.845 93.4083C126.704 93.2252 125.415 92.8928 124.217 92.3852C124.175 92.3673 124.132 92.349 124.09 92.3306C123.738 92.1775 123.394 92.0089 123.067 91.8235Z" fill="#FBD89F"/>
<path d="M121.096 91.9461C121.07 91.9255 121.044 91.9049 121.018 91.8838C119.69 90.82 118.866 89.3804 119.19 87.495C119.208 87.4594 119.226 87.4237 119.245 87.3887C118.977 89.3042 119.821 90.7404 121.153 91.8047C121.181 91.8259 121.208 91.8476 121.235 91.8688C121.467 92.0486 121.712 92.2183 121.969 92.377C122 92.3959 122.03 92.4143 122.061 92.4327C122.385 92.6281 122.724 92.8079 123.075 92.9721C123.11 92.9888 123.146 93.0049 123.181 93.0211C124.389 93.5744 125.708 93.9535 126.894 94.2012C126.885 94.2073 126.875 94.214 126.866 94.2201C125.659 94.0208 124.293 93.6562 123.047 93.0951C123.013 93.0795 122.978 93.0639 122.944 93.0478C122.591 92.8847 122.247 92.7054 121.921 92.5089C121.892 92.4911 121.862 92.4733 121.833 92.4549C121.575 92.2963 121.328 92.1265 121.096 91.9461Z" fill="#FBD89F"/>
<path d="M123.945 91.1826C123.904 91.1604 123.864 91.1376 123.823 91.1142C123.561 90.9644 123.309 90.8052 123.069 90.6343C123.033 90.6082 122.996 90.5814 122.959 90.5547C121.369 89.3802 120.393 87.7151 121.017 85.4517L121.032 85.4423C120.539 87.6823 121.516 89.3028 123.073 90.4595C123.109 90.4868 123.147 90.513 123.184 90.5397C123.422 90.7106 123.673 90.8715 123.935 91.0218C123.975 91.0451 124.016 91.0685 124.057 91.0914C124.379 91.2717 124.715 91.437 125.06 91.589C125.105 91.6091 125.15 91.6285 125.196 91.648C126.26 92.1039 127.395 92.4313 128.436 92.6573C128.43 92.6667 128.425 92.6756 128.418 92.6851C127.361 92.4997 126.192 92.1891 125.094 91.7326C125.048 91.7137 125.003 91.6942 124.958 91.6747C124.61 91.5261 124.271 91.3625 123.945 91.1826Z" fill="#FBD89F"/>
<path d="M117.714 94.8151C116.784 93.3839 115.33 92.1993 113.652 91.7473C112.811 91.5207 111.931 91.4996 111.086 91.715C110.692 91.8152 110.309 91.9572 109.917 92.0635C109.52 92.1715 109.095 92.2505 108.685 92.1709C108.668 92.1676 108.651 92.1637 108.634 92.1598C108.821 91.9872 108.985 91.7946 109.103 91.5775C109.208 91.3832 109.252 91.1561 109.172 90.9451C109.08 90.7013 108.824 90.5048 108.574 90.4436C107.987 90.3 107.641 90.949 107.704 91.4411C107.744 91.7506 107.937 92.0173 108.206 92.1754C108.231 92.1899 108.256 92.2032 108.281 92.216C108.239 92.2489 108.197 92.2812 108.155 92.3129C107.696 92.6558 107.181 92.9542 106.643 93.159C106.1 93.3661 105.445 93.3277 104.878 93.1674C104.221 92.9815 103.588 92.6035 103.223 92.0201C103.104 91.8297 103.026 91.6193 102.988 91.4016C103.239 91.356 103.483 91.2797 103.712 91.1656C103.96 91.042 104.184 90.8633 104.37 90.6601C104.545 90.4692 104.705 90.2153 104.674 89.9476C104.639 89.652 104.325 89.421 104.04 89.3931C103.694 89.3592 103.396 89.6125 103.197 89.8624C102.885 90.2554 102.745 90.762 102.788 91.2552C102.225 91.3265 101.637 91.2391 101.103 91.0821C100.476 90.8973 99.8794 90.5994 99.3595 90.207C98.8938 89.8552 98.4722 89.4076 98.2514 88.8649C98.208 88.7585 98.0403 88.8237 98.0838 88.93C98.3514 89.588 98.8904 90.1118 99.473 90.5082C100.122 90.949 100.873 91.2569 101.65 91.3916C102.029 91.4573 102.425 91.4773 102.81 91.4294C102.834 91.5647 102.871 91.6972 102.923 91.8252C103.181 92.461 103.765 92.9158 104.386 93.1824C105.014 93.4518 105.747 93.5582 106.42 93.4123C106.625 93.3678 106.82 93.2843 107.01 93.1969C107.282 93.0716 107.545 92.9269 107.799 92.7699C108.025 92.6302 108.261 92.4749 108.477 92.2973C108.758 92.3892 109.06 92.3958 109.357 92.3596C109.781 92.3079 110.19 92.1732 110.595 92.0451C110.992 91.9193 111.389 91.8097 111.806 91.7646C113.568 91.5753 115.275 92.4376 116.505 93.6266C116.908 94.0163 117.265 94.4533 117.569 94.9209C117.633 95.0166 117.777 94.9109 117.714 94.8151ZM103.252 90.0934C103.418 89.8407 103.696 89.5379 104.033 89.5707C104.303 89.5969 104.54 89.8424 104.487 90.1118C104.438 90.3684 104.211 90.5889 104.017 90.7503C103.803 90.9279 103.564 91.0537 103.299 91.1411C103.19 91.1773 103.078 91.2057 102.965 91.2274C102.935 90.8327 103.032 90.4286 103.252 90.0934ZM107.927 91.5914C107.836 91.3549 107.865 91.0659 108.002 90.8522C108.132 90.6512 108.355 90.5493 108.589 90.6323C108.802 90.7074 109.006 90.8967 109.032 91.1266C109.056 91.3415 108.926 91.5497 108.799 91.7122C108.691 91.8514 108.565 91.9761 108.431 92.0919C108.206 91.9934 108.017 91.8247 107.927 91.5914Z" fill="#8AA3D9"/>
<path d="M30.45 66.8323C26.5183 67.2248 23.6541 70.6862 24.0526 74.5634C24.4512 78.4405 27.9606 81.2651 31.8922 80.8721C35.8239 80.4791 38.6881 77.0177 38.2896 73.1405C37.8916 69.2639 34.3816 66.4393 30.45 66.8323Z" fill="#8E97FD"/>
<path d="M28.5828 72.4037C28.3322 71.9423 28.103 71.4691 27.8936 70.9937C27.9229 70.9558 27.9523 70.9185 27.9816 70.8807C28.1978 71.3483 28.4321 71.812 28.6844 72.2651C28.65 72.3113 28.6161 72.357 28.5828 72.4037Z" fill="#A9B0FF"/>
<path d="M37.4834 77.1753C37.4755 77.1892 37.4676 77.2031 37.4602 77.2176C33.9604 78.386 31.2904 76.5089 29.4395 73.8102C29.4761 73.759 29.514 73.7089 29.5512 73.6588C31.392 76.3024 33.9887 78.1583 37.4834 77.1753Z" fill="#A9B0FF"/>
<path d="M26.8887 68.1985C26.8988 68.1918 26.9084 68.1846 26.9186 68.1774C27.1873 68.9879 27.5119 69.8413 27.8952 70.6891C27.8664 70.7253 27.8381 70.762 27.8099 70.7982C27.4323 69.9175 27.1258 69.0319 26.8887 68.1985Z" fill="#A9B0FF"/>
<path d="M29.3322 73.65C29.1013 73.3037 28.8845 72.9458 28.6802 72.5789C28.7146 72.5322 28.7485 72.4849 28.7835 72.4387C28.9906 72.8011 29.2097 73.1557 29.4417 73.498C29.405 73.5487 29.3683 73.5993 29.3322 73.65Z" fill="#A9B0FF"/>
<path d="M25.8091 69.1809L25.8238 69.1642C26.119 70.0922 26.4887 71.0869 26.9381 72.0728C26.9115 72.1162 26.8856 72.1591 26.8602 72.2025C26.4142 71.1743 26.0637 70.1372 25.8091 69.1809Z" fill="#A9B0FF"/>
<path d="M36.5863 78.4636C36.5739 78.4781 36.5609 78.4926 36.5479 78.507C33.0594 79.7117 30.3894 77.8947 28.5288 75.2366C28.5615 75.1793 28.5943 75.1225 28.6276 75.0652C30.4802 77.6821 33.0859 79.4923 36.5863 78.4636Z" fill="#A9B0FF"/>
<path d="M28.5249 74.918C28.4927 74.9753 28.46 75.0326 28.4278 75.0905C28.1896 74.7409 27.9655 74.3785 27.7544 74.0067C27.7854 73.9532 27.8165 73.9004 27.8481 73.8469C28.0609 74.2143 28.2867 74.5723 28.5249 74.918Z" fill="#A9B0FF"/>
<path d="M27.7547 73.6819C27.7236 73.7348 27.6932 73.7882 27.6632 73.8422C27.4013 73.3679 27.1608 72.8803 26.9424 72.3899C26.9695 72.3459 26.996 72.3008 27.0231 72.2568C27.2478 72.7384 27.4911 73.2165 27.7547 73.6819Z" fill="#A9B0FF"/>
<path d="M28.7725 69.9812C28.8052 69.9478 28.8379 69.9155 28.8707 69.8827C29.0841 70.3353 29.3144 70.7834 29.5622 71.2209C29.5244 71.261 29.486 71.3005 29.4487 71.3417C29.2043 70.8969 28.9785 70.4405 28.7725 69.9812Z" fill="#A9B0FF"/>
<path d="M37.95 76.1141C37.9432 76.1341 37.9359 76.1536 37.9291 76.1737C34.6319 77.0994 32.0951 75.3025 30.3091 72.7334C30.3503 72.6878 30.3915 72.6427 30.4333 72.5981C32.2069 75.1048 34.6709 76.8717 37.95 76.1141Z" fill="#A9B0FF"/>
<path d="M27.8677 67.5916C27.8852 67.5821 27.9027 67.5738 27.9202 67.5649C28.1669 68.2613 28.453 68.9799 28.7816 69.6925C28.7494 69.7236 28.7178 69.7554 28.6867 69.7871C28.3639 69.0501 28.0912 68.3069 27.8677 67.5916Z" fill="#A9B0FF"/>
<path d="M29.5488 71.5204C29.5866 71.4792 29.625 71.4385 29.6634 71.3979C29.87 71.7536 30.089 72.101 30.3194 72.4355C30.2781 72.48 30.2369 72.5246 30.1963 72.5697C29.9677 72.2312 29.752 71.88 29.5488 71.5204Z" fill="#A9B0FF"/>
<path d="M28.5828 72.4029C28.6161 72.3562 28.65 72.3105 28.6845 72.2649C28.9261 71.9409 29.1812 71.6319 29.4482 71.3419C29.4855 71.3013 29.5233 71.2612 29.5617 71.2211C31.3821 69.3095 33.7812 68.2869 36.7702 69.4587L36.7843 69.4754C33.801 68.4789 31.4561 69.5188 29.6633 71.3976C29.6249 71.4382 29.5865 71.4788 29.5487 71.52C29.2817 71.8095 29.0265 72.1168 28.7844 72.4385C28.7494 72.4847 28.7149 72.5321 28.6811 72.5788C28.3853 72.983 28.1081 73.4077 27.849 73.8458C27.818 73.8993 27.7864 73.9521 27.7553 74.0056C26.9125 75.4668 26.2673 77.0645 25.7999 78.5135C25.7926 78.5046 25.7852 78.4968 25.7773 78.4885C26.1826 77.0083 26.8104 75.3527 27.6633 73.8414C27.6938 73.7879 27.7243 73.7345 27.7547 73.681C28.0105 73.2396 28.2865 72.8098 28.5828 72.4029Z" fill="#A9B0FF"/>
<path d="M28.687 69.7874C28.718 69.7556 28.7496 69.7239 28.7818 69.6927C30.4075 68.0873 32.473 67.1961 34.9861 67.883C35.0323 67.9119 35.0775 67.9409 35.1232 67.9704C32.5616 67.3542 30.4978 68.271 28.8704 69.8825C28.8377 69.9154 28.8049 69.9477 28.7722 69.9811C28.4962 70.2622 28.2325 70.5634 27.9819 70.8801C27.952 70.9174 27.9232 70.9553 27.8938 70.9931C27.5845 71.3934 27.2938 71.8175 27.0228 72.2573C26.9958 72.3013 26.9692 72.3458 26.9421 72.3904C26.026 73.9078 25.33 75.5968 24.8315 77.1271C24.8242 77.1137 24.8168 77.1003 24.8101 77.0864C25.2464 75.5216 25.9283 73.7698 26.8603 72.2033C26.8862 72.1599 26.9122 72.1165 26.9382 72.0736C27.208 71.6294 27.4987 71.2019 27.8092 70.7983C27.8374 70.7621 27.8662 70.7253 27.8944 70.6892C28.1462 70.3707 28.4098 70.069 28.687 69.7874Z" fill="#A9B0FF"/>
<path d="M29.3327 73.6506C29.3688 73.5994 29.4055 73.5487 29.4422 73.4986C29.681 73.1735 29.9322 72.8629 30.1964 72.5701C30.237 72.525 30.2777 72.4805 30.3194 72.4359C32.1309 70.4987 34.5232 69.4399 37.5087 70.5739L37.5195 70.5934C34.5486 69.6359 32.2155 70.7036 30.4329 72.5991C30.3911 72.6436 30.3499 72.6887 30.3087 72.7343C30.044 73.0255 29.7916 73.335 29.5517 73.6584C29.5145 73.7085 29.4772 73.7586 29.44 73.8098C29.1515 74.2106 28.8811 74.6315 28.6277 75.0646C28.5944 75.1219 28.5616 75.1787 28.5289 75.236C27.764 76.5782 27.1645 78.03 26.7157 79.3727C26.7039 79.3632 26.6926 79.3543 26.6802 79.3448C27.0764 77.9737 27.6584 76.4746 28.4278 75.0896C28.46 75.0317 28.4922 74.9744 28.5249 74.917C28.7756 74.4801 29.0442 74.0553 29.3327 73.6506Z" fill="#A9B0FF"/>
<path d="M45.0674 64.0155C45.0606 63.8424 44.7874 63.8418 44.7942 64.0155C44.8196 64.6412 44.6119 65.2814 44.3607 65.8486C44.0677 66.5099 43.6669 67.1468 43.1284 67.6411C42.9167 67.8354 42.6706 68.0068 42.4042 68.1176C42.4228 68.0898 42.4403 68.0608 42.4567 68.0319C42.6012 67.7753 42.6362 67.4875 42.595 67.2002C42.508 66.5934 41.9701 66.2143 41.3729 66.201C40.871 66.1899 40.2924 66.4248 40.0943 66.9085C39.8414 67.5259 40.5289 68.1048 41.0201 68.3403C41.2018 68.4271 41.3813 68.4806 41.5574 68.5045C41.4999 68.5374 41.4417 68.568 41.3836 68.5964C40.8101 68.8769 40.1615 69.0144 39.5315 69.104C39.1787 69.1541 38.8157 69.187 38.4573 69.1875C38.2812 69.1875 38.2812 69.457 38.4573 69.457C38.9913 69.4564 39.5298 69.3891 40.0537 69.2889C40.6808 69.1692 41.3311 68.9866 41.8668 68.6325C41.93 68.5908 41.9915 68.5463 42.0502 68.4984C43.0127 68.3453 43.8239 67.3956 44.2918 66.5823C44.5374 66.1553 44.7361 65.6989 44.8789 65.2285C44.9985 64.8394 45.0838 64.4241 45.0674 64.0155ZM41.4784 68.2167C41.1397 68.1416 40.8281 67.9478 40.5882 67.704C40.4923 67.6066 40.4014 67.4813 40.3579 67.365C40.3404 67.3188 40.3246 67.2425 40.3223 67.2214C40.3201 67.1952 40.3201 67.1685 40.3207 67.1423C40.3223 67.0983 40.3201 67.1195 40.3291 67.0766C40.3483 66.9831 40.398 66.8963 40.4522 66.8328C40.5318 66.7399 40.6023 66.6903 40.7068 66.6307C40.9156 66.5138 41.1612 66.4632 41.405 66.471C41.641 66.4788 41.8837 66.5612 42.0587 66.7237C42.2602 66.9107 42.3472 67.1852 42.3415 67.4568C42.3347 67.7758 42.1665 68.0352 41.9323 68.2412C41.7838 68.2573 41.632 68.2507 41.4784 68.2167Z" fill="#F59D0E"/>
<path d="M109.919 9.8562H109.835C109.835 10.3182 109.645 10.7357 109.338 11.0386C109.031 11.3414 108.607 11.5284 108.139 11.5284C107.67 11.5284 107.247 11.3414 106.94 11.0386C106.633 10.7357 106.443 10.3182 106.443 9.8562C106.443 9.39416 106.633 8.97666 106.94 8.67383C107.247 8.371 107.67 8.18396 108.139 8.18396C108.607 8.18396 109.031 8.371 109.338 8.67383C109.645 8.97666 109.835 9.39416 109.835 9.8562H109.919H110.004C110.004 8.84027 109.169 8.01752 108.139 8.01752C107.109 8.01752 106.275 8.84083 106.275 9.8562C106.275 10.8716 107.11 11.6949 108.139 11.6949C109.17 11.6949 110.004 10.8716 110.004 9.8562H109.919Z" fill="#F59D0E"/>
<path d="M125.401 55.0774H125.316C125.316 55.5311 125.13 55.9413 124.829 56.2386C124.527 56.5358 124.111 56.7195 123.651 56.7195C123.191 56.7195 122.775 56.5358 122.473 56.2386C122.172 55.9413 121.986 55.5311 121.986 55.0774C121.986 54.6237 122.172 54.2134 122.473 53.9162C122.775 53.6189 123.191 53.4352 123.651 53.4352C124.111 53.4352 124.527 53.6189 124.829 53.9162C125.13 54.2134 125.316 54.6237 125.316 55.0774H125.401H125.486C125.486 54.0781 124.664 53.2682 123.651 53.2682C122.638 53.2682 121.816 54.0781 121.816 55.0774C121.816 56.0766 122.638 56.8865 123.651 56.8865C124.664 56.8865 125.486 56.0766 125.486 55.0774H125.401Z" fill="#F59D0E"/>
<path d="M87.5983 3.29347H87.5137C87.5137 3.58962 87.3923 3.85738 87.1953 4.05165C86.9983 4.24593 86.7273 4.36562 86.4265 4.36562C86.1262 4.36562 85.8546 4.24593 85.6576 4.05165C85.4606 3.85738 85.3393 3.58962 85.3393 3.29347C85.3393 2.99732 85.4606 2.72956 85.6576 2.53528C85.8546 2.34101 86.1256 2.22132 86.4265 2.22132C86.7268 2.22132 86.9983 2.34101 87.1953 2.53528C87.3923 2.72956 87.5137 2.99732 87.5137 3.29347H87.5983H87.683C87.683 2.60932 87.1202 2.05432 86.4265 2.05432C85.7327 2.05432 85.1699 2.60932 85.1699 3.29347C85.1699 3.97762 85.7327 4.53262 86.4265 4.53262C87.1202 4.53262 87.683 3.97762 87.683 3.29347H87.5983V3.29347Z" fill="#F59D0E"/>
<path d="M127.804 67.6448H127.719C127.719 68.2432 127.473 68.7843 127.075 69.1767C126.678 69.5692 126.129 69.8113 125.522 69.8113C124.915 69.8113 124.367 69.5692 123.969 69.1767C123.571 68.7843 123.325 68.2432 123.325 67.6448C123.325 67.0464 123.571 66.5047 123.969 66.1128C124.367 65.7204 124.915 65.4782 125.522 65.4782C126.129 65.4782 126.678 65.7204 127.075 66.1128C127.473 66.5053 127.719 67.0464 127.719 67.6448H127.804H127.888C127.888 66.3561 126.829 65.3112 125.522 65.3112C124.215 65.3112 123.156 66.3561 123.156 67.6448C123.156 68.9335 124.215 69.9783 125.522 69.9783C126.829 69.9783 127.888 68.9335 127.888 67.6448H127.804Z" fill="#F59D0E"/>
<path d="M112.985 109.074H112.9C112.9 109.743 112.625 110.348 112.181 110.786C111.736 111.225 111.122 111.495 110.444 111.495C109.766 111.495 109.152 111.224 108.708 110.786C108.263 110.348 107.989 109.742 107.989 109.074C107.989 108.405 108.264 107.8 108.708 107.362C109.153 106.923 109.766 106.652 110.444 106.652C111.123 106.652 111.737 106.923 112.181 107.362C112.626 107.8 112.9 108.405 112.9 109.074H112.985H113.069C113.069 107.644 111.894 106.485 110.444 106.485C108.994 106.485 107.818 107.644 107.818 109.074C107.818 110.504 108.994 111.663 110.444 111.663C111.894 111.663 113.069 110.504 113.069 109.074H112.985Z" fill="#F59D0E"/>
<path d="M84.8688 23.0424C84.8011 22.9845 84.7441 22.9361 84.7085 22.896C85.0207 22.4128 85.2222 21.8767 85.3447 21.3395C85.4745 20.7717 85.5186 20.2034 85.5186 19.6907C85.5186 18.5779 85.1483 17.788 85.1483 17.788L85.1488 17.7896C85.1595 17.8336 85.3492 18.6469 85.3492 19.6907C85.3492 20.1867 85.3063 20.7344 85.1827 21.2766C85.0585 21.8188 84.8542 22.3543 84.5296 22.8314L84.4805 22.9038L84.529 22.9767C84.5335 22.9834 84.6176 23.1086 84.7847 23.2333C84.9512 23.358 85.2007 23.4816 85.5304 23.481C85.6388 23.481 85.7562 23.4677 85.8815 23.4371C85.881 23.4371 85.3724 23.4716 84.8688 23.0424Z" fill="#333242"/>
<path d="M91.1903 22.8637C91.1903 23.5 90.3639 24.016 89.3444 24.016C88.325 24.016 87.4985 23.5 87.4985 22.8637C87.4985 22.2275 88.325 21.7114 89.3444 21.7114C90.3639 21.7114 91.1903 22.2269 91.1903 22.8637Z" fill="#F67E31"/>
<path d="M83.3778 22.8637C83.3778 23.5 82.5514 24.016 81.5319 24.016C80.5124 24.016 79.686 23.5 79.686 22.8637C79.686 22.2275 80.5124 21.7114 81.5319 21.7114C82.5514 21.7114 83.3778 22.2269 83.3778 22.8637Z" fill="#F67E31"/>
<path d="M147.431 38.8137H147.346C147.346 39.8964 146.902 40.8756 146.183 41.5853C145.463 42.2945 144.47 42.7332 143.372 42.7332C142.274 42.7332 141.281 42.2945 140.561 41.5853C139.842 40.8756 139.397 39.8964 139.397 38.8137C139.397 37.731 139.842 36.7518 140.561 36.042C141.281 35.3328 142.274 34.8942 143.372 34.8942C144.47 34.8942 145.463 35.3328 146.183 36.042C146.902 36.7518 147.346 37.731 147.346 38.8137H147.431H147.516C147.516 36.5569 145.66 34.7272 143.372 34.7272C141.083 34.7272 139.228 36.5569 139.228 38.8137C139.228 41.0704 141.083 42.9002 143.372 42.9002C145.66 42.9002 147.516 41.0704 147.516 38.8137H147.431Z" fill="#F59D0E"/>
<path d="M143.251 37.4933C143.251 38.1235 142.738 38.6344 142.104 38.6344C141.471 38.6344 140.958 38.1235 140.958 37.4933" stroke="#5B5C6C" stroke-width="0.2"/>
<path d="M145.808 37.4933C145.808 38.1235 145.295 38.6344 144.662 38.6344C144.029 38.6344 143.515 38.1235 143.515 37.4933" stroke="#5B5C6C" stroke-width="0.2"/>
<path d="M146.523 38.6348C145.966 39.7778 144.789 40.5659 143.427 40.5659C142.065 40.5659 140.889 39.7778 140.332 38.6348" stroke="#5B5C6C" stroke-width="0.2"/>
<path d="M65.011 55.4504H64.9466C64.9466 56.2729 64.6087 57.0168 64.0624 57.5559C63.5156 58.0947 62.7613 58.4279 61.9273 58.4279C61.0932 58.4279 60.3389 58.0947 59.7922 57.5559C59.2459 57.0168 58.9079 56.2729 58.9079 55.4504C58.9079 54.6279 59.2459 53.884 59.7922 53.3449C60.3389 52.8061 61.0932 52.4729 61.9273 52.4729C62.7613 52.4729 63.5156 52.8061 64.0624 53.3449C64.6087 53.884 64.9466 54.6279 64.9466 55.4504H65.011H65.0753C65.0753 53.736 63.6657 52.346 61.9273 52.346C60.1888 52.346 58.7793 53.736 58.7793 55.4504C58.7793 57.1648 60.1888 58.5548 61.9273 58.5548C63.6657 58.5548 65.0753 57.1648 65.0753 55.4504H65.011Z" fill="#F59D0E"/>
<path d="M61.8351 54.4473C61.8351 54.9261 61.4453 55.3142 60.9644 55.3142C60.4835 55.3142 60.0936 54.9261 60.0936 54.4473" stroke="#5B5C6C" stroke-width="0.2"/>
<path d="M63.7773 54.4473C63.7773 54.9261 63.3874 55.3142 62.9065 55.3142C62.4256 55.3142 62.0358 54.9261 62.0358 54.4473" stroke="#5B5C6C" stroke-width="0.2"/>
<path d="M64.321 55.3143C63.8979 56.1826 63.0039 56.7813 61.9694 56.7813C60.9348 56.7813 60.0408 56.1826 59.6177 55.3143" stroke="#5B5C6C" stroke-width="0.2"/>
<path d="M65.9645 42.141C65.9645 42.9495 65.6324 43.6807 65.0951 44.211C64.5574 44.7408 63.8156 45.0685 62.9952 45.0685C62.1747 45.0685 61.4329 44.7408 60.8951 44.2109C60.3579 43.6807 60.0258 42.9495 60.0258 42.141C60.0258 41.3326 60.3579 40.6013 60.8951 40.0711C61.4329 39.5412 62.1747 39.2135 62.9952 39.2135C63.8156 39.2135 64.5574 39.5412 65.0951 40.0711C65.6324 40.6013 65.9645 41.3325 65.9645 42.141ZM66.1931 42.141C66.1931 40.3984 64.7606 38.9866 62.9952 38.9866C61.2298 38.9866 59.7972 40.3984 59.7972 42.141C59.7972 43.8837 61.2298 45.2954 62.9952 45.2954C64.7606 45.2954 66.1931 43.8837 66.1931 42.141Z" fill="#9099B9" stroke="#9099B9" stroke-width="0.1"/>
<path d="M62.903 41.1386C62.903 41.6174 62.5131 42.0055 62.0322 42.0055C61.5513 42.0055 61.1615 41.6174 61.1615 41.1386" stroke="#5B5C6C" stroke-width="0.2"/>
<path d="M64.8456 41.1386C64.8456 41.6174 64.4558 42.0055 63.9749 42.0055C63.494 42.0055 63.1041 41.6174 63.1041 41.1386" stroke="#5B5C6C" stroke-width="0.2"/>
<path d="M65.3889 42.0052C64.9658 42.8736 64.0717 43.4723 63.0372 43.4723C62.0027 43.4723 61.1087 42.8736 60.6855 42.0052" stroke="#5B5C6C" stroke-width="0.2"/>
<path d="M74.3092 30.7954H74.2661C74.2661 31.3458 74.04 31.8435 73.6745 32.2042C73.3087 32.5647 72.804 32.7877 72.2459 32.7877C71.6879 32.7877 71.1832 32.5647 70.8174 32.2042C70.4518 31.8435 70.2257 31.3458 70.2257 30.7954C70.2257 30.2451 70.4518 29.7474 70.8174 29.3866C71.1832 29.0262 71.6879 28.8032 72.2459 28.8032C72.804 28.8032 73.3087 29.0262 73.6745 29.3866C74.04 29.7474 74.2661 30.2451 74.2661 30.7954H74.3092H74.3522C74.3522 29.6484 73.4091 28.7183 72.2459 28.7183C71.0828 28.7183 70.1396 29.6484 70.1396 30.7954C70.1396 31.9425 71.0828 32.8725 72.2459 32.8725C73.4091 32.8725 74.3522 31.9425 74.3522 30.7954H74.3092Z" fill="#F59D0E"/>
<path d="M72.1844 30.1242C72.1844 30.4445 71.9235 30.7042 71.6018 30.7042C71.28 30.7042 71.0192 30.4445 71.0192 30.1242" stroke="#5B5C6C" stroke-width="0.1"/>
<path d="M73.4843 30.1242C73.4843 30.4445 73.2235 30.7042 72.9017 30.7042C72.5799 30.7042 72.3191 30.4445 72.3191 30.1242" stroke="#5B5C6C" stroke-width="0.1"/>
<path d="M73.8476 30.7043C73.5645 31.2853 72.9663 31.6859 72.2742 31.6859C71.582 31.6859 70.9838 31.2853 70.7007 30.7043" stroke="#5B5C6C" stroke-width="0.1"/>
</g>
</svg>
