<svg width="197" height="195" viewBox="0 0 197 195" fill="none" xmlns="http://www.w3.org/2000/svg">
<path d="M127.518 48.3664C127.518 48.3664 110.312 36.9703 89.3532 42.982C68.3923 48.9918 54.0849 67.7788 42.0902 82.69C30.0935 97.6038 30.6174 115.965 42.8383 127.343C55.0592 138.721 67.3693 129.557 87.2517 133.949C107.134 138.34 111.775 142.497 130.806 135.449C149.837 128.401 159.039 102.787 150.73 80.044C142.419 57.2993 127.518 48.3664 127.518 48.3664Z" fill="#F1B869"/>
<path d="M72.8022 116.561C71.9717 116.835 71.0727 116.382 70.7985 115.552L65.2528 98.7725C65.0148 98.0525 64.2382 97.6606 63.5197 97.8981C62.8013 98.1355 62.4112 98.913 62.6491 99.633L66.789 112.159C67.0326 112.896 66.6329 113.693 65.8972 113.936C65.1615 114.179 64.3658 113.778 64.1221 113.04L61.8366 106.125C61.6605 105.592 61.0867 105.303 60.555 105.478C60.0234 105.654 59.7351 106.228 59.9112 106.761L60.7613 109.333L58.6404 110.034L58.5452 109.746L60.3787 109.14L59.6238 106.856C59.3954 106.165 59.7701 105.418 60.4598 105.19C61.1495 104.962 61.8955 105.339 62.124 106.03L64.4095 112.945C64.6008 113.524 65.2244 113.839 65.802 113.648C66.3797 113.457 66.6929 112.833 66.5016 112.254L62.3618 99.728C62.0714 98.8496 62.5481 97.8998 63.4246 97.6101C64.301 97.3204 65.2498 97.7991 65.5401 98.6776L71.0859 115.457C71.3077 116.128 72.0346 116.495 72.707 116.273C73.3766 116.052 73.7418 115.324 73.52 114.653L66.7539 94.1807C66.4017 93.1151 66.9801 91.9623 68.0434 91.6109C69.1067 91.2594 70.2582 91.8405 70.6104 92.9061L77.3451 113.283C77.5831 114.003 78.3597 114.395 79.0781 114.158C79.7966 113.92 80.1867 113.143 79.9487 112.423L74.5819 96.1844C74.2449 95.1648 74.7984 94.0618 75.8157 93.7256C76.833 93.3894 77.9348 93.9453 78.2718 94.9649L82.2307 106.943C82.4373 107.568 83.1144 107.91 83.738 107.704C84.3616 107.498 84.7018 106.82 84.4953 106.195L82.343 99.683C82.0946 98.9313 82.502 98.1193 83.252 97.8714C84.0021 97.6235 84.816 98.0318 85.0644 98.7835L85.7184 100.762L87.8392 100.061L87.9344 100.349L85.5262 101.145L84.7771 98.8785C84.581 98.2852 83.9392 97.9638 83.3472 98.1594C82.7552 98.3551 82.4352 98.9976 82.6304 99.588L84.7826 106.1C85.0415 106.883 84.6149 107.734 83.8332 107.992C83.0516 108.25 82.2023 107.822 81.9434 107.038L77.9844 95.0599C77.6998 94.1987 76.7702 93.7296 75.9109 94.0136C75.0517 94.2976 74.5847 95.2283 74.8693 96.0894L80.2361 112.328C80.5264 113.206 80.0498 114.156 79.1733 114.446C78.2968 114.735 77.3481 114.257 77.0577 113.378L70.323 93.0011C70.0232 92.0939 69.0438 91.5997 68.1386 91.8989C67.2334 92.1981 66.7414 93.1785 67.0412 94.0858L73.8073 114.558C74.0844 115.386 73.6327 116.286 72.8022 116.561Z" fill="#FEDEA5"/>
<path d="M100.533 107.395C99.703 107.669 98.8039 107.215 98.5298 106.386L92.984 89.6062C92.746 88.8861 91.9694 88.4943 91.251 88.7317C90.5326 88.9692 90.1424 89.7466 90.3804 90.4667L94.5202 102.992C94.7639 103.73 94.3642 104.526 93.6285 104.77C92.8928 105.013 92.0971 104.611 91.8534 103.874L89.5679 96.9586C89.3918 96.4258 88.8179 96.1362 88.2863 96.3119C87.7546 96.4876 87.4664 97.0621 87.6425 97.5949L88.4925 100.167L86.3717 100.868L86.2765 100.58L88.11 99.9739L87.3551 97.6899C87.1266 96.9987 87.5014 96.2519 88.1911 96.0239C88.8808 95.796 89.6268 96.1724 89.8553 96.8636L92.1408 103.779C92.3321 104.358 92.9557 104.672 93.5333 104.482C94.1109 104.291 94.4242 103.666 94.2328 103.087L90.093 90.5616C89.8027 89.6832 90.2793 88.7334 91.1558 88.4437C92.0323 88.154 92.9811 88.6327 93.2714 89.5112L98.8172 106.291C99.039 106.962 99.7658 107.329 100.438 107.107C101.108 106.885 101.473 106.158 101.251 105.486L94.4851 85.0144C94.1329 83.9487 94.7114 82.7959 95.7747 82.4445C96.838 82.0931 97.9895 82.6741 98.3417 83.7398L105.076 104.117C105.314 104.837 106.091 105.229 106.809 104.991C107.528 104.754 107.918 103.976 107.68 103.256L102.313 87.018C101.976 85.9985 102.53 84.8954 103.547 84.5592C104.564 84.223 105.666 84.7789 106.003 85.7985L109.962 97.777C110.169 98.402 110.846 98.7437 111.469 98.5376C112.093 98.3315 112.433 97.6536 112.226 97.0286L110.074 90.5166C109.826 89.7649 110.233 88.9529 110.986 88.7041C111.736 88.4562 112.547 88.8654 112.796 89.6172L113.45 91.5958L115.57 90.8949L115.666 91.1829L113.257 91.9788L112.508 89.7121C112.312 89.1188 111.673 88.7965 111.081 88.9921C110.489 89.1878 110.166 89.8312 110.362 90.4216L112.514 96.9336C112.773 97.717 112.346 98.5673 111.564 98.8256C110.783 99.084 109.934 98.6554 109.675 97.872L105.716 85.8935C105.431 85.0323 104.501 84.5632 103.642 84.8472C102.783 85.1312 102.316 86.0619 102.601 86.9231L107.967 103.161C108.258 104.04 107.781 104.99 106.905 105.279C106.028 105.569 105.079 105.09 104.789 104.212L98.0543 83.8347C97.7544 82.9275 96.7751 82.4333 95.8699 82.7325C94.9646 83.0317 94.4726 84.0121 94.7725 84.9194L101.539 105.391C101.816 106.22 101.364 107.12 100.533 107.395Z" fill="#FEDEA5"/>
<path d="M128.265 98.2295C127.435 98.504 126.536 98.0504 126.261 97.2209L120.716 80.4411C120.478 79.7211 119.701 79.3292 118.983 79.5667C118.264 79.8041 117.874 80.5816 118.112 81.3016L122.252 93.8274C122.495 94.5647 122.096 95.3613 121.36 95.6045C120.624 95.8476 119.829 95.4461 119.585 94.7088L117.299 87.7936C117.123 87.2607 116.549 86.9712 116.018 87.1469C115.486 87.3226 115.198 87.8971 115.374 88.4299L116.224 91.0019L114.103 91.7028L114.008 91.4148L115.842 90.8088L115.087 88.5249C114.858 87.8336 115.233 87.0868 115.923 86.8589C116.612 86.6309 117.358 87.0073 117.587 87.6986L119.872 94.6138C120.064 95.1927 120.687 95.5074 121.265 95.3165C121.842 95.1256 122.156 94.5013 121.964 93.9224L117.825 81.3966C117.534 80.5182 118.011 79.5683 118.887 79.2787C119.764 78.989 120.713 79.4677 121.003 80.3461L126.549 97.1259C126.771 97.797 127.497 98.1637 128.17 97.9415C128.842 97.7192 129.205 96.9925 128.983 96.3214L122.217 75.8493C121.864 74.7837 122.443 73.6309 123.506 73.2794C124.57 72.928 125.721 73.5091 126.073 74.5747L132.808 94.9518C133.046 95.6718 133.823 96.0637 134.541 95.8262C135.259 95.5888 135.65 94.8113 135.412 94.0913L130.045 77.853C129.708 76.8334 130.261 75.7304 131.279 75.3942C132.296 75.058 133.398 75.6139 133.735 76.6335L137.694 88.612C137.9 89.237 138.577 89.5787 139.201 89.3726C139.824 89.1665 140.165 88.4886 139.958 87.8636L137.806 81.3516C137.557 80.5998 137.965 79.7879 138.718 79.5391C139.468 79.2912 140.279 79.7004 140.527 80.4521L141.181 82.4308L143.302 81.7298L143.397 82.0179L140.989 82.8138L140.24 80.5471C140.044 79.9538 139.405 79.6314 138.813 79.8271C138.221 80.0227 137.898 80.6662 138.093 81.2566L140.245 87.7686C140.504 88.552 140.078 89.4022 139.296 89.6606C138.514 89.9189 137.665 89.4904 137.406 88.707L133.447 76.7284C133.163 75.8673 132.233 75.3982 131.374 75.6822C130.515 75.9662 130.047 76.8968 130.332 77.758L135.699 93.9963C135.989 94.8747 135.513 95.8246 134.636 96.1142C133.76 96.4039 132.811 95.9252 132.521 95.0468L125.786 74.6697C125.486 73.7625 124.507 73.2683 123.601 73.5675C122.696 73.8666 122.204 74.8471 122.504 75.7543L129.27 96.2264C129.547 97.055 129.096 97.955 128.265 98.2295Z" fill="#FEDEA5"/>
<path d="M85.4436 46.775L84.5612 44.1051L82.6972 46.2003L85.4436 46.775Z" fill="#263238"/>
<path d="M81.8878 49.9181L81.4682 50.0568L82.3697 52.7843L82.7892 52.6456L81.8878 49.9181Z" fill="#263238"/>
<path d="M97.6457 47.7418L99.5087 45.6437L96.7632 45.0719L97.6457 47.7418Z" fill="#263238"/>
<path d="M99.8171 43.9928L99.3976 44.1315L100.299 46.859L100.719 46.7203L99.8171 43.9928Z" fill="#263238"/>
<path d="M89.9568 44.5008C87.9969 45.1486 86.937 47.2656 87.5853 49.227C88.2345 51.1912 90.3491 52.2558 92.3061 51.609C94.266 50.9613 95.3259 48.8443 94.6777 46.8829C94.0285 44.9186 91.9167 43.8531 89.9568 44.5008ZM91.2473 50.0932L90.1927 50.4418L88.9542 46.6947L90.0089 46.3462L91.2473 50.0932ZM93.3078 49.4122L92.2531 49.7608L91.0147 46.0137L92.0694 45.6652L93.3078 49.4122Z" fill="#263238"/>
<path d="M129.762 64.7138C129.523 64.7926 129.267 64.6633 129.188 64.4242L127.898 60.5216C127.819 60.2826 127.948 60.026 128.186 59.9471C128.425 59.8683 128.681 59.9976 128.76 60.2367L130.05 64.1393C130.128 64.3755 130 64.6349 129.762 64.7138Z" fill="#FFDB9D"/>
<path d="M128.18 64.6645C127.941 64.7433 127.685 64.614 127.606 64.3749L126.657 61.5034C126.578 61.2644 126.707 61.0078 126.945 60.9289C127.184 60.8501 127.44 60.9794 127.519 61.2185L128.468 64.09C128.547 64.3291 128.418 64.5857 128.18 64.6645Z" fill="#FFDB9D"/>
<path d="M126.769 65.1306C126.531 65.2094 126.274 65.0801 126.195 64.841L125.246 61.9695C125.167 61.7304 125.296 61.4738 125.534 61.395C125.773 61.3162 126.029 61.4455 126.108 61.6846L127.057 64.5561C127.136 64.7951 127.008 65.0517 126.769 65.1306Z" fill="#FFDB9D"/>
<path d="M143.695 59.5367C143.457 59.6155 143.2 59.4862 143.121 59.2471L142.172 56.3756C142.093 56.1366 142.222 55.88 142.461 55.8011C142.699 55.7223 142.956 55.8516 143.035 56.0907L143.984 58.9622C144.063 59.2013 143.934 59.4579 143.695 59.5367Z" fill="#FFDB9D"/>
<path d="M142.284 60.0028C142.046 60.0816 141.789 59.9523 141.71 59.7132L140.761 56.8417C140.682 56.6026 140.811 56.346 141.05 56.2672C141.288 56.1884 141.544 56.3177 141.623 56.5568L142.572 59.4283C142.651 59.6673 142.523 59.9239 142.284 60.0028Z" fill="#FFDB9D"/>
<path d="M131.173 64.2472C130.934 64.3261 130.678 64.1967 130.599 63.9577L129.309 60.0551C129.23 59.816 129.359 59.5594 129.597 59.4806C129.836 59.4017 130.092 59.5311 130.171 59.7701L131.461 63.6727C131.539 63.9089 131.408 64.1693 131.173 64.2472Z" fill="#FFDB9D"/>
<path d="M132.807 64.4673C132.569 64.5461 132.312 64.4167 132.233 64.1777L130.489 58.9013C130.41 58.6622 130.539 58.4056 130.778 58.3268C131.016 58.2479 131.272 58.3773 131.351 58.6163L133.095 63.8928C133.174 64.1318 133.046 64.3884 132.807 64.4673Z" fill="#FFDB9D"/>
<path d="M134.576 65.0843C134.338 65.1632 134.081 65.0338 134.002 64.7948L131.544 57.3554C131.465 57.1163 131.593 56.8597 131.832 56.7809C132.07 56.702 132.327 56.8314 132.406 57.0704L134.864 64.5098C134.943 64.746 134.815 65.0055 134.576 65.0843Z" fill="#FFDB9D"/>
<path d="M141.047 60.9839C140.808 61.0628 140.552 60.9334 140.473 60.6944L139.183 56.7918C139.104 56.5527 139.233 56.2961 139.472 56.2173C139.71 56.1384 139.966 56.2678 140.045 56.5068L141.335 60.4094C141.413 60.6456 141.283 60.906 141.047 60.9839Z" fill="#FFDB9D"/>
<path d="M139.635 61.4505C139.397 61.5293 139.14 61.4 139.061 61.1609L137.772 57.2583C137.693 57.0193 137.821 56.7627 138.06 56.6838C138.298 56.605 138.555 56.7343 138.634 56.9734L139.924 60.876C140.002 61.1122 139.874 61.3716 139.635 61.4505Z" fill="#FFDB9D"/>
<path d="M138.451 62.6023C138.213 62.6811 137.956 62.5518 137.877 62.3127L136.133 57.0363C136.054 56.7972 136.183 56.5406 136.422 56.4618C136.66 56.3829 136.916 56.5123 136.995 56.7513L138.739 62.0278C138.818 62.2668 138.69 62.5234 138.451 62.6023Z" fill="#FFDB9D"/>
<path d="M137.398 64.1516C137.159 64.2304 136.903 64.1011 136.824 63.862L134.365 56.4226C134.286 56.1836 134.415 55.927 134.654 55.8481C134.892 55.7693 135.148 55.8986 135.227 56.1377L137.686 63.5771C137.764 63.8133 137.636 64.0728 137.398 64.1516Z" fill="#FFDB9D"/>
<path d="M136.441 65.9914C136.203 66.0702 135.946 65.9409 135.867 65.7018L132.499 55.5119C132.42 55.2728 132.549 55.0162 132.788 54.9374C133.026 54.8585 133.282 54.9879 133.361 55.2269L136.729 65.4169C136.808 65.6559 136.68 65.9125 136.441 65.9914Z" fill="#FFDB9D"/>
<path d="M50.3245 80.0714C49.4474 78.6425 47.6767 77.9722 46.0616 78.506C44.4351 79.0436 43.4049 80.662 43.5769 82.3494C41.9852 83.1566 41.189 85.0395 41.7592 86.7647C42.358 88.5763 44.2065 89.6171 46.0626 89.1857L45.8945 88.465C44.4148 88.8102 42.9383 87.9788 42.4604 86.533C41.9807 85.0814 42.7112 83.4917 44.1205 82.9141L44.3955 82.8009L44.3424 82.5053C44.0819 81.0804 44.9203 79.6627 46.2939 79.2087C47.6704 78.7538 49.1895 79.3955 49.8284 80.7018L49.9867 81.0265L50.3134 80.8769C50.4131 80.8312 50.5137 80.7884 50.6171 80.7542C52.146 80.2489 53.7996 81.0857 54.3051 82.6151C54.8115 84.1473 53.9783 85.8028 52.4524 86.3071L52.6847 87.0099C54.5986 86.3773 55.6402 84.3015 55.0062 82.3833C54.3675 80.4412 52.2472 79.3785 50.3245 80.0714Z" fill="#4A5161"/>
<path d="M50.108 83.2644C50.0718 83.1549 49.9848 83.0655 49.8739 83.0287C49.7629 82.9919 49.6413 83.0097 49.5454 83.0765L46.2259 85.3876C46.0907 85.4802 46.0358 85.6517 46.0872 85.8072L47.4837 90.0324C47.3478 90.0262 47.206 90.0411 47.071 90.0858C46.4732 90.2833 46.1484 90.9306 46.3464 91.5297C46.5444 92.1287 47.191 92.455 47.7887 92.2574C48.3548 92.0703 48.6699 91.4805 48.536 90.9114L48.5475 90.9076L47.4823 87.6847L50.1731 85.8146L50.7899 87.681C50.6568 87.6738 50.5189 87.6907 50.3839 87.7353C49.7861 87.9329 49.4614 88.5801 49.6593 89.1792C49.8573 89.7783 50.5039 90.1045 51.1016 89.9069C51.6993 89.7094 52.0241 89.0621 51.8261 88.463C51.8242 88.4573 51.8195 88.4525 51.8176 88.4467L50.1051 83.2653L50.108 83.2644ZM49.9294 85.0773L47.2396 86.9503L46.8712 85.8357L49.5619 83.9656L49.9294 85.0773Z" fill="#4A5161"/>
<path d="M135.067 113.763C135.736 113.861 136.407 114.279 136.407 114.279C136.407 114.279 136.379 115.064 135.228 116.78C136.596 117.465 137.866 118.221 138.241 118.043C138.976 117.695 139.941 113.542 140.292 112.359C140.645 111.179 141.61 110.182 141.264 108.489C140.916 106.792 139.925 107.014 139.702 107.621C139.479 108.229 137.651 110.577 136.534 111.374C135.416 112.169 134.558 112.871 134.558 112.871C134.558 112.871 134.397 113.665 135.067 113.763Z" fill="#F37630"/>
<path d="M138.258 118.196C137.896 118.316 137.179 117.959 135.976 117.337C135.711 117.201 135.434 117.057 135.154 116.916C135.116 116.896 135.085 116.862 135.075 116.82C135.065 116.779 135.071 116.732 135.094 116.696C135.989 115.362 136.191 114.602 136.235 114.36C136.039 114.25 135.535 113.988 135.039 113.915C134.818 113.883 134.652 113.785 134.537 113.621C134.314 113.302 134.399 112.856 134.406 112.837C134.413 112.803 134.432 112.771 134.459 112.749C134.467 112.744 135.333 112.036 136.443 111.247C137.55 110.46 139.344 108.142 139.558 107.566C139.686 107.22 140.011 106.998 140.351 107.023C140.586 107.041 141.158 107.216 141.412 108.458C141.665 109.697 141.256 110.561 140.858 111.392C140.694 111.737 140.54 112.059 140.437 112.403C140.37 112.626 140.28 112.96 140.174 113.353C139.535 115.733 138.91 117.892 138.303 118.178C138.289 118.183 138.273 118.192 138.258 118.196ZM135.444 116.721C135.673 116.837 135.897 116.954 136.116 117.067C136.971 117.513 137.94 118.014 138.172 117.905C138.704 117.653 139.498 114.694 139.88 113.274C139.988 112.877 140.077 112.541 140.144 112.318C140.253 111.953 140.421 111.603 140.58 111.266C140.957 110.477 141.345 109.662 141.111 108.522C140.962 107.802 140.668 107.356 140.325 107.329C140.122 107.313 139.92 107.456 139.84 107.674C139.611 108.293 137.787 110.666 136.618 111.496C135.66 112.177 134.888 112.793 134.697 112.949C134.687 113.051 134.676 113.288 134.789 113.449C134.855 113.542 134.953 113.596 135.087 113.615C135.781 113.718 136.457 114.134 136.485 114.153C136.533 114.182 136.56 114.234 136.555 114.287C136.552 114.316 136.514 115.089 135.444 116.721Z" fill="#263238"/>
<path d="M140.569 107.246C140.974 109.3 140.561 110.146 139.087 113.381C137.935 115.905 137.64 117.328 137.57 118.003C137.875 118.085 138.107 118.104 138.237 118.044C138.973 117.696 139.937 113.543 140.289 112.36C140.642 111.18 141.607 110.184 141.26 108.49C141.111 107.759 140.845 107.387 140.569 107.246Z" fill="white"/>
<path d="M138.25 118.199C138.092 118.252 137.86 118.236 137.532 118.149C137.459 118.132 137.411 118.061 137.421 117.988C137.502 117.21 137.832 115.769 138.95 113.316L139.036 113.132C140.435 110.065 140.81 109.242 140.422 107.274C140.409 107.218 140.434 107.158 140.48 107.124C140.526 107.09 140.588 107.085 140.642 107.112C140.893 107.243 141.232 107.585 141.412 108.458C141.665 109.697 141.256 110.561 140.858 111.392C140.695 111.737 140.54 112.059 140.437 112.403C140.37 112.627 140.28 112.96 140.174 113.353C139.535 115.733 138.91 117.892 138.304 118.178C138.287 118.187 138.27 118.193 138.25 118.199ZM137.738 117.886C138.03 117.949 138.139 117.923 138.172 117.906C138.704 117.653 139.498 114.694 139.88 113.274C139.988 112.878 140.078 112.541 140.144 112.318C140.253 111.953 140.421 111.603 140.581 111.266C140.957 110.477 141.345 109.662 141.111 108.522C141.028 108.116 140.911 107.848 140.796 107.675C141.054 109.439 140.597 110.44 139.308 113.262L139.223 113.447C138.141 115.817 137.827 117.208 137.738 117.886Z" fill="#263238"/>
<path d="M95.0491 74.1379C95.254 74.15 95.4541 74.1574 95.6541 74.1648L95.9288 69.1221C95.7967 69.1274 95.6626 69.1366 95.5228 69.1477C95.4951 69.1504 95.4635 69.1513 95.4357 69.1541C95.3984 69.1569 95.3581 69.1606 95.3208 69.1633L95.0491 74.1379Z" fill="#263238"/>
<path d="M92.3097 69.4941C92.258 69.5016 92.2034 69.5101 92.1508 69.5147C92.011 69.5354 91.8702 69.5531 91.7304 69.5738L91.4515 73.8032C91.6066 73.819 91.7626 73.8377 91.9186 73.8565C91.9617 73.8614 92.0076 73.8654 92.0545 73.8722L92.3432 69.4894C92.3317 69.4932 92.3222 69.4932 92.3097 69.4941Z" fill="#263238"/>
<path d="M99.0907 69.614C98.9931 70.6206 98.8068 72.4489 98.5875 74.0133C98.8097 73.9719 99.0232 73.9236 99.2206 73.8648C99.4157 72.4394 99.5785 70.8584 99.6732 69.8719C99.4896 69.7793 99.2926 69.6942 99.0907 69.614Z" fill="#263238"/>
<path d="M79.869 67.0251C79.7366 66.6248 80.1399 66.0123 79.9635 65.6425C79.7813 65.265 79.052 65.1994 78.8238 64.8563C78.5938 64.5074 78.8248 63.8081 78.5564 63.4974C78.2832 63.182 77.5602 63.3091 77.2525 63.0339C76.9409 62.7567 76.9854 62.0231 76.6402 61.789C76.2951 61.5548 75.633 61.8663 75.2619 61.6791C74.8908 61.4918 74.7457 60.773 74.3525 60.6346C73.9631 60.4982 73.3984 60.9691 72.9907 60.8834C72.5869 60.7997 72.2578 60.1417 71.8424 60.1096C71.4308 60.0795 71.0113 60.6814 70.5949 60.7041C70.1851 60.7277 69.6969 60.1766 69.2861 60.2549C68.8839 60.3303 68.6346 61.0229 68.2352 61.1549C67.8357 61.2869 67.2238 60.8821 66.8549 61.0584C66.4784 61.2403 66.4138 61.9709 66.0716 62.199C65.7237 62.429 65.0253 62.1966 64.7155 62.4651C64.401 62.7384 64.5289 63.4628 64.2545 63.7708C63.9782 64.0825 63.246 64.037 63.0127 64.3825C62.7794 64.7279 63.0912 65.3916 62.9048 65.7631C62.7184 66.1346 62.0011 66.279 61.8634 66.6728C61.7277 67.0627 62.1986 67.629 62.1136 68.0373C62.0305 68.4418 61.3741 68.7705 61.3427 69.1866C61.3132 69.5989 61.9146 70.0199 61.9377 70.4372C61.9618 70.8477 61.4124 71.336 61.4911 71.7477C61.5698 72.1498 62.2586 72.4014 62.3909 72.8017C62.5232 73.202 62.12 73.8145 62.2964 74.1843C62.4785 74.5618 63.2079 74.6274 63.436 74.9705C63.6661 75.3194 63.435 76.0188 63.7034 76.3294C63.9766 76.6448 64.6996 76.5177 65.0074 76.793C65.3189 77.0702 65.2745 77.8037 65.6196 78.0378C65.9648 78.272 66.6269 77.9605 66.998 78.1478C67.369 78.335 67.5142 79.0538 67.9074 79.1922C68.2967 79.3287 68.8615 78.8577 69.2691 78.9434C69.673 79.0272 70.002 79.6852 70.4174 79.7172C70.829 79.7473 71.2485 79.1454 71.665 79.1228C72.0747 79.0991 72.5629 79.6502 72.9737 79.572C73.375 79.4937 73.6252 78.804 74.0246 78.6719C74.4241 78.5399 75.036 78.9447 75.4049 78.7684C75.7815 78.5865 75.846 77.8559 76.1882 77.6278C76.5362 77.3978 77.2346 77.6302 77.5443 77.3617C77.8588 77.0884 77.7309 76.364 78.0053 76.056C78.2816 75.7443 79.0139 75.7898 79.2471 75.4443C79.4804 75.0989 79.1686 74.4352 79.355 74.0637C79.5415 73.6922 80.2588 73.5478 80.3964 73.154C80.5321 72.7642 80.0612 72.1978 80.1462 71.7895C80.2293 71.3851 80.8857 71.0563 80.9171 70.6402C80.9466 70.2279 80.3453 69.8069 80.3221 69.3896C80.298 68.9791 80.8475 68.4908 80.7688 68.0791C80.692 67.6732 80.0013 67.4255 79.869 67.0251Z" fill="#4A5161"/>
<path d="M73.0732 79.7014C73.0502 79.709 73.0263 79.7137 73.0023 79.7184C72.7322 79.7693 72.4673 79.6237 72.213 79.4809C72.0217 79.3748 71.8266 79.2668 71.6763 79.2749C71.5202 79.285 71.3343 79.4167 71.1541 79.5466C70.9201 79.7165 70.6747 79.8903 70.4067 79.8702C70.1349 79.8483 69.9161 79.6394 69.7087 79.4364C69.553 79.2834 69.3895 79.1266 69.2384 79.0935C69.0872 79.0604 68.8745 79.1403 68.6676 79.2182C68.3955 79.3209 68.1148 79.4265 67.8584 79.3355C67.602 79.2445 67.4465 78.9861 67.2976 78.7382C67.184 78.5489 67.0685 78.3538 66.9308 78.2843C66.7931 78.2148 66.5681 78.2381 66.3488 78.2594C66.0587 78.2882 65.759 78.317 65.5334 78.1647C65.3077 78.0125 65.225 77.7236 65.1451 77.4433C65.0842 77.2302 65.0215 77.0113 64.9049 76.9093C64.7911 76.8063 64.5662 76.772 64.3499 76.7349C64.0628 76.686 63.7633 76.638 63.5866 76.4313C63.4108 76.2274 63.4037 75.9262 63.4004 75.6366C63.397 75.4141 63.3917 75.1858 63.3068 75.0542C63.2237 74.9283 63.0171 74.8336 62.822 74.7448C62.5551 74.6221 62.2787 74.4994 62.1604 74.2478C62.0451 74.0048 62.1155 73.7163 62.1859 73.4375C62.239 73.2219 62.2959 72.9986 62.2464 72.8488C62.1969 72.6991 62.0181 72.5537 61.847 72.4121C61.6243 72.2302 61.392 72.0386 61.3437 71.7766C61.2925 71.506 61.4376 71.2408 61.5797 70.9862C61.6854 70.7947 61.793 70.5994 61.7847 70.4488C61.7744 70.2924 61.6427 70.106 61.5138 69.9281C61.3438 69.6936 61.17 69.4475 61.1897 69.1791C61.2113 68.9068 61.4194 68.6878 61.6218 68.4804C61.7743 68.3245 61.9307 68.161 61.9635 68.0096C61.9963 67.8582 61.9163 67.645 61.8382 67.4376C61.7353 67.1649 61.6296 66.8836 61.7201 66.6269C61.8105 66.3701 62.0683 66.2146 62.3156 66.0658C62.5044 65.9523 62.699 65.8369 62.7681 65.699C62.8373 65.5611 62.8138 65.3357 62.7922 65.116C62.7631 64.8253 62.734 64.5251 62.8866 64.3021C63.0383 64.0763 63.3266 63.9937 63.6063 63.9141C63.8189 63.8534 64.0373 63.7908 64.139 63.6741C64.2417 63.5603 64.2756 63.3351 64.3124 63.1184C64.3608 62.8309 64.4082 62.5309 64.6144 62.3541C64.8177 62.1783 65.1183 62.1716 65.4074 62.1687C65.6295 62.1656 65.8574 62.1606 65.9887 62.0756C66.1142 61.9926 66.2085 61.7857 66.2969 61.5904C66.419 61.3232 66.5411 61.0464 66.7892 60.9293C67.0317 60.814 67.3197 60.885 67.5981 60.9559C67.8134 61.0093 68.0364 61.0666 68.1858 61.0172C68.3352 60.9678 68.4801 60.789 68.6212 60.6177C68.8025 60.3949 68.9935 60.1624 69.2549 60.1144C69.525 60.0635 69.7899 60.2091 70.0471 60.3509C70.2384 60.457 70.4335 60.5651 70.5838 60.5569C70.7399 60.5469 70.9258 60.4151 71.1032 60.2862C71.3371 60.1163 71.5825 59.9425 71.8505 59.9626C72.1223 59.9845 72.3412 60.1934 72.5485 60.3964C72.7043 60.5494 72.8677 60.7062 73.0189 60.7393C73.1701 60.7724 73.3856 60.6916 73.5897 60.6145C73.8617 60.5118 74.1424 60.4063 74.3988 60.4973C74.6552 60.5882 74.8108 60.8467 74.9606 61.0975C75.0742 61.2868 75.1896 61.4819 75.3273 61.5514C75.4651 61.6208 75.6901 61.5976 75.9093 61.5762C76.1995 61.5474 76.4992 61.5187 76.7248 61.6709C76.9504 61.8232 77.0332 62.1121 77.1131 62.3924C77.1739 62.6055 77.2367 62.8244 77.3533 62.9264C77.467 63.0294 77.6919 63.0637 77.9082 63.1008C78.1953 63.1497 78.4949 63.1976 78.6716 63.4044C78.8474 63.6083 78.8545 63.9094 78.8577 64.1991C78.8612 64.4216 78.8665 64.6499 78.9514 64.7815C79.0345 64.9074 79.2411 65.0021 79.4362 65.0909C79.7031 65.2136 79.9795 65.3363 80.0968 65.585C80.2122 65.828 80.1417 66.1165 80.0713 66.3953C80.0183 66.6109 79.9614 66.8342 80.0109 66.984C80.0604 67.1337 80.2391 67.2791 80.4102 67.4207C80.6329 67.6026 80.8652 67.7942 80.9135 68.0562C80.9647 68.3268 80.8196 68.592 80.6784 68.8495C80.5728 69.041 80.4623 69.2372 80.4735 69.3869C80.4837 69.5432 80.6155 69.7297 80.7454 69.9104C80.9153 70.145 81.0891 70.391 81.0694 70.6595C81.0479 70.9318 80.8397 71.1507 80.6373 71.3582C80.4848 71.514 80.3285 71.6775 80.2956 71.8289C80.2628 71.9804 80.3428 72.1935 80.4209 72.4009C80.5238 72.6736 80.6295 72.955 80.5391 73.2117C80.4486 73.4684 80.1908 73.6239 79.9406 73.7737C79.7518 73.8872 79.5573 74.0026 79.4881 74.1405C79.4189 74.2784 79.4424 74.5038 79.464 74.7235C79.4932 75.0142 79.5223 75.3144 79.3706 75.5403C79.218 75.7633 78.9306 75.8486 78.6509 75.9283C78.4383 75.989 78.2199 76.0516 78.1182 76.1683C78.0155 76.2821 77.9816 76.5073 77.9448 76.7239C77.8964 77.0115 77.849 77.3115 77.6428 77.4883C77.4395 77.6641 77.1389 77.6708 76.8498 77.6737C76.6277 77.6768 76.4027 77.6809 76.2685 77.7668C76.143 77.8498 76.0487 78.0566 75.9603 78.252C75.8382 78.5192 75.7161 78.7959 75.4651 78.9141C75.2265 79.0312 74.9346 78.9584 74.6562 78.8875C74.4409 78.834 74.218 78.7767 74.0685 78.8261C73.9191 78.8755 73.7742 79.0544 73.6332 79.2256C73.47 79.4169 73.3002 79.6264 73.0732 79.7014ZM71.4758 79.0058C71.5332 78.9868 71.5926 78.9735 71.6549 78.9689C71.8923 78.9543 72.1304 79.0865 72.3571 79.2129C72.5646 79.3296 72.7826 79.4492 72.9445 79.4181C73.0996 79.386 73.2522 79.2014 73.4019 79.0177C73.5698 78.8121 73.7454 78.6007 73.9781 78.5237C74.2109 78.4468 74.4788 78.5148 74.7353 78.577C74.9611 78.6334 75.1975 78.6926 75.3412 78.6259C75.4897 78.5545 75.5906 78.3294 75.6906 78.1111C75.7973 77.8746 75.9098 77.6265 76.1092 77.4968C76.3133 77.3622 76.5862 77.3583 76.8494 77.3543C77.084 77.3503 77.3281 77.3463 77.4499 77.2421C77.5736 77.1342 77.6142 76.8907 77.652 76.6578C77.6937 76.398 77.7363 76.1315 77.8965 75.9508C78.0567 75.7701 78.3182 75.6932 78.572 75.6221C78.799 75.5567 79.0347 75.4884 79.1249 75.3563C79.2171 75.2204 79.1907 74.9768 79.1672 74.7417C79.1409 74.4789 79.1156 74.2093 79.2222 73.9919C79.3289 73.7746 79.5637 73.6363 79.7899 73.5008C79.9921 73.3797 80.202 73.2528 80.2569 73.1005C80.3088 72.9491 80.2231 72.7187 80.1403 72.4969C80.0459 72.2501 79.9517 71.9938 80.0009 71.757C80.0502 71.5203 80.2382 71.3272 80.4214 71.1388C80.5883 70.9687 80.759 70.7909 80.7689 70.6278C80.7797 70.4677 80.6375 70.2687 80.5009 70.0775C80.3472 69.8631 80.1878 69.6411 80.1739 69.3965C80.159 69.1586 80.2906 68.9202 80.4164 68.6933C80.5326 68.4856 80.6518 68.2673 80.6205 68.1051C80.5911 67.9487 80.4037 67.7966 80.2202 67.6464C80.0147 67.4779 79.8035 67.3017 79.7264 67.0684C79.6493 66.8351 79.7168 66.5668 79.7785 66.31C79.8345 66.0838 79.8933 65.8472 79.8266 65.7031C79.7551 65.5542 79.5303 65.4528 79.3122 65.3523C79.076 65.2451 78.8282 65.1321 78.6984 64.9322C78.5638 64.7275 78.5595 64.4542 78.5552 64.1904C78.5509 63.9555 78.5466 63.7109 78.4425 63.5888C78.3345 63.4647 78.0914 63.4236 77.8589 63.3855C77.5995 63.3434 77.3335 63.3004 77.1528 63.1396C76.9722 62.9789 76.8952 62.7168 76.8238 62.4625C76.7582 62.2349 76.6897 61.9988 76.5578 61.9082C76.423 61.8186 76.1788 61.8418 75.9442 61.865C75.6819 61.891 75.4128 61.9161 75.1957 61.8089C74.9815 61.7008 74.8402 61.4664 74.7047 61.2396C74.5835 61.0368 74.4566 60.8264 74.3045 60.7712C74.1533 60.719 73.9234 60.8045 73.7021 60.8873C73.455 60.9785 73.2001 61.0755 72.9638 61.0259C72.7274 60.9762 72.5344 60.7876 72.3461 60.6038C72.176 60.4364 71.9983 60.2651 71.8356 60.255C71.6757 60.244 71.4773 60.3862 71.2865 60.5227C71.0728 60.6765 70.8513 60.8359 70.6072 60.8495C70.3697 60.8641 70.1316 60.7319 69.905 60.6056C69.6974 60.4889 69.4794 60.3692 69.3176 60.4004C69.1615 60.4296 69.0098 60.6171 68.8602 60.8007C68.6922 61.0064 68.5176 61.2206 68.2848 61.2976C68.0521 61.3745 67.7841 61.3065 67.5267 61.2414C67.3009 61.1851 67.0646 61.1258 66.9209 61.1925C66.7723 61.2639 66.6714 61.489 66.5714 61.7073C66.4647 61.9439 66.3522 62.1919 66.1529 62.3217C65.9487 62.4562 65.6759 62.4601 65.4126 62.4641C65.1781 62.4681 64.9339 62.4721 64.8122 62.5763C64.6885 62.6843 64.6478 62.9277 64.61 63.1606C64.5684 63.4204 64.5257 63.6869 64.3655 63.8676C64.2053 64.0484 63.9429 64.1223 63.69 64.1963C63.463 64.2618 63.2274 64.33 63.1371 64.4621C63.0478 64.597 63.0713 64.8417 63.0948 65.0767C63.1211 65.3396 63.1465 65.6091 63.0398 65.8265C62.9331 66.0438 62.6983 66.1821 62.4721 66.3176C62.2699 66.4387 62.06 66.5656 62.0052 66.7179C61.9532 66.8693 62.0389 67.0997 62.1218 67.3215C62.2132 67.5693 62.3104 67.8247 62.2611 68.0614C62.2118 68.2981 62.0238 68.4912 61.8406 68.6796C61.6738 68.8497 61.503 69.0276 61.4931 69.1906C61.4823 69.3507 61.6246 69.5497 61.7611 69.741C61.9148 69.9553 62.0743 70.1774 62.0882 70.422C62.1031 70.6599 61.9715 70.8982 61.8456 71.1251C61.7294 71.3328 61.6103 71.5511 61.6416 71.7133C61.6709 71.8697 61.8583 72.0218 62.0418 72.172C62.2473 72.3405 62.4586 72.5167 62.5357 72.75C62.6128 72.9833 62.5452 73.2516 62.4835 73.5084C62.4275 73.7346 62.3687 73.9713 62.4354 74.1153C62.507 74.2642 62.7327 74.3685 62.9498 74.4661C63.1861 74.5733 63.4338 74.6863 63.5636 74.8862C63.6982 75.0909 63.7025 75.3642 63.7068 75.628C63.7111 75.863 63.7155 76.1075 63.8196 76.2297C63.9275 76.3537 64.1706 76.3948 64.4032 76.4329C64.6625 76.475 64.9286 76.5181 65.1092 76.6788C65.2898 76.8395 65.3669 77.1016 65.4382 77.356C65.5038 77.5835 65.5723 77.8196 65.7042 77.9102C65.84 78.0027 66.0832 77.9766 66.3178 77.9534C66.5802 77.9274 66.8492 77.9024 67.0663 78.0095C67.2834 78.1167 67.4218 78.3521 67.5573 78.5788C67.6785 78.7816 67.8054 78.992 67.9575 79.0472C68.1087 79.0995 68.3386 79.0139 68.5599 78.9312C68.8061 78.837 69.0619 78.7429 69.2983 78.7926C69.5346 78.8422 69.7277 79.0308 69.9159 79.2146C70.086 79.382 70.2637 79.5533 70.4265 79.5634C70.5863 79.5745 70.7819 79.4332 70.9755 79.2957C71.1356 79.1821 71.3005 79.0637 71.4758 79.0058Z" fill="#4A5161"/>
<path d="M67.2502 74.3125C67.141 74.3485 67.0137 74.3203 66.9316 74.2261C66.559 73.8125 66.2344 73.3511 65.9682 72.8544C64.3331 69.788 65.2898 66.0758 68.0966 64.5762C70.9034 63.0767 74.5158 64.3523 76.1509 67.4188C76.2444 67.5956 76.3331 67.7771 76.4093 67.9596C76.476 68.1132 76.4039 68.2904 76.2506 68.3571C76.0935 68.4218 75.9204 68.3512 75.8536 68.1976C75.7831 68.0324 75.703 67.8672 75.6171 67.7039C74.1404 64.9333 70.8964 63.7691 68.3818 65.1113C65.8702 66.4526 65.0253 69.7988 66.502 72.5694C66.7443 73.0228 67.0403 73.4458 67.3775 73.8199C67.4893 73.9459 67.4822 74.1367 67.3566 74.2485C67.3288 74.2801 67.2904 74.2992 67.2502 74.3125Z" fill="white"/>
<path d="M67.2981 74.4568C67.1286 74.5128 66.9401 74.4633 66.8197 74.3306C66.4376 73.9074 66.1063 73.4354 65.8363 72.9272C65.0293 71.4113 64.8085 69.692 65.2231 68.0917C65.6359 66.4857 66.632 65.1885 68.0282 64.4459C69.4235 63.7004 71.0521 63.5935 72.6153 64.1471C74.1747 64.6987 75.4783 65.8365 76.2854 67.3524C76.3798 67.5321 76.4704 67.7194 76.5505 67.9038C76.6487 68.1333 76.5428 68.4015 76.311 68.5005C76.0734 68.6014 75.8142 68.4922 75.715 68.2598C75.6464 68.1003 75.5701 67.9371 75.4862 67.7795C74.0505 65.0848 70.8954 63.9488 68.4566 65.25C66.0177 66.5512 65.2027 69.8045 66.6393 72.5021C66.8759 72.9478 67.1643 73.3573 67.4958 73.7238C67.6629 73.9113 67.649 74.197 67.4658 74.3662C67.415 74.4054 67.3585 74.4368 67.2981 74.4568ZM68.9848 64.3598C68.706 64.4519 68.432 64.568 68.1694 64.7091C66.8499 65.4136 65.9075 66.642 65.515 68.1646C65.1215 69.6939 65.3319 71.3336 66.1037 72.7813C66.3631 73.2674 66.6792 73.7221 67.0451 74.1251C67.0995 74.1838 67.1981 74.1927 67.2585 74.1344C67.3199 74.079 67.3258 73.9812 67.2675 73.9206C66.9208 73.5368 66.6181 73.1033 66.3691 72.6393C64.8523 69.7957 65.7242 66.3575 68.3087 64.9762C70.8941 63.5978 74.2329 64.7881 75.7468 67.6327C75.8365 67.7979 75.9157 67.9698 75.9871 68.1379C76.0195 68.2166 76.1066 68.2486 76.189 68.2181C76.2254 68.2029 76.2542 68.1742 76.2667 68.1349C76.283 68.0976 76.2821 68.0564 76.2669 68.0199C76.1926 67.8432 76.1048 67.6645 76.0132 67.4935C75.2405 66.0429 73.9952 64.9561 72.5085 64.4316C71.327 64.0106 70.1027 63.9903 68.9848 64.3598Z" fill="#263238"/>
<path d="M100.223 109.398C100.223 109.398 110.951 102.67 113.446 98.0116C113.446 98.0116 114.2 103.833 117.069 106.079C119.938 108.326 130.101 113.42 131.95 114.512C133.799 115.603 137.502 118.386 138.235 118.038C138.971 117.69 139.935 113.537 140.287 112.354C140.639 111.174 141.604 110.177 141.258 108.484C140.911 106.787 139.919 107.009 139.696 107.616C139.473 108.224 137.989 110.379 136.871 111.173C135.753 111.967 134.554 112.862 134.554 112.862C134.554 112.862 130.172 109.729 126.286 105.688C122.4 101.646 117.029 93.4189 115.661 91.8455C114.291 90.276 112.951 90.0799 111.514 90.5547C110.077 91.0296 105.479 92.5493 98.6066 98.7599C91.7338 104.971 93.1635 108.332 94.3439 109.328C95.5224 110.328 97.7885 110.752 100.223 109.398Z" fill="#4592D0"/>
<path d="M138.258 118.196C137.661 118.394 136.089 117.399 133.78 115.872C133.069 115.4 132.396 114.955 131.874 114.649C131.352 114.342 130.165 113.712 128.662 112.915C124.832 110.887 119.044 107.822 116.98 106.204C114.52 104.279 113.603 99.8735 113.364 98.4668C110.543 103.076 100.729 109.262 100.304 109.53C100.302 109.531 100.299 109.532 100.297 109.536C97.8157 110.912 95.4721 110.485 94.2477 109.452C93.9428 109.195 93.2329 108.446 93.2068 107.036C93.1783 105.426 94.0757 102.663 98.508 98.6549C105.405 92.4204 109.968 90.9121 111.468 90.4163C113.132 89.8664 114.503 90.2918 115.777 91.7527C116.238 92.2807 117.136 93.5428 118.277 95.1403C120.612 98.4162 123.811 102.898 126.397 105.59C129.924 109.261 133.912 112.211 134.554 112.68C134.853 112.456 135.852 111.717 136.784 111.055C137.881 110.274 139.347 108.131 139.555 107.567C139.683 107.221 140.008 106.999 140.348 107.024C140.584 107.042 141.155 107.217 141.409 108.459C141.662 109.698 141.253 110.562 140.855 111.393C140.692 111.737 140.537 112.06 140.434 112.404C140.367 112.627 140.277 112.961 140.171 113.354C139.532 115.734 138.907 117.893 138.3 118.179C138.287 118.187 138.273 118.192 138.258 118.196ZM113.4 97.8704C113.423 97.8628 113.45 97.86 113.474 97.8648C113.538 97.8756 113.588 97.9295 113.597 97.9937C113.603 98.0523 114.377 103.78 117.161 105.962C119.205 107.565 124.977 110.621 128.799 112.646C130.306 113.445 131.5 114.076 132.027 114.387C132.554 114.699 133.23 115.146 133.945 115.619C135.45 116.614 137.728 118.116 138.172 117.906C138.704 117.653 139.498 114.694 139.88 113.274C139.988 112.877 140.077 112.541 140.144 112.318C140.253 111.953 140.421 111.603 140.58 111.266C140.957 110.477 141.344 109.662 141.111 108.522C140.962 107.802 140.668 107.356 140.325 107.329C140.122 107.313 139.92 107.456 139.839 107.674C139.615 108.279 138.12 110.476 136.962 111.303C135.857 112.089 134.66 112.98 134.648 112.991C134.594 113.031 134.524 113.032 134.469 112.992C134.425 112.962 130.031 109.804 126.179 105.799C123.577 103.094 120.372 98.5977 118.029 95.3179C116.895 93.728 115.998 92.4717 115.546 91.9533C114.346 90.5771 113.118 90.1905 111.561 90.7053C110.075 91.1963 105.557 92.6894 98.7067 98.8799C94.3569 102.809 93.4769 105.48 93.5046 107.03C93.527 108.314 94.1643 108.988 94.4386 109.22C95.5837 110.186 97.7876 110.576 100.142 109.271C100.385 109.117 110.877 102.487 113.312 97.9439C113.332 97.9085 113.365 97.8818 113.4 97.8704ZM100.223 109.401L100.226 109.4L100.223 109.401Z" fill="#263238"/>
<path d="M141.26 108.486C140.913 106.789 139.921 107.012 139.698 107.619C139.475 108.226 137.991 110.381 136.873 111.175C135.755 111.97 134.556 112.865 134.556 112.865C134.556 112.865 131.142 110.424 127.669 107.074C127.175 109.01 126.14 110.26 125.344 110.973C128.309 112.568 131.072 113.994 131.952 114.514C133.801 115.606 137.504 118.388 138.237 118.041C138.973 117.692 139.937 113.54 140.288 112.356C140.644 111.175 141.61 110.182 141.26 108.486Z" fill="#FEDEA5"/>
<path d="M138.258 118.196C137.661 118.394 136.089 117.399 133.78 115.871C133.069 115.4 132.396 114.955 131.874 114.648C131.352 114.342 130.161 113.71 128.654 112.911C127.634 112.369 126.468 111.755 125.272 111.108C125.229 111.084 125.2 111.043 125.193 110.994C125.187 110.945 125.206 110.897 125.242 110.863C126.011 110.171 127.035 108.948 127.523 107.039C127.537 106.986 127.579 106.947 127.628 106.931C127.68 106.916 127.736 106.93 127.774 106.969C130.89 109.974 133.992 112.271 134.552 112.68C134.851 112.457 135.85 111.718 136.781 111.055C137.878 110.274 139.344 108.132 139.553 107.568C139.681 107.222 140.006 106.999 140.345 107.024C140.581 107.042 141.152 107.218 141.406 108.46C141.66 109.699 141.25 110.562 140.852 111.393C140.689 111.738 140.534 112.061 140.431 112.405C140.365 112.628 140.274 112.961 140.168 113.354C139.53 115.735 138.904 117.893 138.298 118.18C138.287 118.187 138.273 118.191 138.258 118.196ZM125.603 110.942C126.734 111.548 127.828 112.129 128.797 112.64C130.308 113.441 131.502 114.072 132.029 114.383C132.556 114.695 133.233 115.142 133.947 115.615C135.452 116.609 137.73 118.112 138.174 117.901C138.706 117.649 139.5 114.69 139.882 113.27C139.99 112.873 140.079 112.537 140.146 112.314C140.255 111.949 140.423 111.599 140.582 111.262C140.959 110.473 141.347 109.658 141.113 108.518C140.964 107.797 140.67 107.351 140.327 107.324C140.124 107.308 139.922 107.452 139.842 107.67C139.617 108.275 138.122 110.472 136.964 111.298C135.859 112.085 134.662 112.976 134.65 112.987C134.596 113.027 134.526 113.027 134.472 112.988C134.438 112.964 131.132 110.59 127.753 107.359C127.254 109.08 126.345 110.236 125.603 110.942Z" fill="#263238"/>
<path d="M73.4324 77.5447C73.4324 77.5447 75.5535 79.7285 75.9732 80.5259C76.3929 81.3232 75.5729 82.1406 74.6596 82.6756C73.7462 83.2107 72.0174 83.1591 71.0549 85.426C70.0923 87.693 68.8377 96.6089 68.6695 97.9903C68.5042 99.3707 69.3901 100.171 70.84 99.3783C72.2899 98.586 74.6157 91.7345 74.6157 91.7345C74.6157 91.7345 81.8052 96.3005 82.8782 97.4251C83.9521 98.5525 84.4828 100.872 85.1121 103.239C85.7385 105.607 86.5026 109.096 89.5124 111.142C92.5222 113.189 97.1981 112.503 100.219 109.396C103.239 106.293 105.012 98.4352 102.374 96.3456C99.7377 94.2522 95.3618 94.2352 93.3325 92.0978C91.3032 89.9603 91.2544 88.4237 90.3948 85.823C89.5353 83.2222 87.8525 80.0597 87.8525 80.0597C87.8525 80.0597 93.4114 76.625 100.086 73.3551C102.407 72.2175 99.9749 69.9608 98.3869 69.8626C96.3949 69.7383 88.8746 73.1311 86.6842 73.6314C83.5227 74.3568 82.1698 75.51 81.6314 76.2342C81.093 76.9585 80.4143 77.9623 79.6184 78.1487C78.8225 78.335 76.7278 74.8135 76.7278 74.8135C76.7278 74.8135 75.2548 77.1756 73.4324 77.5447Z" fill="#F37630"/>
<path d="M96.3713 111.98C93.9603 112.777 91.3663 112.586 89.4292 111.268C86.539 109.303 85.6921 106.056 85.0733 103.683L84.8053 102.659C84.2502 100.536 83.7237 98.5282 82.772 97.5297C81.8138 96.5206 75.7717 92.6487 74.7008 91.9644C74.312 93.0833 72.2813 98.7638 70.9148 99.5093C70.1932 99.9012 69.5421 99.947 69.0851 99.6348C68.6367 99.3294 68.4301 98.7236 68.5215 97.9682C68.6665 96.7574 69.9338 87.6775 70.9156 85.3627C71.6608 83.6053 72.8419 83.1958 73.7884 82.867C74.0863 82.7653 74.3632 82.6674 74.5826 82.5406C74.9909 82.3002 76.2887 81.4528 75.8385 80.592C75.435 79.8245 73.3444 77.6657 73.3215 77.6445C73.2833 77.606 73.27 77.5465 73.2844 77.4938C73.3018 77.4402 73.343 77.401 73.3995 77.3887C75.1377 77.0347 76.5856 74.7511 76.601 74.73C76.6279 74.686 76.6796 74.6593 76.7304 74.6585C76.782 74.6606 76.8318 74.6857 76.8595 74.7309C77.8615 76.4124 79.1564 78.0929 79.5865 77.9955C80.2588 77.8404 80.8769 77.0004 81.375 76.3278L81.5132 76.1384C82.0103 75.4725 83.3366 74.2386 86.6523 73.4782C87.4731 73.29 89.1046 72.671 90.8318 72.0138C93.7834 70.8945 97.1288 69.626 98.3971 69.702C99.4644 69.7677 100.953 70.7805 101.168 71.8658C101.261 72.3303 101.16 72.9898 100.153 73.4824C94.0956 76.4493 88.8991 79.5916 88.0528 80.1077C88.3743 80.7235 89.7812 83.4756 90.5389 85.7682C90.7273 86.3385 90.8738 86.8492 91.0174 87.3416C91.5196 89.0829 91.882 90.3433 93.4451 91.9863C94.4769 93.0734 96.1359 93.5985 97.8916 94.1556C99.5123 94.671 101.186 95.201 102.469 96.2207C103.238 96.8293 103.695 97.9432 103.792 99.4415C104.009 102.798 102.456 107.311 100.329 109.496C99.2017 110.668 97.8197 111.501 96.3713 111.98ZM74.5713 91.5919C74.6144 91.5776 74.6613 91.5845 74.7005 91.6067C74.9951 91.7937 81.9168 96.1958 82.9907 97.3233C83.9968 98.3805 84.5319 100.424 85.0974 102.588L85.3655 103.612C85.9719 105.938 86.8035 109.12 89.5991 111.02C92.5803 113.048 97.1998 112.288 100.113 109.296C102.155 107.2 103.7 102.702 103.49 99.4741C103.397 98.0641 102.981 97.026 102.281 96.4714C101.042 95.4882 99.393 94.966 97.801 94.4603C96.0062 93.8906 94.3108 93.3519 93.2254 92.2091C91.6127 90.5122 91.2218 89.1558 90.7272 87.4375C90.5845 86.948 90.439 86.4402 90.2524 85.8757C89.4062 83.3152 87.7378 80.1671 87.7215 80.1373C87.6853 80.0663 87.7075 79.9791 87.7765 79.9371C87.8321 79.9027 93.4178 76.4624 100.024 73.2249C100.693 72.8981 100.98 72.4646 100.877 71.9397C100.688 70.9925 99.325 70.079 98.3841 70.0194C97.1799 69.9445 93.7215 71.2569 90.9433 72.3124C89.1307 73.0009 87.5644 73.5953 86.7226 73.7873C83.4988 74.5269 82.2291 75.7005 81.756 76.3329L81.6168 76.5194C81.0909 77.2332 80.4373 78.1201 79.6558 78.3017C78.8714 78.4843 77.2668 75.9923 76.7238 75.1016C76.3379 75.6604 75.1728 77.1988 73.7188 77.6314C74.2462 78.1855 75.749 79.7814 76.1039 80.4596C76.4921 81.2003 75.9821 82.078 74.7324 82.8106C74.489 82.9517 74.1949 83.0553 73.8864 83.1636C72.9936 83.4715 71.8843 83.8573 71.191 85.4921C70.2218 87.7772 68.9641 96.8092 68.8173 98.0142C68.7404 98.6498 68.8974 99.1538 69.2503 99.3918C69.6117 99.6365 70.1498 99.5865 70.7659 99.2518C71.8737 98.6493 73.6726 94.0422 74.4706 91.6922C74.4918 91.6405 74.5254 91.6071 74.5713 91.5919Z" fill="#263238"/>
<path d="M89.9811 72.5058C89.7856 72.58 89.5931 72.6532 89.4053 72.7217C89.7687 73.9561 90.5912 75.9143 92.3555 77.4333C92.5386 77.3312 92.7293 77.2235 92.92 77.1157C91.1517 75.6715 90.334 73.699 89.9811 72.5058Z" fill="#263238"/>
<path d="M92.5371 91.1489C92.412 90.9826 92.2965 90.8163 92.1915 90.6529C88.1634 93.0577 85.4179 97.0959 84.0386 99.5102C84.13 99.7579 84.2148 100.014 84.3004 100.283C85.5387 98.0112 88.325 93.6432 92.5371 91.1489Z" fill="#263238"/>
<path d="M82.0603 96.7363C82.2477 96.8788 82.4159 97.0117 82.5526 97.1263C83.4251 95.4162 85.8112 91.5926 91.0535 88.0006C90.9936 87.8 90.9337 87.5898 90.8737 87.3796C85.4753 91.0103 83.0096 94.8826 82.0603 96.7363Z" fill="#263238"/>
<path d="M74.6148 88.5487C75.6093 88.0954 80.2817 85.7205 85.9037 78.7349C86.8268 79.647 87.6059 80.2489 87.6747 80.3028C87.7559 80.3654 87.8631 80.3811 87.9551 80.3507C87.9695 80.346 87.9858 80.3374 87.9992 80.3297C87.9114 80.1607 87.8599 80.0627 87.8599 80.0627C87.8599 80.0627 87.95 80.0074 88.1168 79.9043C88.0967 79.8726 88.0748 79.8447 88.0442 79.8197C88.0098 79.7927 84.7672 77.2927 83.6607 74.6777C83.4691 74.7729 83.2879 74.8711 83.126 74.9694C83.3481 75.4774 83.6382 75.979 83.9675 76.4548C79.869 82.1862 74.7971 84.7602 73.404 85.3867C73.0128 84.6854 72.6184 84.1384 72.3071 83.7557C72.1518 83.8742 71.9983 84.0079 71.8506 84.1686C72.118 84.5051 72.456 84.978 72.7967 85.5747C72.3195 85.2787 71.7943 85.0881 71.2814 84.9637C71.2046 85.1073 71.1267 85.2576 71.0575 85.4243C71.0431 85.4578 71.0296 85.4942 71.0152 85.5277C71.9711 85.7389 72.9812 86.2006 73.5509 87.172C73.751 87.6905 73.927 88.2617 74.0589 88.8826C73.3957 88.2264 72.2255 87.4151 70.4766 87.3798C70.4312 87.5705 70.3858 87.7708 70.3414 87.9739C72.9961 87.9527 74.1412 89.8937 74.208 90.009C74.2214 90.0301 74.2367 90.0474 74.2548 90.0638C74.2915 90.3967 74.3148 90.7372 74.3209 91.093C73.5522 90.5324 71.9734 89.6421 69.9569 89.8581C69.9191 90.0623 69.8785 90.2674 69.8418 90.4744C72.2089 90.1234 73.9104 91.4907 74.3156 91.8583C74.3094 92.1192 74.307 92.3723 74.3036 92.6226C74.5028 92.0776 74.6203 91.7289 74.6203 91.7289C74.6203 91.7289 74.7293 91.7983 74.9186 91.9178C74.9206 91.8564 74.9207 91.7989 74.9228 91.7375C74.9594 90.5657 74.8332 89.4989 74.6148 88.5487ZM84.3361 76.9719C84.7009 77.4488 85.0906 77.895 85.4757 78.2981C80.1328 84.9519 75.5694 87.4153 74.4579 87.9488C74.379 87.6714 74.2914 87.4064 74.201 87.152C74.1982 87.1146 74.1877 87.0733 74.1696 87.0378C74.1619 87.0243 74.1543 87.0109 74.1457 86.9945C74 86.6114 73.8436 86.2542 73.6815 85.9276C75.1714 85.2466 80.2195 82.6486 84.3361 76.9719Z" fill="#263238"/>
<path d="M94.8575 93.1835C94.6538 93.0783 94.4587 92.9702 94.2722 92.8498C89.7441 95.9309 86.737 100.084 85.041 102.958C85.0657 103.052 85.0904 103.146 85.1151 103.24C85.1607 103.417 85.2092 103.602 85.2577 103.787C86.878 100.926 89.9873 96.4064 94.8575 93.1835Z" fill="#263238"/>
<path d="M90.1888 85.2194C90.1203 85.0312 90.0479 84.841 89.9755 84.6509C82.7309 87.4798 80.3474 92.4686 79.5816 94.9836C79.7585 95.1041 79.9315 95.2226 80.1036 95.3382C80.7589 93.0291 82.9682 88.0435 90.1888 85.2194Z" fill="#263238"/>
<path d="M93.7651 71.0887C93.5687 71.16 93.3723 71.2313 93.1731 71.3035C93.4081 72.5836 93.9688 74.2704 95.2611 75.8369C95.4422 75.7387 95.6272 75.6424 95.814 75.5423C94.5236 74.0104 93.9858 72.3256 93.7651 71.0887Z" fill="#263238"/>
<path d="M85.92 73.8287C86.6163 75.2216 87.8464 77.2846 89.6707 78.9754C89.8442 78.8734 90.0282 78.7647 90.2208 78.6531C88.4537 77.0583 87.2321 75.05 86.5244 73.6705C86.3185 73.7226 86.1154 73.7737 85.92 73.8287Z" fill="#263238"/>
<path d="M88.8991 82.1664C88.8095 81.9724 88.7208 81.7908 88.6378 81.617C80.6199 85.3851 77.6008 90.3221 76.5141 92.9559C76.6852 93.0686 76.8631 93.1824 77.0466 93.3038C78.0757 90.8136 81.0153 85.887 88.8991 82.1664Z" fill="#263238"/>
<path d="M100.223 109.398C102.722 106.831 104.365 101.01 103.364 97.8938C103.149 97.3129 102.837 96.8314 102.417 96.4944C102.061 96.2094 101.676 95.9214 101.273 95.6295C99.9785 94.9329 98.4638 94.5166 97.0479 94.0518C91.4994 98.5404 88.0131 105.034 86.557 107.592C87.1988 108.917 88.1097 110.187 89.5161 111.144C92.5259 113.191 97.2018 112.505 100.223 109.398Z" fill="#4592D0"/>
<path d="M96.3712 111.98C93.9601 112.777 91.3661 112.587 89.4291 111.268C88.1632 110.409 87.1765 109.227 86.4184 107.657C86.3974 107.612 86.3985 107.558 86.4225 107.515L86.6943 107.035C88.3195 104.159 91.6986 98.1801 96.9508 93.9332C96.9911 93.9007 97.0418 93.8903 97.0925 93.9087C97.3537 93.9949 97.6168 94.0772 97.8838 94.1615C99.0596 94.5365 100.278 94.923 101.344 95.4971C101.805 95.8304 102.181 96.1116 102.508 96.3774C102.934 96.7192 103.269 97.2123 103.502 97.8412C104.509 100.975 102.905 106.856 100.329 109.506C99.2016 110.668 97.8195 111.502 96.3712 111.98ZM86.7268 107.596C87.4563 109.08 88.3972 110.2 89.6009 111.017C92.582 113.044 97.2016 112.284 100.115 109.293C102.63 106.707 104.195 100.979 103.218 97.9381C103.007 97.3658 102.703 96.9199 102.321 96.6117C101.996 96.3518 101.626 96.0715 101.185 95.7507C100.158 95.1989 98.9576 94.8162 97.7932 94.447C97.554 94.3695 97.3158 94.2949 97.0795 94.2165C91.9097 98.4234 88.5691 104.336 86.9621 107.18L86.7268 107.596Z" fill="#4592D0"/>
<path d="M67.2681 73.1314C67.1465 73.178 67.0334 73.241 66.9299 73.3231C66.833 73.3966 66.7505 73.4846 66.6805 73.5812L70.317 77.8136C70.3352 77.8012 70.3544 77.7917 70.3716 77.7764C70.549 77.6379 70.6824 77.4628 70.7776 77.2589L67.2681 73.1314Z" fill="white"/>
<path d="M70.3756 77.9439C70.3152 77.9638 70.2367 77.9578 70.1985 77.9097L66.562 73.6774C66.5152 73.6225 66.5115 73.5439 66.5566 73.4874C66.641 73.3765 66.7331 73.2789 66.8347 73.2006C66.9488 73.1118 67.0753 73.0412 67.2114 72.9899C67.2717 72.97 67.3397 72.9826 67.3817 73.0326L70.8844 77.1591C70.9217 77.2043 70.9302 77.2686 70.9061 77.3213C70.7956 77.5559 70.6459 77.7491 70.458 77.8943C70.4426 77.9057 70.4292 77.9134 70.4139 77.9248C70.4005 77.9324 70.3899 77.9391 70.3756 77.9439ZM66.8762 73.5767L70.3331 77.6033C70.4386 77.5077 70.5221 77.4035 70.5893 77.279L67.2232 73.315C67.1494 73.3522 67.0833 73.3932 67.02 73.4429C66.9692 73.4821 66.9203 73.527 66.8762 73.5767Z" fill="#263238"/>
<path d="M67.2681 73.1309C67.1464 73.1775 67.0334 73.2404 66.9298 73.3226C66.09 73.9739 66.179 75.4971 67.1302 76.7258C68.0785 77.9555 69.5279 78.4253 70.3687 77.7768C70.5461 77.6383 70.6795 77.4632 70.7747 77.2593L67.2681 73.1309Z" fill="white"/>
<path d="M70.0063 78.137C69.6356 78.2595 69.2019 78.2495 68.7418 78.1013C68.1027 77.894 67.487 77.4393 67.0076 76.8183C66.5291 76.2001 66.2462 75.4885 66.2053 74.8151C66.1635 74.1197 66.3886 73.5469 66.8354 73.2012C66.9495 73.1124 67.076 73.0418 67.212 72.9905C67.2724 72.9705 67.3403 72.9832 67.3823 73.0332L70.8851 77.1597C70.9223 77.2049 70.9308 77.2692 70.9068 77.3218C70.7962 77.5564 70.6465 77.7497 70.4586 77.8948C70.3215 78.0009 70.1701 78.0828 70.0063 78.137ZM67.2267 73.3147C67.1529 73.3518 67.0868 73.3929 67.0235 73.4425C66.6582 73.7262 66.4764 74.208 66.5117 74.797C66.5479 75.408 66.8118 76.0619 67.2521 76.632C67.6923 77.2022 68.2583 77.6221 68.84 77.81C69.4035 77.9912 69.9148 77.9372 70.2772 77.6545C70.4037 77.5552 70.5121 77.4299 70.5957 77.2777L67.2267 73.3147Z" fill="#263238"/>
<path d="M74.971 67.3752C75.0477 67.27 75.137 67.1734 75.2415 67.0941C76.0813 66.4428 77.5307 66.9126 78.4791 68.1422C79.4302 69.3709 79.5193 70.8942 78.6823 71.5446C78.5049 71.6831 78.2999 71.7668 78.0806 71.8073L74.971 67.3752Z" fill="white"/>
<path d="M78.3276 71.9009C78.2557 71.9247 78.182 71.9426 78.1044 71.9587C78.047 71.9681 77.9886 71.9459 77.9533 71.8968L74.8436 67.4647C74.8074 67.4128 74.8065 67.3428 74.843 67.2892C74.9275 67.1687 75.0301 67.0645 75.1442 66.9757C76.0483 66.2775 77.5963 66.7563 78.5952 68.0522C79.0737 68.6704 79.3595 69.381 79.3975 70.0554C79.4393 70.7508 79.2171 71.3226 78.7703 71.6683C78.6409 71.7686 78.4943 71.8458 78.3276 71.9009ZM78.1424 71.6395C78.31 71.5969 78.4585 71.5254 78.585 71.4261C78.9503 71.1424 79.1321 70.6606 79.0969 70.0716C79.0597 69.4578 78.7967 68.8067 78.3565 68.2366C77.4598 67.0761 76.1003 66.6181 75.3285 67.215C75.2652 67.2647 75.2067 67.3192 75.154 67.3814L78.1424 71.6395Z" fill="#263238"/>
<path d="M78.3277 71.9013C78.2559 71.9251 78.1821 71.9431 78.1046 71.9591C78.0471 71.9685 77.9888 71.9463 77.9534 71.8973L74.8438 67.4652C74.8075 67.4133 74.8067 67.3433 74.8432 67.2897C74.9276 67.1691 75.0303 67.0649 75.1443 66.9761C75.246 66.8978 75.361 66.831 75.4903 66.7787C75.5574 66.7501 75.632 66.7734 75.674 66.833L78.8504 71.4187C78.8943 71.4841 78.8846 71.5703 78.8242 71.6191C78.7973 71.6439 78.7858 71.6573 78.7695 71.6659C78.641 71.769 78.4944 71.8463 78.3277 71.9013ZM78.1425 71.6399C78.2843 71.6058 78.4088 71.5487 78.521 71.4733L75.4973 67.1086C75.4379 67.141 75.3795 67.1763 75.3287 67.2155C75.2654 67.2651 75.2069 67.3196 75.1541 67.3818L78.1425 71.6399Z" fill="#263238"/>
<path d="M80.9458 77.1413C80.5515 77.6166 80.1094 78.0343 79.6238 78.1469C78.8279 78.3332 76.7332 74.8117 76.7332 74.8117C76.7332 74.8117 75.2564 77.1719 73.4339 77.541C73.4339 77.541 75.5551 79.7248 75.9748 80.5222C76.3154 81.1668 75.8412 81.8251 75.1653 82.336C75.8863 83.2925 77.8909 85.3647 80.7384 83.5834C83.2275 82.0291 81.9668 78.9188 80.9458 77.1413Z" fill="#FEDEA5"/>
<path d="M79.7102 84.2449C77.3509 85.0247 75.698 83.3027 75.04 82.4307C75.0162 82.3971 75.0066 82.3587 75.0096 82.3194C75.0154 82.2791 75.0356 82.2437 75.0691 82.2199C75.5025 81.8913 76.1786 81.2462 75.8361 80.5958C75.4326 79.8282 73.3421 77.6695 73.3191 77.6483C73.2809 77.6098 73.2676 77.5503 73.2821 77.4976C73.2994 77.4439 73.3407 77.4048 73.3972 77.3925C75.1354 77.0384 76.5833 74.7548 76.5987 74.7338C76.6255 74.6898 76.6773 74.6631 76.728 74.6623C76.7797 74.6644 76.8295 74.6895 76.8571 74.7346C77.8592 76.4161 79.1541 78.0967 79.5841 77.9993C79.9596 77.9104 80.3565 77.6067 80.8237 77.0433C80.8554 77.0041 80.9033 76.9851 80.9521 76.9881C81.0009 76.9911 81.0459 77.021 81.0697 77.0642C82.0926 78.8475 83.422 82.0789 80.8093 83.7123C80.4307 83.9557 80.0637 84.1281 79.7102 84.2449ZM75.3752 82.3647C76.145 83.3339 78.0314 85.0969 80.6547 83.4568C82.9665 82.0122 81.871 79.122 80.9207 77.4042C80.6032 77.7647 80.163 78.1786 79.6563 78.2949C78.8719 78.4775 77.2674 75.9856 76.7243 75.0948C76.3384 75.6536 75.1734 77.192 73.7193 77.6246C74.2467 78.1787 75.7496 79.7746 76.1044 80.4528C76.4211 81.0542 76.1595 81.7285 75.3752 82.3647Z" fill="#FEDEA5"/>
<path d="M78.0619 76.7971C77.7324 76.3597 77.4164 75.8955 77.1759 75.5245C77.0097 75.3207 76.8454 75.1034 76.684 74.8852C76.4306 75.2661 75.0742 77.2095 73.428 77.5427C73.428 77.5427 74.1446 78.2835 74.8276 79.0577C75.5724 79.0352 76.5779 78.8754 77.1995 78.2387C77.5927 77.8371 77.8675 77.3086 78.0619 76.7971Z" fill="#263238"/>
<path d="M76.2363 78.9812C75.7593 79.1388 75.2547 79.1938 74.8354 79.2078C74.7913 79.2096 74.7464 79.1893 74.7168 79.1575C74.0433 78.3929 73.3276 77.6551 73.3219 77.6474C73.2837 77.6089 73.2704 77.5494 73.2849 77.4967C73.3022 77.443 73.3434 77.4039 73.3999 77.3916C74.9839 77.0725 76.3076 75.175 76.5592 74.798C76.587 74.7568 76.633 74.732 76.6837 74.7312C76.7345 74.7304 76.7804 74.7536 76.809 74.7921C76.9781 75.0237 77.1414 75.2381 77.2951 75.4237C77.6063 75.9023 77.9099 76.3387 78.1821 76.6992C78.2146 76.7396 78.2202 76.7952 78.2048 76.845C77.9662 77.4734 77.6666 77.975 77.3145 78.3373C77.0124 78.648 76.6329 78.8501 76.2363 78.9812ZM74.8972 78.903C75.6018 78.8746 76.5269 78.7126 77.0938 78.1323C77.4026 77.813 77.6715 77.3727 77.888 76.822C77.5575 76.3817 77.2492 75.9213 77.0468 75.608C76.936 75.4753 76.8138 75.3176 76.6878 75.1484C76.2731 75.7359 75.1311 77.2092 73.7173 77.6285C73.9686 77.8873 74.4396 78.3865 74.8972 78.903Z" fill="#263238"/>
<path d="M67.1309 72.1381C67.1309 72.1381 69.5082 76.0327 70.5807 76.9242C71.6541 77.8186 74.6208 78.3173 75.8601 78.0642C77.0993 77.8112 77.453 76.0554 77.7591 74.6284C78.0653 73.2014 77.9495 72.147 77.1596 70.6925C76.3668 69.239 74.6429 67.0804 73.5 65.9758C72.7595 65.2589 70.3244 65.0765 68.5215 66.2187C66.7187 67.3608 66.0369 70.0046 67.1309 72.1381Z" fill="#FEDEA5"/>
<path d="M76.0697 78.1675C76.0122 78.1865 75.9538 78.2026 75.8906 78.2139C74.5498 78.4877 71.5755 77.9468 70.4858 77.0418C69.4048 76.1436 67.1019 72.3777 67.0045 72.2182C67.0036 72.2153 66.9998 72.2134 66.9979 72.2077C65.8876 70.0444 66.5361 67.2998 68.4415 66.0918C70.3316 64.8952 72.8374 65.1277 73.6057 65.8706C74.7247 66.9511 76.4744 69.1203 77.2939 70.6258C78.0705 72.0496 78.235 73.1453 77.9086 74.6653L77.8902 74.7448C77.5995 76.1028 77.2393 77.7809 76.0697 78.1675ZM67.2623 72.0627C67.3587 72.2194 69.6512 75.9535 70.6758 76.8065C71.6833 77.646 74.5609 78.1741 75.827 77.9154C76.9446 77.6898 77.3039 76.0184 77.5936 74.6767L77.6119 74.5972C77.9268 73.1386 77.7736 72.1349 77.0275 70.7649C76.2223 69.2835 74.4974 67.1509 73.3956 66.0837C72.7124 65.4246 70.3463 65.2386 68.6047 66.3445C66.8258 67.4724 66.2256 70.0349 67.2623 72.0627Z" fill="#263238"/>
<path d="M72.3878 73.2121C72.3792 73.2149 72.3706 73.2178 72.361 73.2177C72.2787 73.229 72.2032 73.1741 72.189 73.0925C72.1871 73.0772 72.1322 72.7087 72.3903 72.3998C72.6033 72.1473 72.9549 72.0151 73.4336 72.0071C73.5159 72.0054 73.5857 72.0718 73.5884 72.1572C73.5902 72.2396 73.5211 72.3104 73.4388 72.312C73.052 72.3185 72.7771 72.4125 72.6236 72.5942C72.4537 72.7941 72.4858 73.0455 72.4868 73.0484C72.501 73.1204 72.4568 73.1893 72.3878 73.2121Z" fill="#263238"/>
<path d="M73.3692 74.7432C72.6852 74.9693 72.0871 74.8571 72.0728 74.8522C71.9905 74.8347 71.9389 74.7559 71.9534 74.6744C71.9708 74.592 72.0494 74.5405 72.1308 74.5551C72.2198 74.5736 74.3309 74.9621 74.9255 72.3631C74.9429 72.2807 75.0253 72.2311 75.1076 72.2486C75.1899 72.2662 75.2395 72.3488 75.2221 72.4312C74.8872 73.9061 74.0819 74.5077 73.3692 74.7432Z" fill="#263238"/>
<path d="M70.2322 73.787C69.9075 73.8943 69.6644 73.8532 69.6443 73.8503C69.4816 73.821 69.3718 73.6624 69.3999 73.4966C69.4289 73.3336 69.5842 73.2248 69.746 73.2512C69.7833 73.258 70.4533 73.3273 70.9675 72.2117C71.0387 72.0604 71.2169 71.9919 71.368 72.0634C71.5191 72.1348 71.5877 72.3135 71.5166 72.4647C71.1244 73.3228 70.6202 73.6587 70.2322 73.787Z" fill="#263238"/>
<path d="M73.9596 70.9451C73.6636 71.0429 73.3668 71.0803 73.137 71.0795C72.9714 71.08 72.8338 70.9434 72.8351 70.7736C72.8344 70.6077 72.9706 70.47 73.1372 70.4725C73.1918 70.4736 74.4813 70.4595 74.5195 69.5045C74.5246 69.3367 74.6665 69.2067 74.834 69.212C75.0015 69.2174 75.1315 69.3597 75.1264 69.5275C75.0952 70.3397 74.5315 70.756 73.9596 70.9451Z" fill="#263238"/>
<path d="M68.8126 72.5211C68.7379 72.5458 68.6556 72.5091 68.6251 72.4361C68.6108 72.4025 68.2744 71.5872 68.6386 70.895C68.8605 70.4766 69.2822 70.1998 69.898 70.0762C69.9785 70.0592 70.0597 70.1122 70.0778 70.1957C70.0949 70.2763 70.0449 70.3567 69.9587 70.3756C69.4358 70.4813 69.0822 70.7036 68.9063 71.0397C68.6085 71.6046 68.9001 72.3133 68.903 72.3219C68.9354 72.4007 68.9007 72.4888 68.8222 72.5211C68.8212 72.5182 68.8155 72.5201 68.8126 72.5211Z" fill="#263238"/>
<path d="M71.7189 69.0654C71.6844 69.0768 71.6461 69.0767 71.6088 69.0603C71.5333 69.0246 71.498 68.9372 71.5326 68.8587C71.5384 68.8472 72.142 67.5583 73.762 67.9365C73.8443 67.9541 73.8939 68.0367 73.8766 68.1191C73.8592 68.2015 73.7767 68.2511 73.6944 68.2336C72.3127 67.9108 71.8129 68.9737 71.8071 68.9852C71.7889 69.0264 71.7563 69.0531 71.7189 69.0654Z" fill="#263238"/>
<path d="M65.3294 74.9206C65.3294 74.9206 65.8402 77.1702 66.2356 77.6625C66.631 78.1548 69.2225 79.6401 69.7359 80.0167C70.2493 80.3933 70.3411 80.4397 70.0816 82.0078C69.8221 83.5759 66.8575 94.1464 67.3654 96.397C67.8762 98.6466 68.6672 100.567 70.8416 99.3821C73.0188 98.1961 72.4199 91.9183 72.3109 88.2899C72.2018 84.6615 71.8363 80.0254 71.5336 79.1095C71.2318 78.1965 67.5304 76.8928 67.1258 76.7294C66.724 76.5651 66.1881 75.4163 65.9797 74.7856C65.7722 74.1481 65.4216 74.264 65.3294 74.9206Z" fill="#FEDEA5"/>
<path d="M70.3284 99.7709C69.8284 99.9361 69.3804 99.9308 68.9901 99.7531C67.9925 99.3001 67.5348 97.8189 67.2206 96.4244C66.8341 94.7151 68.3844 88.4107 69.3105 84.6447C69.6212 83.3759 69.87 82.3736 69.934 81.9786C70.176 80.5217 70.1177 80.4803 69.6665 80.147C69.4858 80.015 69.0928 79.7711 68.6357 79.4877C67.6413 78.8707 66.4001 78.1053 66.1184 77.7543C65.7125 77.2495 65.2339 75.1842 65.1826 74.9519C65.1798 74.9337 65.1769 74.9154 65.1798 74.8953C65.24 74.4793 65.4032 74.2305 65.6253 74.2082C65.746 74.197 65.9708 74.2505 66.1289 74.7286C66.3802 75.489 66.8962 76.4621 67.187 76.5801C67.2282 76.5984 67.3076 76.6265 67.4166 76.6671C70.1268 77.6914 71.4829 78.4477 71.6827 79.0525C72.0016 80.0174 72.3594 84.7168 72.4676 88.2751C72.483 88.7365 72.5022 89.2381 72.5271 89.7666C72.6858 93.4201 72.9014 98.4221 70.9186 99.5023C70.7126 99.6215 70.5152 99.7091 70.3284 99.7709ZM65.4795 74.9145C65.6266 75.5527 66.0467 77.1902 66.3495 77.5661C66.5987 77.8767 67.9173 78.6932 68.7904 79.2321C69.2713 79.53 69.6481 79.7633 69.8211 79.8914C70.4176 80.3268 70.4844 80.4901 70.2278 82.0285C70.161 82.434 69.9111 83.443 69.5995 84.7185C68.6811 88.4596 67.1414 94.719 67.5117 96.3601C67.7946 97.602 68.2284 99.0784 69.1122 99.4764C69.5656 99.6811 70.1076 99.6042 70.7698 99.2448C72.5877 98.2542 72.3729 93.3606 72.2188 89.7887C72.1958 89.2563 72.1728 88.7528 72.1603 88.2905C72.0441 84.4377 71.6695 79.9962 71.3906 79.1523C71.2783 78.8124 70.4773 78.1539 67.305 76.9564C67.195 76.9129 67.1118 76.8829 67.0678 76.8655C66.578 76.6663 66.0252 75.4082 65.8329 74.8264C65.7482 74.5701 65.6621 74.5123 65.643 74.5122C65.6248 74.515 65.5308 74.5972 65.4795 74.9145Z" fill="#263238"/>
<path d="M72.3119 88.2857C72.3011 87.9251 72.2874 87.5558 72.2719 87.1807L68.891 86.9915C68.0216 90.6109 67.056 95.029 67.3665 96.3927C67.8773 98.6424 68.6682 100.563 70.8426 99.3779C73.0199 98.1919 72.4219 91.9169 72.3119 88.2857Z" fill="#F26F1F"/>
<path d="M70.3287 99.7712C69.8286 99.9364 69.3806 99.9311 68.9904 99.7534C67.9927 99.3004 67.5351 97.8192 67.2208 96.4247C66.898 94.9947 67.9368 90.3352 68.7483 86.9554C68.7666 86.8854 68.8299 86.8357 68.9046 86.8398L72.2845 87.0262C72.362 87.0293 72.4242 87.0919 72.4278 87.1705C72.4434 87.5455 72.458 87.9177 72.4688 88.2783C72.4842 88.7397 72.5034 89.2413 72.5282 89.7698C72.687 93.4233 72.9026 98.4253 70.9198 99.5055C70.7128 99.6218 70.5155 99.7094 70.3287 99.7712ZM69.0102 87.1499C68.2113 90.4905 67.2082 95.0072 67.5148 96.3595C67.7978 97.6014 68.2315 99.0777 69.1153 99.4757C69.5687 99.6805 70.1107 99.6036 70.7729 99.2442C72.5908 98.2536 72.376 93.3599 72.2219 89.788C72.1989 89.2557 72.176 88.7521 72.1634 88.2898C72.1544 87.9733 72.1436 87.651 72.1279 87.324L69.0102 87.1499Z" fill="#263238"/>
<path d="M68.2789 89.6442C68.274 89.6682 68.2692 89.6921 68.2644 89.7161C68.2518 89.7746 68.2383 89.8301 68.2258 89.8886C68.1978 90.0161 68.1726 90.1426 68.1437 90.2672C68.97 90.1921 70.407 90.1229 72.3904 90.231C72.3822 90.0228 72.373 89.8214 72.3647 89.6228C70.5173 89.521 69.1415 89.5732 68.2789 89.6442Z" fill="#263238"/>
<path d="M72.0222 97.5951C72.0868 97.3756 72.1428 97.1399 72.1921 96.8936C70.2848 97.5655 68.749 97.6833 67.7018 97.6396C67.7741 97.8585 67.8522 98.0659 67.9361 98.2619C68.9585 98.2786 70.3421 98.144 72.0222 97.5951Z" fill="#263238"/>
<path d="M67.5325 93.4724C67.5228 93.5299 67.5131 93.5874 67.5063 93.644C67.4976 93.7044 67.4869 93.7686 67.4782 93.829C67.4636 93.9297 67.4529 94.0226 67.4403 94.1195C68.6097 93.8576 70.4281 93.6016 72.4648 93.8518C72.4681 93.6494 72.4704 93.4442 72.4698 93.2399C70.4943 93.0015 68.7363 93.2183 67.5325 93.4724Z" fill="#263238"/>
<path d="M89.5385 73.5892C89.1824 73.5536 88.812 73.5131 88.4406 73.4697L88.4958 70.0778C92.1616 69.47 96.6325 68.8198 97.9653 69.2259C100.17 69.8967 102.025 70.8233 100.689 72.9135C99.3521 75.0037 93.1449 73.9595 89.5385 73.5892Z" fill="#F26F1F"/>
<path d="M99.4144 73.9574C97.3511 74.6393 93.7849 74.227 91.0073 73.9054C90.4809 73.8462 89.9832 73.787 89.5248 73.7405C89.1649 73.7029 88.7983 73.6643 88.4241 73.6219C88.3475 73.612 88.2873 73.5457 88.2903 73.468L88.3455 70.0761C88.3466 70.0022 88.3965 69.941 88.4722 69.9288C91.8957 69.3596 96.6099 68.6545 98.0125 69.0791C99.374 69.4949 100.818 70.0558 101.2 71.0861C101.405 71.6382 101.277 72.2813 100.821 72.9943C100.532 73.4412 100.041 73.7503 99.4144 73.9574ZM89.5531 73.4404C90.0116 73.487 90.5121 73.5451 91.0395 73.6073C94.5856 74.0167 99.4439 74.577 100.561 72.8342C100.969 72.1978 101.082 71.6621 100.911 71.1945C100.575 70.2833 99.1371 69.7425 97.922 69.3742C96.5968 68.9719 92.0272 69.6516 88.6449 70.2103L88.595 73.3385C88.9185 73.3722 89.2392 73.4068 89.5531 73.4404Z" fill="#263238"/>
<path d="M76.7261 65.6555C76.7261 65.6555 78.9305 66.3263 79.3912 66.7555C79.8527 67.1875 81.1448 69.8818 81.4827 70.4218C81.8206 70.9619 81.8616 71.057 83.4424 70.9115C85.0222 70.7631 95.7618 68.5555 97.9633 69.2272C100.168 69.8979 102.023 70.8245 100.687 72.9148C99.3501 75.005 93.1429 73.9608 89.5364 73.5905C85.9299 73.2202 81.3399 72.5265 80.4503 72.1592C79.5607 71.7919 78.5272 67.9994 78.394 67.5866C78.2607 67.1738 77.1543 66.5555 76.5382 66.3023C75.928 66.0471 76.0693 65.7033 76.7261 65.6555Z" fill="#FEDEA5"/>
<path d="M99.4144 73.9571C97.3511 74.639 93.7849 74.2266 91.0074 73.9051C90.481 73.8458 89.9833 73.7867 89.5248 73.7401C85.9882 73.3787 81.334 72.6838 80.3966 72.2972C79.8093 72.0536 79.1495 70.6455 78.3256 67.8636C78.2923 67.7532 78.2686 67.6716 78.2543 67.6284C78.1582 67.3279 77.2249 66.7418 76.4865 66.4364C76.0216 66.245 75.9837 66.0147 76.0021 65.8968C76.037 65.6745 76.2986 65.5305 76.7161 65.5011C76.7352 65.5012 76.7543 65.5013 76.7725 65.508C77.0022 65.5759 79.0228 66.2019 79.4968 66.6427C79.8284 66.9516 80.5009 68.2437 81.0446 69.2812C81.2936 69.7548 81.5063 70.1669 81.6142 70.3389C81.9244 70.8338 81.9606 70.8953 83.4294 70.7581C83.8277 70.7191 84.8447 70.5459 86.1299 70.3256C89.9451 69.6685 96.3334 68.5699 98.0097 69.0797C99.3711 69.4955 100.816 70.0564 101.198 71.0867C101.402 71.6388 101.274 72.2819 100.818 72.9949C100.532 73.4409 100.044 73.7491 99.4144 73.9571ZM76.4512 65.8571C76.3391 65.8941 76.3026 65.9381 76.2997 65.9486C76.2987 65.9649 76.3512 66.0562 76.599 66.1596C77.1634 66.3916 78.377 67.0352 78.5397 67.5373C78.554 67.5805 78.5788 67.665 78.613 67.7782C79.5805 71.0334 80.1791 71.8802 80.5082 72.0175C81.328 72.3567 85.7227 73.048 89.5522 73.4372C90.0106 73.4837 90.5112 73.5419 91.0386 73.604C94.5847 74.0134 99.443 74.5738 100.56 72.831C100.968 72.1946 101.081 71.6588 100.91 71.1912C100.574 70.28 99.1361 69.7393 97.921 69.371C96.3156 68.8824 89.9722 69.9726 86.181 70.625C84.8872 70.8481 83.8674 71.0223 83.4566 71.0622C81.9045 71.2078 81.7477 71.1286 81.3687 70.5222C81.2418 70.3214 81.0377 69.9256 80.7734 69.4251C80.2975 68.5154 79.5811 67.1388 79.2877 66.8684C78.9332 66.5383 77.3335 65.9999 76.7097 65.8099C76.5977 65.8182 76.5144 65.8362 76.4512 65.8571Z" fill="#263238"/>
<path d="M91.686 104.42C91.6429 104.434 91.5902 104.429 91.5511 104.398C91.4841 104.35 91.468 104.253 91.516 104.186C91.516 104.186 91.7541 103.855 92.1485 103.312C92.1965 103.245 92.2933 103.229 92.3611 103.28C92.428 103.328 92.4441 103.425 92.3933 103.493C91.9978 104.033 91.7636 104.366 91.7636 104.366C91.7406 104.393 91.7147 104.411 91.686 104.42Z" fill="white"/>
<path d="M90.7786 105.292C90.7786 105.292 97.8508 94.8627 104.339 89.7345C110.827 84.6093 113.919 85.6099 114.298 88.3597C114.675 91.1104 114.085 100.57 113.021 106.033C111.958 111.496 110.059 120.536 110.059 120.536C110.059 120.536 116.21 124.998 116.815 125.545C117.419 126.09 114.675 127.106 113.303 126.812C112.212 126.578 112.266 126.682 109.858 126.033C105.778 124.935 105.3 124.134 105.523 123.207C106.241 120.239 107.408 117.569 107.168 114.354C106.73 108.515 106.915 100.704 107.447 101.378C107.447 101.378 105.236 105.942 100.732 109.348C96.2251 112.754 92.7699 113.401 89.5231 111.138" fill="#73B4EA"/>
<path d="M115.695 126.689C114.887 126.956 113.901 127.096 113.267 126.964C112.949 126.897 112.729 126.858 112.515 126.819C112.004 126.73 111.52 126.644 109.816 126.185C105.757 125.092 105.113 124.253 105.373 123.177C105.555 122.417 105.77 121.669 105.981 120.947C106.605 118.783 107.192 116.742 107.015 114.373C106.744 110.737 106.672 105.157 106.944 102.585C105.986 104.17 103.943 107.114 100.819 109.475C96.1875 112.977 92.675 113.528 89.4291 111.268C89.3593 111.221 89.3442 111.127 89.3912 111.057C89.4383 110.987 89.535 110.971 89.6019 111.02C92.7206 113.193 96.1249 112.643 100.634 109.233C104.225 106.519 106.364 103.029 107.056 101.785C107.124 101.449 107.205 101.243 107.305 101.207C107.339 101.196 107.455 101.161 107.559 101.292C107.597 101.338 107.601 101.4 107.577 101.453C107.573 101.46 107.482 101.647 107.303 101.965C107.037 103.666 106.934 109.326 107.312 114.355C107.494 116.777 106.896 118.846 106.268 121.035C106.06 121.755 105.847 122.5 105.666 123.253C105.494 123.968 105.676 124.76 109.892 125.894C111.583 126.351 112.059 126.433 112.565 126.525C112.781 126.562 113.005 126.603 113.33 126.672C114.472 126.914 116.499 126.228 116.732 125.768C116.753 125.725 116.753 125.703 116.711 125.666C116.121 125.133 110.031 120.711 109.969 120.668C109.919 120.633 109.896 120.574 109.909 120.515C109.927 120.426 111.82 111.414 112.871 106.013C113.946 100.488 114.519 91.1012 114.148 88.3869C114.016 87.4178 113.544 86.7431 112.79 86.4395C111.796 86.0364 109.389 85.9471 104.431 89.8603C98.0365 94.913 90.975 105.278 90.904 105.382C90.8569 105.452 90.764 105.47 90.6942 105.422C90.6244 105.375 90.6064 105.282 90.6535 105.212C90.7245 105.109 97.8139 94.7023 104.244 89.6219C108.005 86.6504 111.08 85.4203 112.901 86.1569C113.762 86.505 114.296 87.2614 114.447 88.3456C114.822 91.081 114.247 100.52 113.167 106.068C112.175 111.169 110.431 119.49 110.225 120.478C110.979 121.024 116.339 124.923 116.914 125.439C117.055 125.568 117.089 125.736 117.004 125.905C116.853 126.191 116.33 126.479 115.695 126.689Z" fill="#73B4EA"/>
<path d="M93.2744 102.253C93.2284 102.268 93.1777 102.259 93.1366 102.231C93.0687 102.18 93.0565 102.085 93.1045 102.018C94.5882 100.036 96.6965 97.3199 98.3271 95.6468C98.3837 95.5866 98.4823 95.586 98.5397 95.6437C98.6008 95.7033 98.6006 95.7992 98.5431 95.8566C96.925 97.5191 94.8253 100.223 93.3463 102.2C93.329 102.225 93.3032 102.243 93.2744 102.253Z" fill="white"/>
<path d="M104.896 105.166C104.856 105.179 104.81 105.175 104.77 105.15C104.698 105.107 104.676 105.012 104.72 104.94L106.496 102.049C106.469 101.445 106.274 95.3594 108.95 91.2739C108.997 91.2041 109.089 91.1833 109.159 91.2305C109.229 91.2777 109.249 91.3698 109.202 91.4397C106.455 95.6352 106.797 102.014 106.802 102.076C106.802 102.108 106.797 102.139 106.779 102.163L104.981 105.093C104.959 105.132 104.931 105.154 104.896 105.166Z" fill="white"/>
<path d="M113.963 99.9778C113.945 99.9835 113.924 99.9872 113.904 99.9843C113.82 99.9802 113.758 99.9081 113.762 99.8237L113.853 98.3337C113.857 98.2493 113.929 98.1872 114.013 98.1913C114.097 98.1954 114.159 98.2675 114.155 98.3519L114.064 99.8419C114.063 99.9062 114.02 99.9588 113.963 99.9778Z" fill="white"/>
<path d="M114.133 97.1767C114.116 97.1824 114.095 97.1862 114.075 97.1832C113.991 97.1791 113.929 97.107 113.933 97.0226L114.26 91.6272C114.264 91.5429 114.336 91.4808 114.42 91.4849C114.504 91.489 114.566 91.5611 114.562 91.6455L114.235 97.0409C114.231 97.1061 114.191 97.1577 114.133 97.1767Z" fill="white"/>
<path d="M113.298 126.816C114.669 127.108 117.417 126.094 116.81 125.55C116.206 125.006 110.054 120.541 110.054 120.541C110.054 120.541 110.557 118.148 111.191 115.079C109.261 115.451 107.961 115.009 107.171 114.516C107.362 117.661 106.226 120.291 105.518 123.212C105.295 124.139 105.773 124.939 109.853 126.038C112.261 126.686 112.207 126.583 113.298 126.816Z" fill="#FEDEA5"/>
<path d="M115.695 126.689C114.887 126.956 113.901 127.096 113.267 126.964C112.949 126.897 112.729 126.858 112.515 126.82C112.004 126.73 111.52 126.644 109.816 126.185C105.757 125.092 105.113 124.253 105.373 123.177C105.556 122.42 105.769 121.676 105.977 120.955C106.587 118.837 107.163 116.835 107.021 114.527C107.019 114.471 107.046 114.417 107.096 114.388C107.144 114.359 107.205 114.358 107.253 114.39C107.98 114.843 109.248 115.303 111.165 114.931C111.216 114.921 111.265 114.936 111.3 114.973C111.334 115.009 111.351 115.061 111.339 115.11C110.78 117.818 110.322 119.999 110.224 120.475C110.978 121.021 116.338 124.921 116.913 125.436C117.054 125.565 117.088 125.733 117.003 125.902C116.853 126.191 116.33 126.479 115.695 126.689ZM107.337 114.787C107.421 117.028 106.861 118.98 106.269 121.038C106.063 121.754 105.85 122.499 105.668 123.249C105.496 123.964 105.678 124.757 109.894 125.891C111.585 126.348 112.061 126.43 112.567 126.522C112.783 126.559 113.007 126.6 113.332 126.668C114.474 126.91 116.501 126.224 116.734 125.764C116.755 125.722 116.755 125.7 116.713 125.662C116.123 125.129 110.033 120.707 109.971 120.664C109.921 120.629 109.898 120.57 109.911 120.511C109.911 120.511 110.391 118.231 111 115.27C109.3 115.547 108.1 115.196 107.337 114.787Z" fill="#263238"/>
<path d="M110.055 120.541C110.055 120.541 109.577 120.379 109.351 121.307C109.126 122.234 109.092 123.095 109.092 123.095L106.034 121.301C105.853 121.929 105.674 122.564 105.519 123.212C105.296 124.139 105.774 124.939 109.854 126.038C112.261 126.687 112.208 126.583 113.299 126.817C114.67 127.108 117.417 126.094 116.811 125.55C116.206 125.003 110.055 120.541 110.055 120.541Z" fill="#F37630"/>
<path d="M115.695 126.689C114.887 126.956 113.901 127.096 113.268 126.964C112.949 126.897 112.729 126.858 112.515 126.82C112.004 126.73 111.52 126.644 109.816 126.185C105.757 125.092 105.113 124.253 105.373 123.177C105.536 122.504 105.726 121.834 105.89 121.259C105.903 121.213 105.936 121.177 105.978 121.159C106.023 121.141 106.069 121.145 106.112 121.169L108.959 122.839C108.985 122.514 109.05 121.908 109.205 121.269C109.306 120.852 109.473 120.576 109.702 120.449C109.907 120.337 110.084 120.39 110.103 120.397C110.117 120.402 110.132 120.409 110.145 120.418C110.396 120.6 116.309 124.892 116.913 125.436C117.054 125.565 117.088 125.733 117.003 125.902C116.853 126.191 116.33 126.479 115.695 126.689ZM106.126 121.529C105.975 122.058 105.808 122.65 105.664 123.247C105.492 123.962 105.674 124.755 109.89 125.889C111.581 126.346 112.058 126.428 112.563 126.52C112.779 126.557 113.003 126.598 113.328 126.666C114.47 126.908 116.497 126.222 116.731 125.762C116.752 125.72 116.751 125.698 116.71 125.66C116.137 125.143 110.433 121 109.992 120.679C109.965 120.675 109.906 120.679 109.839 120.717C109.737 120.776 109.594 120.932 109.496 121.339C109.277 122.238 109.243 123.09 109.242 123.097C109.24 123.148 109.208 123.197 109.163 123.225C109.117 123.25 109.06 123.249 109.013 123.223L106.126 121.529Z" fill="#F37630"/>
<path d="M109.855 126.038C112.263 126.686 112.209 126.583 113.3 126.816C114.534 127.079 116.879 126.285 116.899 125.726C112.46 126.937 107.694 124.65 105.493 123.362C105.357 124.224 105.995 124.998 109.855 126.038Z" fill="white"/>
<path d="M115.671 126.703C114.887 126.962 113.927 127.107 113.268 126.964C112.949 126.896 112.729 126.857 112.516 126.819C112.005 126.729 111.521 126.643 109.816 126.184C105.89 125.124 105.193 124.31 105.341 123.338C105.349 123.287 105.38 123.245 105.424 123.224C105.471 123.202 105.523 123.204 105.567 123.231C107.93 124.613 112.537 126.758 116.856 125.58C116.903 125.567 116.951 125.577 116.989 125.606C117.027 125.635 117.049 125.682 117.046 125.731C117.041 125.879 116.944 126.03 116.759 126.174C116.513 126.367 116.12 126.555 115.671 126.703ZM105.626 123.614C105.655 124.202 106.27 124.916 109.895 125.89C111.585 126.347 112.062 126.429 112.567 126.521C112.783 126.558 113.007 126.599 113.333 126.667C114.245 126.861 115.861 126.448 116.521 125.975C112.343 126.915 108.005 124.975 105.626 123.614Z" fill="#263238"/>
</svg>
